G04 EAGLE Gerber RS-274X export*
G75*
%MOMM*%
%FSLAX34Y34*%
%LPD*%
%INBottom Copper*%
%IPPOS*%
%AMOC8*
5,1,8,0,0,1.08239X$1,22.5*%
G01*
%ADD10C,2.032000*%
%ADD11C,1.320800*%
%ADD12C,1.950000*%
%ADD13R,1.508000X1.508000*%
%ADD14C,1.508000*%
%ADD15C,1.879600*%
%ADD16C,2.775000*%
%ADD17C,0.152400*%

G36*
X604648Y163335D02*
X604648Y163335D01*
X604747Y163338D01*
X604805Y163355D01*
X604865Y163363D01*
X604958Y163399D01*
X605053Y163427D01*
X605105Y163457D01*
X605161Y163480D01*
X605241Y163538D01*
X605327Y163588D01*
X605402Y163654D01*
X605418Y163666D01*
X605426Y163676D01*
X605447Y163694D01*
X663662Y221909D01*
X666913Y225160D01*
X670927Y226823D01*
X820450Y226823D01*
X820548Y226835D01*
X820647Y226838D01*
X820705Y226855D01*
X820765Y226863D01*
X820858Y226899D01*
X820953Y226927D01*
X821005Y226957D01*
X821061Y226980D01*
X821141Y227038D01*
X821227Y227088D01*
X821302Y227154D01*
X821318Y227166D01*
X821326Y227176D01*
X821347Y227194D01*
X903106Y308953D01*
X903166Y309031D01*
X903234Y309103D01*
X903263Y309156D01*
X903300Y309204D01*
X903340Y309295D01*
X903388Y309381D01*
X903403Y309440D01*
X903427Y309496D01*
X903442Y309594D01*
X903467Y309689D01*
X903473Y309789D01*
X903477Y309810D01*
X903475Y309822D01*
X903477Y309850D01*
X903477Y737108D01*
X903462Y737226D01*
X903455Y737345D01*
X903442Y737383D01*
X903437Y737424D01*
X903394Y737534D01*
X903357Y737647D01*
X903335Y737682D01*
X903320Y737719D01*
X903251Y737815D01*
X903187Y737916D01*
X903157Y737944D01*
X903134Y737977D01*
X903042Y738053D01*
X902955Y738134D01*
X902920Y738154D01*
X902889Y738179D01*
X902781Y738230D01*
X902677Y738288D01*
X902637Y738298D01*
X902601Y738315D01*
X902484Y738337D01*
X902369Y738367D01*
X902309Y738371D01*
X902289Y738375D01*
X902268Y738373D01*
X902208Y738377D01*
X304292Y738377D01*
X304174Y738362D01*
X304055Y738355D01*
X304017Y738342D01*
X303976Y738337D01*
X303866Y738294D01*
X303753Y738257D01*
X303718Y738235D01*
X303681Y738220D01*
X303585Y738151D01*
X303484Y738087D01*
X303456Y738057D01*
X303423Y738034D01*
X303347Y737942D01*
X303266Y737855D01*
X303246Y737820D01*
X303221Y737789D01*
X303170Y737681D01*
X303112Y737577D01*
X303102Y737537D01*
X303085Y737501D01*
X303063Y737384D01*
X303033Y737269D01*
X303029Y737209D01*
X303025Y737189D01*
X303027Y737168D01*
X303023Y737108D01*
X303023Y309850D01*
X303035Y309752D01*
X303038Y309653D01*
X303055Y309595D01*
X303063Y309535D01*
X303099Y309442D01*
X303127Y309347D01*
X303157Y309295D01*
X303180Y309239D01*
X303238Y309159D01*
X303288Y309073D01*
X303354Y308998D01*
X303366Y308982D01*
X303376Y308974D01*
X303394Y308953D01*
X423918Y188430D01*
X424027Y188344D01*
X424134Y188256D01*
X424153Y188247D01*
X424169Y188235D01*
X424297Y188179D01*
X424422Y188120D01*
X424442Y188116D01*
X424461Y188108D01*
X424599Y188086D01*
X424735Y188060D01*
X424755Y188062D01*
X424775Y188058D01*
X424914Y188071D01*
X425052Y188080D01*
X425071Y188086D01*
X425091Y188088D01*
X425223Y188135D01*
X425354Y188178D01*
X425372Y188189D01*
X425391Y188196D01*
X425506Y188274D01*
X425623Y188348D01*
X425637Y188363D01*
X425654Y188374D01*
X425746Y188478D01*
X425841Y188580D01*
X425851Y188598D01*
X425864Y188613D01*
X425928Y188737D01*
X425995Y188858D01*
X426000Y188878D01*
X426009Y188896D01*
X426039Y189032D01*
X426074Y189166D01*
X426076Y189194D01*
X426079Y189206D01*
X426078Y189227D01*
X426084Y189327D01*
X426084Y194163D01*
X428888Y200932D01*
X434068Y206112D01*
X436022Y206921D01*
X436065Y206946D01*
X436112Y206963D01*
X436203Y207024D01*
X436298Y207079D01*
X436334Y207113D01*
X436375Y207141D01*
X436448Y207224D01*
X436527Y207300D01*
X436553Y207343D01*
X436586Y207380D01*
X436636Y207478D01*
X436693Y207571D01*
X436708Y207619D01*
X436730Y207663D01*
X436754Y207770D01*
X436787Y207875D01*
X436789Y207925D01*
X436800Y207973D01*
X436796Y208083D01*
X436802Y208193D01*
X436792Y208241D01*
X436790Y208291D01*
X436760Y208397D01*
X436737Y208504D01*
X436716Y208549D01*
X436702Y208597D01*
X436646Y208691D01*
X436598Y208790D01*
X436565Y208828D01*
X436540Y208871D01*
X436434Y208991D01*
X435523Y209902D01*
X433911Y213794D01*
X433911Y218006D01*
X435523Y221898D01*
X438502Y224877D01*
X442394Y226489D01*
X446606Y226489D01*
X450498Y224877D01*
X453477Y221898D01*
X455089Y218006D01*
X455089Y213794D01*
X453477Y209902D01*
X452566Y208991D01*
X452536Y208952D01*
X452499Y208919D01*
X452439Y208827D01*
X452371Y208740D01*
X452352Y208695D01*
X452324Y208653D01*
X452289Y208549D01*
X452245Y208448D01*
X452237Y208399D01*
X452221Y208352D01*
X452212Y208243D01*
X452195Y208134D01*
X452200Y208085D01*
X452196Y208035D01*
X452215Y207927D01*
X452225Y207818D01*
X452242Y207771D01*
X452250Y207722D01*
X452295Y207622D01*
X452332Y207518D01*
X452360Y207477D01*
X452381Y207432D01*
X452449Y207346D01*
X452511Y207255D01*
X452548Y207222D01*
X452579Y207184D01*
X452667Y207117D01*
X452750Y207045D01*
X452794Y207022D01*
X452833Y206992D01*
X452978Y206921D01*
X454932Y206112D01*
X460112Y200932D01*
X462916Y194163D01*
X462916Y186837D01*
X460112Y180068D01*
X454932Y174888D01*
X448163Y172084D01*
X443327Y172084D01*
X443189Y172067D01*
X443051Y172054D01*
X443032Y172047D01*
X443011Y172044D01*
X442882Y171993D01*
X442751Y171946D01*
X442735Y171935D01*
X442716Y171927D01*
X442603Y171846D01*
X442488Y171768D01*
X442475Y171752D01*
X442458Y171741D01*
X442370Y171633D01*
X442278Y171529D01*
X442269Y171511D01*
X442256Y171496D01*
X442196Y171370D01*
X442133Y171246D01*
X442129Y171226D01*
X442120Y171208D01*
X442094Y171072D01*
X442064Y170936D01*
X442064Y170915D01*
X442060Y170896D01*
X442069Y170757D01*
X442073Y170618D01*
X442079Y170598D01*
X442080Y170578D01*
X442123Y170446D01*
X442162Y170312D01*
X442172Y170295D01*
X442178Y170276D01*
X442253Y170158D01*
X442323Y170038D01*
X442342Y170017D01*
X442348Y170007D01*
X442363Y169993D01*
X442430Y169918D01*
X448653Y163694D01*
X448731Y163634D01*
X448803Y163566D01*
X448856Y163537D01*
X448904Y163500D01*
X448995Y163460D01*
X449081Y163412D01*
X449140Y163397D01*
X449196Y163373D01*
X449294Y163358D01*
X449389Y163333D01*
X449489Y163327D01*
X449510Y163323D01*
X449522Y163325D01*
X449550Y163323D01*
X604550Y163323D01*
X604648Y163335D01*
G37*
%LPC*%
G36*
X594794Y383111D02*
X594794Y383111D01*
X590902Y384723D01*
X587923Y387702D01*
X586311Y391594D01*
X586311Y395806D01*
X587923Y399698D01*
X590902Y402677D01*
X594794Y404289D01*
X599006Y404289D01*
X602898Y402677D01*
X605877Y399698D01*
X606458Y398294D01*
X606473Y398269D01*
X606482Y398241D01*
X606551Y398131D01*
X606616Y398018D01*
X606636Y397997D01*
X606652Y397972D01*
X606747Y397883D01*
X606837Y397790D01*
X606862Y397774D01*
X606884Y397754D01*
X606997Y397691D01*
X607108Y397623D01*
X607136Y397615D01*
X607162Y397600D01*
X607288Y397568D01*
X607412Y397530D01*
X607442Y397528D01*
X607470Y397521D01*
X607631Y397511D01*
X642620Y397511D01*
X642738Y397526D01*
X642857Y397533D01*
X642895Y397546D01*
X642936Y397551D01*
X643046Y397594D01*
X643159Y397631D01*
X643194Y397653D01*
X643231Y397668D01*
X643327Y397737D01*
X643428Y397801D01*
X643456Y397831D01*
X643489Y397854D01*
X643565Y397946D01*
X643646Y398033D01*
X643666Y398068D01*
X643691Y398099D01*
X643742Y398207D01*
X643800Y398311D01*
X643810Y398351D01*
X643827Y398387D01*
X643849Y398504D01*
X643879Y398619D01*
X643883Y398679D01*
X643887Y398699D01*
X643885Y398720D01*
X643889Y398780D01*
X643889Y446078D01*
X671522Y473711D01*
X684933Y473711D01*
X684963Y473714D01*
X684992Y473712D01*
X685120Y473734D01*
X685249Y473751D01*
X685276Y473761D01*
X685305Y473766D01*
X685424Y473820D01*
X685545Y473868D01*
X685568Y473885D01*
X685595Y473897D01*
X685697Y473978D01*
X685802Y474054D01*
X685821Y474077D01*
X685844Y474096D01*
X685922Y474199D01*
X686005Y474299D01*
X686017Y474326D01*
X686035Y474350D01*
X686106Y474494D01*
X687302Y477382D01*
X691018Y481098D01*
X692545Y481730D01*
X692623Y481775D01*
X692705Y481810D01*
X692760Y481853D01*
X692821Y481888D01*
X692885Y481950D01*
X692956Y482005D01*
X692999Y482060D01*
X693049Y482109D01*
X693096Y482185D01*
X693151Y482256D01*
X693179Y482320D01*
X693216Y482380D01*
X693242Y482466D01*
X693278Y482548D01*
X693289Y482617D01*
X693309Y482684D01*
X693314Y482774D01*
X693328Y482862D01*
X693321Y482932D01*
X693324Y483002D01*
X693306Y483089D01*
X693298Y483179D01*
X693274Y483245D01*
X693260Y483313D01*
X693221Y483394D01*
X693191Y483478D01*
X693151Y483536D01*
X693120Y483599D01*
X693062Y483667D01*
X693012Y483741D01*
X692960Y483788D01*
X692914Y483841D01*
X692841Y483893D01*
X692774Y483952D01*
X692666Y484016D01*
X692654Y484024D01*
X692648Y484027D01*
X692635Y484034D01*
X691843Y484437D01*
X690226Y485612D01*
X688812Y487026D01*
X687637Y488643D01*
X686730Y490425D01*
X686112Y492326D01*
X686043Y492761D01*
X697230Y492761D01*
X697348Y492776D01*
X697467Y492783D01*
X697505Y492796D01*
X697545Y492801D01*
X697656Y492844D01*
X697769Y492881D01*
X697803Y492903D01*
X697841Y492918D01*
X697937Y492988D01*
X698038Y493051D01*
X698066Y493081D01*
X698098Y493104D01*
X698174Y493196D01*
X698256Y493283D01*
X698275Y493318D01*
X698301Y493349D01*
X698352Y493457D01*
X698409Y493561D01*
X698420Y493601D01*
X698437Y493637D01*
X698459Y493754D01*
X698489Y493869D01*
X698493Y493930D01*
X698497Y493950D01*
X698495Y493970D01*
X698499Y494030D01*
X698499Y496570D01*
X698484Y496688D01*
X698477Y496807D01*
X698464Y496845D01*
X698459Y496885D01*
X698415Y496996D01*
X698379Y497109D01*
X698357Y497144D01*
X698342Y497181D01*
X698272Y497277D01*
X698209Y497378D01*
X698179Y497406D01*
X698155Y497439D01*
X698064Y497514D01*
X697977Y497596D01*
X697942Y497616D01*
X697910Y497641D01*
X697803Y497692D01*
X697698Y497750D01*
X697659Y497760D01*
X697623Y497777D01*
X697506Y497799D01*
X697391Y497829D01*
X697330Y497833D01*
X697310Y497837D01*
X697290Y497835D01*
X697230Y497839D01*
X686043Y497839D01*
X686112Y498274D01*
X686730Y500175D01*
X687637Y501957D01*
X688812Y503574D01*
X690226Y504988D01*
X691843Y506163D01*
X692635Y506566D01*
X692709Y506616D01*
X692788Y506658D01*
X692840Y506705D01*
X692898Y506745D01*
X692958Y506812D01*
X693024Y506872D01*
X693062Y506931D01*
X693109Y506983D01*
X693149Y507063D01*
X693199Y507138D01*
X693221Y507204D01*
X693253Y507267D01*
X693273Y507354D01*
X693302Y507439D01*
X693307Y507509D01*
X693323Y507577D01*
X693320Y507666D01*
X693327Y507756D01*
X693315Y507825D01*
X693313Y507895D01*
X693288Y507981D01*
X693273Y508069D01*
X693244Y508133D01*
X693224Y508200D01*
X693179Y508277D01*
X693142Y508359D01*
X693098Y508414D01*
X693063Y508474D01*
X692999Y508538D01*
X692943Y508608D01*
X692887Y508650D01*
X692838Y508699D01*
X692761Y508745D01*
X692689Y508799D01*
X692577Y508854D01*
X692564Y508861D01*
X692558Y508863D01*
X692545Y508870D01*
X691018Y509502D01*
X687302Y513218D01*
X685291Y518073D01*
X685291Y523327D01*
X687302Y528182D01*
X691018Y531898D01*
X691813Y532227D01*
X691934Y532296D01*
X692057Y532361D01*
X692072Y532375D01*
X692090Y532385D01*
X692190Y532482D01*
X692292Y532575D01*
X692304Y532592D01*
X692318Y532606D01*
X692391Y532725D01*
X692467Y532841D01*
X692474Y532860D01*
X692484Y532877D01*
X692525Y533010D01*
X692570Y533142D01*
X692572Y533162D01*
X692578Y533181D01*
X692585Y533320D01*
X692596Y533459D01*
X692592Y533479D01*
X692593Y533499D01*
X692565Y533635D01*
X692541Y533772D01*
X692533Y533791D01*
X692529Y533810D01*
X692468Y533935D01*
X692411Y534062D01*
X692398Y534078D01*
X692389Y534096D01*
X692299Y534202D01*
X692212Y534310D01*
X692196Y534323D01*
X692183Y534338D01*
X692069Y534418D01*
X691958Y534502D01*
X691933Y534514D01*
X691923Y534521D01*
X691904Y534528D01*
X691813Y534573D01*
X691018Y534902D01*
X687302Y538618D01*
X685291Y543473D01*
X685291Y548727D01*
X687302Y553582D01*
X691018Y557298D01*
X695873Y559309D01*
X701127Y559309D01*
X705982Y557298D01*
X709698Y553582D01*
X711709Y548727D01*
X711709Y543473D01*
X709698Y538618D01*
X705982Y534902D01*
X705187Y534573D01*
X705066Y534504D01*
X704943Y534439D01*
X704928Y534425D01*
X704910Y534415D01*
X704810Y534318D01*
X704708Y534225D01*
X704696Y534208D01*
X704682Y534194D01*
X704609Y534075D01*
X704533Y533959D01*
X704526Y533940D01*
X704516Y533923D01*
X704475Y533790D01*
X704430Y533658D01*
X704428Y533638D01*
X704422Y533619D01*
X704415Y533480D01*
X704404Y533341D01*
X704408Y533321D01*
X704407Y533301D01*
X704435Y533165D01*
X704459Y533028D01*
X704467Y533010D01*
X704471Y532990D01*
X704532Y532864D01*
X704589Y532738D01*
X704602Y532722D01*
X704611Y532704D01*
X704702Y532598D01*
X704788Y532490D01*
X704804Y532477D01*
X704817Y532462D01*
X704932Y532381D01*
X705042Y532298D01*
X705067Y532286D01*
X705077Y532279D01*
X705097Y532272D01*
X705187Y532227D01*
X705982Y531898D01*
X709698Y528182D01*
X711709Y523327D01*
X711709Y518073D01*
X709698Y513218D01*
X705982Y509502D01*
X704455Y508870D01*
X704377Y508825D01*
X704295Y508790D01*
X704240Y508747D01*
X704179Y508712D01*
X704115Y508650D01*
X704044Y508595D01*
X704001Y508540D01*
X703951Y508491D01*
X703904Y508414D01*
X703849Y508344D01*
X703821Y508280D01*
X703784Y508220D01*
X703758Y508134D01*
X703722Y508052D01*
X703711Y507983D01*
X703691Y507916D01*
X703686Y507826D01*
X703672Y507738D01*
X703679Y507668D01*
X703676Y507598D01*
X703694Y507511D01*
X703702Y507421D01*
X703726Y507355D01*
X703740Y507287D01*
X703779Y507206D01*
X703809Y507122D01*
X703849Y507064D01*
X703880Y507001D01*
X703938Y506933D01*
X703988Y506859D01*
X704040Y506812D01*
X704086Y506759D01*
X704159Y506707D01*
X704226Y506648D01*
X704334Y506584D01*
X704346Y506576D01*
X704352Y506573D01*
X704365Y506566D01*
X705157Y506163D01*
X706774Y504988D01*
X708188Y503574D01*
X709363Y501957D01*
X710270Y500175D01*
X710888Y498274D01*
X710957Y497839D01*
X699770Y497839D01*
X699652Y497824D01*
X699533Y497817D01*
X699495Y497804D01*
X699455Y497799D01*
X699344Y497756D01*
X699231Y497719D01*
X699197Y497697D01*
X699159Y497682D01*
X699063Y497612D01*
X698962Y497549D01*
X698934Y497519D01*
X698902Y497495D01*
X698826Y497404D01*
X698744Y497317D01*
X698725Y497282D01*
X698699Y497251D01*
X698648Y497143D01*
X698591Y497039D01*
X698580Y496999D01*
X698563Y496963D01*
X698541Y496846D01*
X698511Y496731D01*
X698507Y496670D01*
X698503Y496650D01*
X698505Y496630D01*
X698501Y496570D01*
X698501Y494030D01*
X698516Y493912D01*
X698523Y493793D01*
X698536Y493755D01*
X698541Y493714D01*
X698585Y493604D01*
X698621Y493491D01*
X698643Y493456D01*
X698658Y493419D01*
X698728Y493323D01*
X698791Y493222D01*
X698821Y493194D01*
X698845Y493161D01*
X698936Y493086D01*
X699023Y493004D01*
X699058Y492984D01*
X699090Y492959D01*
X699197Y492908D01*
X699302Y492850D01*
X699341Y492840D01*
X699377Y492823D01*
X699494Y492801D01*
X699609Y492771D01*
X699670Y492767D01*
X699690Y492763D01*
X699710Y492765D01*
X699770Y492761D01*
X710957Y492761D01*
X710888Y492326D01*
X710270Y490425D01*
X709363Y488643D01*
X708188Y487026D01*
X706774Y485612D01*
X705157Y484437D01*
X704365Y484034D01*
X704291Y483984D01*
X704212Y483942D01*
X704160Y483895D01*
X704102Y483855D01*
X704042Y483788D01*
X703976Y483728D01*
X703938Y483669D01*
X703891Y483617D01*
X703851Y483537D01*
X703801Y483462D01*
X703779Y483396D01*
X703747Y483333D01*
X703727Y483246D01*
X703698Y483161D01*
X703693Y483091D01*
X703677Y483023D01*
X703680Y482934D01*
X703673Y482844D01*
X703685Y482775D01*
X703687Y482705D01*
X703712Y482619D01*
X703727Y482531D01*
X703756Y482467D01*
X703776Y482400D01*
X703821Y482323D01*
X703858Y482241D01*
X703902Y482186D01*
X703937Y482126D01*
X704001Y482062D01*
X704057Y481992D01*
X704113Y481950D01*
X704162Y481901D01*
X704239Y481855D01*
X704311Y481801D01*
X704423Y481746D01*
X704436Y481739D01*
X704442Y481737D01*
X704455Y481730D01*
X705982Y481098D01*
X709698Y477382D01*
X711709Y472527D01*
X711709Y467273D01*
X709698Y462418D01*
X705982Y458702D01*
X705187Y458373D01*
X705066Y458304D01*
X704943Y458239D01*
X704928Y458225D01*
X704910Y458215D01*
X704810Y458118D01*
X704708Y458025D01*
X704696Y458008D01*
X704682Y457994D01*
X704609Y457875D01*
X704533Y457759D01*
X704526Y457740D01*
X704516Y457723D01*
X704475Y457590D01*
X704430Y457458D01*
X704428Y457438D01*
X704422Y457419D01*
X704415Y457280D01*
X704404Y457141D01*
X704408Y457121D01*
X704407Y457101D01*
X704435Y456965D01*
X704459Y456828D01*
X704467Y456810D01*
X704471Y456790D01*
X704532Y456664D01*
X704589Y456538D01*
X704602Y456522D01*
X704611Y456504D01*
X704702Y456398D01*
X704788Y456290D01*
X704804Y456277D01*
X704817Y456262D01*
X704932Y456181D01*
X705042Y456098D01*
X705067Y456086D01*
X705077Y456079D01*
X705097Y456072D01*
X705187Y456027D01*
X705982Y455698D01*
X709698Y451982D01*
X711709Y447127D01*
X711709Y441873D01*
X709698Y437018D01*
X705982Y433302D01*
X705187Y432973D01*
X705066Y432904D01*
X704943Y432839D01*
X704928Y432825D01*
X704910Y432815D01*
X704810Y432718D01*
X704708Y432625D01*
X704696Y432608D01*
X704682Y432594D01*
X704609Y432475D01*
X704533Y432359D01*
X704526Y432340D01*
X704516Y432323D01*
X704475Y432190D01*
X704430Y432058D01*
X704428Y432038D01*
X704422Y432019D01*
X704415Y431880D01*
X704404Y431741D01*
X704408Y431721D01*
X704407Y431701D01*
X704435Y431565D01*
X704459Y431428D01*
X704467Y431409D01*
X704471Y431390D01*
X704532Y431265D01*
X704589Y431138D01*
X704602Y431122D01*
X704611Y431104D01*
X704701Y430998D01*
X704788Y430890D01*
X704804Y430877D01*
X704817Y430862D01*
X704931Y430782D01*
X705042Y430698D01*
X705067Y430686D01*
X705077Y430679D01*
X705096Y430672D01*
X705187Y430627D01*
X705982Y430298D01*
X709698Y426582D01*
X711709Y421727D01*
X711709Y416473D01*
X709698Y411618D01*
X705982Y407902D01*
X701127Y405891D01*
X695873Y405891D01*
X691018Y407902D01*
X687302Y411618D01*
X685291Y416473D01*
X685291Y421727D01*
X687302Y426582D01*
X691018Y430298D01*
X691813Y430627D01*
X691934Y430696D01*
X692057Y430761D01*
X692072Y430775D01*
X692090Y430785D01*
X692190Y430882D01*
X692292Y430975D01*
X692304Y430992D01*
X692318Y431006D01*
X692391Y431125D01*
X692467Y431241D01*
X692474Y431260D01*
X692484Y431277D01*
X692525Y431410D01*
X692570Y431542D01*
X692572Y431562D01*
X692578Y431581D01*
X692585Y431720D01*
X692596Y431859D01*
X692592Y431879D01*
X692593Y431899D01*
X692565Y432035D01*
X692541Y432172D01*
X692533Y432190D01*
X692529Y432210D01*
X692468Y432336D01*
X692411Y432462D01*
X692398Y432478D01*
X692389Y432496D01*
X692298Y432602D01*
X692212Y432710D01*
X692196Y432723D01*
X692183Y432738D01*
X692068Y432819D01*
X691958Y432902D01*
X691933Y432914D01*
X691923Y432921D01*
X691903Y432928D01*
X691813Y432973D01*
X691018Y433302D01*
X687302Y437018D01*
X685291Y441873D01*
X685291Y447127D01*
X687302Y451982D01*
X691018Y455698D01*
X691813Y456027D01*
X691934Y456096D01*
X692057Y456161D01*
X692072Y456175D01*
X692090Y456185D01*
X692190Y456282D01*
X692292Y456375D01*
X692304Y456392D01*
X692318Y456406D01*
X692391Y456525D01*
X692467Y456641D01*
X692474Y456660D01*
X692484Y456677D01*
X692525Y456810D01*
X692570Y456942D01*
X692572Y456962D01*
X692578Y456981D01*
X692585Y457120D01*
X692596Y457259D01*
X692592Y457279D01*
X692593Y457299D01*
X692565Y457435D01*
X692541Y457572D01*
X692533Y457591D01*
X692529Y457610D01*
X692468Y457735D01*
X692411Y457862D01*
X692398Y457878D01*
X692389Y457896D01*
X692299Y458002D01*
X692212Y458110D01*
X692196Y458123D01*
X692183Y458138D01*
X692069Y458218D01*
X691958Y458302D01*
X691933Y458314D01*
X691923Y458321D01*
X691904Y458328D01*
X691813Y458373D01*
X691018Y458702D01*
X687302Y462418D01*
X686106Y465306D01*
X686091Y465331D01*
X686082Y465359D01*
X686013Y465469D01*
X685948Y465582D01*
X685928Y465603D01*
X685912Y465628D01*
X685817Y465717D01*
X685727Y465810D01*
X685702Y465826D01*
X685680Y465846D01*
X685567Y465909D01*
X685456Y465977D01*
X685428Y465985D01*
X685402Y466000D01*
X685276Y466032D01*
X685152Y466070D01*
X685123Y466072D01*
X685094Y466079D01*
X684933Y466089D01*
X675204Y466089D01*
X675106Y466077D01*
X675007Y466074D01*
X674949Y466057D01*
X674889Y466049D01*
X674797Y466013D01*
X674701Y465985D01*
X674649Y465955D01*
X674593Y465932D01*
X674513Y465874D01*
X674428Y465824D01*
X674352Y465758D01*
X674336Y465746D01*
X674328Y465736D01*
X674307Y465718D01*
X651882Y443293D01*
X651822Y443215D01*
X651754Y443143D01*
X651725Y443090D01*
X651688Y443042D01*
X651648Y442951D01*
X651600Y442864D01*
X651585Y442806D01*
X651561Y442750D01*
X651546Y442652D01*
X651521Y442556D01*
X651515Y442456D01*
X651511Y442436D01*
X651513Y442424D01*
X651511Y442396D01*
X651511Y392122D01*
X649278Y389889D01*
X607631Y389889D01*
X607601Y389886D01*
X607572Y389888D01*
X607444Y389866D01*
X607315Y389849D01*
X607288Y389839D01*
X607259Y389834D01*
X607140Y389780D01*
X607020Y389732D01*
X606996Y389715D01*
X606969Y389703D01*
X606867Y389622D01*
X606762Y389546D01*
X606743Y389523D01*
X606720Y389504D01*
X606642Y389401D01*
X606559Y389301D01*
X606547Y389274D01*
X606529Y389250D01*
X606458Y389106D01*
X605877Y387702D01*
X602898Y384723D01*
X599006Y383111D01*
X594794Y383111D01*
G37*
%LPD*%
%LPC*%
G36*
X796203Y634491D02*
X796203Y634491D01*
X791348Y636502D01*
X787632Y640218D01*
X786436Y643106D01*
X786421Y643131D01*
X786412Y643159D01*
X786343Y643269D01*
X786278Y643382D01*
X786258Y643403D01*
X786242Y643428D01*
X786147Y643517D01*
X786057Y643610D01*
X786032Y643626D01*
X786010Y643646D01*
X785897Y643709D01*
X785786Y643777D01*
X785758Y643785D01*
X785732Y643800D01*
X785606Y643832D01*
X785482Y643870D01*
X785453Y643872D01*
X785424Y643879D01*
X785263Y643889D01*
X663922Y643889D01*
X624442Y683369D01*
X624418Y683387D01*
X624399Y683410D01*
X624336Y683454D01*
X624317Y683472D01*
X624290Y683487D01*
X624191Y683564D01*
X624163Y683576D01*
X624139Y683593D01*
X624018Y683639D01*
X623899Y683690D01*
X623870Y683695D01*
X623842Y683705D01*
X623713Y683720D01*
X623585Y683740D01*
X623555Y683737D01*
X623526Y683741D01*
X623397Y683723D01*
X623268Y683710D01*
X623240Y683700D01*
X623211Y683696D01*
X623059Y683644D01*
X618066Y681576D01*
X611334Y681576D01*
X605113Y684153D01*
X600353Y688913D01*
X597776Y695134D01*
X597776Y701866D01*
X600353Y708087D01*
X605113Y712847D01*
X611334Y715424D01*
X618066Y715424D01*
X624287Y712847D01*
X629047Y708087D01*
X631624Y701866D01*
X631624Y695134D01*
X629556Y690141D01*
X629548Y690113D01*
X629535Y690087D01*
X629506Y689960D01*
X629472Y689835D01*
X629471Y689805D01*
X629465Y689776D01*
X629469Y689647D01*
X629467Y689517D01*
X629474Y689488D01*
X629475Y689458D01*
X629511Y689334D01*
X629541Y689207D01*
X629555Y689181D01*
X629563Y689153D01*
X629629Y689041D01*
X629690Y688926D01*
X629710Y688904D01*
X629725Y688879D01*
X629831Y688758D01*
X666707Y651882D01*
X666785Y651822D01*
X666857Y651754D01*
X666910Y651725D01*
X666958Y651688D01*
X667049Y651648D01*
X667136Y651600D01*
X667194Y651585D01*
X667250Y651561D01*
X667348Y651546D01*
X667444Y651521D01*
X667544Y651515D01*
X667564Y651511D01*
X667576Y651513D01*
X667604Y651511D01*
X785263Y651511D01*
X785293Y651514D01*
X785322Y651512D01*
X785450Y651534D01*
X785579Y651551D01*
X785606Y651561D01*
X785635Y651566D01*
X785754Y651620D01*
X785875Y651668D01*
X785898Y651685D01*
X785925Y651697D01*
X786027Y651778D01*
X786132Y651854D01*
X786151Y651877D01*
X786174Y651896D01*
X786252Y651999D01*
X786335Y652099D01*
X786347Y652126D01*
X786365Y652150D01*
X786436Y652294D01*
X787632Y655182D01*
X791348Y658898D01*
X796203Y660909D01*
X801457Y660909D01*
X806312Y658898D01*
X810028Y655182D01*
X811972Y650488D01*
X811987Y650462D01*
X811996Y650434D01*
X812066Y650324D01*
X812130Y650212D01*
X812151Y650190D01*
X812167Y650165D01*
X812261Y650076D01*
X812351Y649983D01*
X812376Y649968D01*
X812398Y649947D01*
X812512Y649885D01*
X812622Y649817D01*
X812651Y649808D01*
X812677Y649794D01*
X812802Y649762D01*
X812926Y649723D01*
X812956Y649722D01*
X812985Y649715D01*
X813115Y649715D01*
X813244Y649708D01*
X813273Y649714D01*
X813303Y649714D01*
X813428Y649746D01*
X813555Y649773D01*
X813582Y649786D01*
X813611Y649793D01*
X813724Y649855D01*
X813841Y649912D01*
X813864Y649932D01*
X813890Y649946D01*
X813984Y650034D01*
X814083Y650119D01*
X814100Y650143D01*
X814122Y650164D01*
X814191Y650273D01*
X814266Y650379D01*
X814277Y650407D01*
X814293Y650432D01*
X814352Y650582D01*
X815000Y652575D01*
X815907Y654357D01*
X817082Y655974D01*
X818496Y657388D01*
X820113Y658563D01*
X821895Y659470D01*
X823796Y660088D01*
X824231Y660157D01*
X824231Y648970D01*
X824246Y648852D01*
X824253Y648733D01*
X824266Y648695D01*
X824271Y648655D01*
X824314Y648544D01*
X824351Y648431D01*
X824373Y648397D01*
X824388Y648359D01*
X824458Y648263D01*
X824521Y648162D01*
X824551Y648134D01*
X824574Y648102D01*
X824666Y648026D01*
X824753Y647944D01*
X824788Y647925D01*
X824819Y647899D01*
X824927Y647848D01*
X825031Y647791D01*
X825071Y647780D01*
X825107Y647763D01*
X825224Y647741D01*
X825339Y647711D01*
X825400Y647707D01*
X825420Y647703D01*
X825440Y647705D01*
X825500Y647701D01*
X826771Y647701D01*
X826771Y647699D01*
X825500Y647699D01*
X825382Y647684D01*
X825263Y647677D01*
X825225Y647664D01*
X825184Y647659D01*
X825074Y647615D01*
X824961Y647579D01*
X824926Y647557D01*
X824889Y647542D01*
X824793Y647472D01*
X824692Y647409D01*
X824664Y647379D01*
X824631Y647355D01*
X824556Y647264D01*
X824474Y647177D01*
X824454Y647142D01*
X824429Y647110D01*
X824378Y647003D01*
X824320Y646898D01*
X824310Y646859D01*
X824293Y646823D01*
X824271Y646706D01*
X824241Y646591D01*
X824237Y646530D01*
X824233Y646510D01*
X824235Y646490D01*
X824231Y646430D01*
X824231Y635243D01*
X823796Y635312D01*
X821895Y635930D01*
X820113Y636837D01*
X818496Y638012D01*
X817082Y639426D01*
X815907Y641043D01*
X815000Y642825D01*
X814352Y644818D01*
X814339Y644846D01*
X814332Y644875D01*
X814272Y644989D01*
X814217Y645106D01*
X814198Y645129D01*
X814184Y645156D01*
X814096Y645252D01*
X814014Y645351D01*
X813990Y645369D01*
X813970Y645391D01*
X813862Y645462D01*
X813757Y645538D01*
X813729Y645549D01*
X813704Y645566D01*
X813582Y645608D01*
X813461Y645656D01*
X813431Y645659D01*
X813403Y645669D01*
X813274Y645679D01*
X813146Y645696D01*
X813116Y645692D01*
X813086Y645694D01*
X812958Y645672D01*
X812830Y645656D01*
X812802Y645645D01*
X812773Y645640D01*
X812655Y645587D01*
X812534Y645539D01*
X812510Y645521D01*
X812483Y645509D01*
X812382Y645428D01*
X812277Y645352D01*
X812258Y645329D01*
X812234Y645311D01*
X812156Y645207D01*
X812074Y645107D01*
X812061Y645080D01*
X812043Y645057D01*
X811972Y644912D01*
X810028Y640218D01*
X806312Y636502D01*
X801457Y634491D01*
X796203Y634491D01*
G37*
%LPD*%
%LPC*%
G36*
X873673Y431291D02*
X873673Y431291D01*
X868818Y433302D01*
X865102Y437018D01*
X863091Y441873D01*
X863091Y447127D01*
X865102Y451982D01*
X868818Y455698D01*
X869613Y456027D01*
X869734Y456096D01*
X869857Y456161D01*
X869872Y456175D01*
X869890Y456185D01*
X869990Y456282D01*
X870092Y456375D01*
X870104Y456392D01*
X870118Y456406D01*
X870191Y456525D01*
X870267Y456641D01*
X870274Y456660D01*
X870284Y456677D01*
X870325Y456810D01*
X870370Y456942D01*
X870372Y456962D01*
X870378Y456981D01*
X870385Y457120D01*
X870396Y457259D01*
X870392Y457279D01*
X870393Y457299D01*
X870365Y457435D01*
X870341Y457572D01*
X870333Y457590D01*
X870329Y457610D01*
X870268Y457736D01*
X870211Y457862D01*
X870198Y457878D01*
X870189Y457896D01*
X870098Y458002D01*
X870012Y458110D01*
X869996Y458123D01*
X869983Y458138D01*
X869868Y458219D01*
X869758Y458302D01*
X869733Y458314D01*
X869723Y458321D01*
X869703Y458328D01*
X869613Y458373D01*
X868818Y458702D01*
X865102Y462418D01*
X863091Y467273D01*
X863091Y472527D01*
X865102Y477382D01*
X868818Y481098D01*
X869613Y481427D01*
X869734Y481496D01*
X869857Y481561D01*
X869872Y481575D01*
X869890Y481585D01*
X869990Y481682D01*
X870092Y481775D01*
X870104Y481792D01*
X870118Y481806D01*
X870191Y481925D01*
X870267Y482041D01*
X870274Y482060D01*
X870284Y482077D01*
X870325Y482210D01*
X870370Y482342D01*
X870372Y482362D01*
X870378Y482381D01*
X870385Y482520D01*
X870396Y482659D01*
X870392Y482679D01*
X870393Y482699D01*
X870365Y482835D01*
X870341Y482972D01*
X870333Y482990D01*
X870329Y483010D01*
X870268Y483136D01*
X870211Y483262D01*
X870198Y483278D01*
X870189Y483296D01*
X870098Y483402D01*
X870012Y483510D01*
X869996Y483523D01*
X869983Y483538D01*
X869868Y483619D01*
X869758Y483702D01*
X869733Y483714D01*
X869723Y483721D01*
X869703Y483728D01*
X869613Y483773D01*
X868818Y484102D01*
X865102Y487818D01*
X863091Y492673D01*
X863091Y497927D01*
X865102Y502782D01*
X868818Y506498D01*
X869613Y506827D01*
X869734Y506896D01*
X869857Y506961D01*
X869872Y506975D01*
X869890Y506985D01*
X869990Y507082D01*
X870092Y507175D01*
X870104Y507192D01*
X870118Y507206D01*
X870191Y507325D01*
X870267Y507441D01*
X870274Y507460D01*
X870284Y507477D01*
X870325Y507610D01*
X870370Y507742D01*
X870372Y507762D01*
X870378Y507781D01*
X870385Y507920D01*
X870396Y508059D01*
X870392Y508079D01*
X870393Y508099D01*
X870365Y508235D01*
X870341Y508372D01*
X870333Y508390D01*
X870329Y508410D01*
X870268Y508536D01*
X870211Y508662D01*
X870198Y508678D01*
X870189Y508696D01*
X870098Y508802D01*
X870012Y508910D01*
X869996Y508923D01*
X869983Y508938D01*
X869868Y509019D01*
X869758Y509102D01*
X869733Y509114D01*
X869723Y509121D01*
X869703Y509128D01*
X869613Y509173D01*
X868818Y509502D01*
X865102Y513218D01*
X863091Y518073D01*
X863091Y523327D01*
X865102Y528182D01*
X868818Y531898D01*
X873673Y533909D01*
X878927Y533909D01*
X883782Y531898D01*
X887498Y528182D01*
X889509Y523327D01*
X889509Y518073D01*
X887498Y513218D01*
X883782Y509502D01*
X882987Y509173D01*
X882866Y509104D01*
X882743Y509039D01*
X882728Y509025D01*
X882710Y509015D01*
X882610Y508918D01*
X882508Y508825D01*
X882496Y508808D01*
X882482Y508794D01*
X882409Y508675D01*
X882333Y508559D01*
X882326Y508540D01*
X882316Y508523D01*
X882275Y508390D01*
X882230Y508258D01*
X882228Y508238D01*
X882222Y508219D01*
X882215Y508080D01*
X882204Y507941D01*
X882208Y507921D01*
X882207Y507901D01*
X882235Y507765D01*
X882259Y507628D01*
X882267Y507609D01*
X882271Y507590D01*
X882332Y507465D01*
X882389Y507338D01*
X882402Y507322D01*
X882411Y507304D01*
X882501Y507198D01*
X882588Y507090D01*
X882604Y507077D01*
X882617Y507062D01*
X882731Y506982D01*
X882842Y506898D01*
X882867Y506886D01*
X882877Y506879D01*
X882896Y506872D01*
X882987Y506827D01*
X883782Y506498D01*
X887498Y502782D01*
X889509Y497927D01*
X889509Y492673D01*
X887498Y487818D01*
X883782Y484102D01*
X882987Y483773D01*
X882866Y483704D01*
X882743Y483639D01*
X882728Y483625D01*
X882710Y483615D01*
X882610Y483518D01*
X882508Y483425D01*
X882496Y483408D01*
X882482Y483394D01*
X882409Y483275D01*
X882333Y483159D01*
X882326Y483140D01*
X882316Y483123D01*
X882275Y482990D01*
X882230Y482858D01*
X882228Y482838D01*
X882222Y482819D01*
X882215Y482680D01*
X882204Y482541D01*
X882208Y482521D01*
X882207Y482501D01*
X882235Y482365D01*
X882259Y482228D01*
X882267Y482209D01*
X882271Y482190D01*
X882332Y482065D01*
X882389Y481938D01*
X882402Y481922D01*
X882411Y481904D01*
X882501Y481798D01*
X882588Y481690D01*
X882604Y481677D01*
X882617Y481662D01*
X882731Y481582D01*
X882842Y481498D01*
X882867Y481486D01*
X882877Y481479D01*
X882896Y481472D01*
X882987Y481427D01*
X883782Y481098D01*
X887498Y477382D01*
X889509Y472527D01*
X889509Y467273D01*
X887498Y462418D01*
X883782Y458702D01*
X882987Y458373D01*
X882866Y458304D01*
X882743Y458239D01*
X882728Y458225D01*
X882710Y458215D01*
X882610Y458118D01*
X882508Y458025D01*
X882496Y458008D01*
X882482Y457994D01*
X882409Y457875D01*
X882333Y457759D01*
X882326Y457740D01*
X882316Y457723D01*
X882275Y457590D01*
X882230Y457458D01*
X882228Y457438D01*
X882222Y457419D01*
X882215Y457280D01*
X882204Y457141D01*
X882208Y457121D01*
X882207Y457101D01*
X882235Y456965D01*
X882259Y456828D01*
X882267Y456809D01*
X882271Y456790D01*
X882332Y456665D01*
X882389Y456538D01*
X882402Y456522D01*
X882411Y456504D01*
X882501Y456398D01*
X882588Y456290D01*
X882604Y456277D01*
X882617Y456262D01*
X882731Y456182D01*
X882842Y456098D01*
X882867Y456086D01*
X882877Y456079D01*
X882896Y456072D01*
X882987Y456027D01*
X883782Y455698D01*
X887498Y451982D01*
X889509Y447127D01*
X889509Y441873D01*
X887498Y437018D01*
X883782Y433302D01*
X878927Y431291D01*
X873673Y431291D01*
G37*
%LPD*%
%LPC*%
G36*
X435697Y560911D02*
X435697Y560911D01*
X433911Y562697D01*
X433911Y580552D01*
X433925Y580637D01*
X433951Y580753D01*
X433950Y580793D01*
X433956Y580833D01*
X433945Y580952D01*
X433941Y581071D01*
X433930Y581110D01*
X433926Y581150D01*
X433886Y581262D01*
X433853Y581377D01*
X433832Y581411D01*
X433819Y581449D01*
X433752Y581548D01*
X433691Y581651D01*
X433652Y581695D01*
X433640Y581712D01*
X433625Y581726D01*
X433585Y581771D01*
X428888Y586468D01*
X426084Y593237D01*
X426084Y600563D01*
X428888Y607332D01*
X434068Y612512D01*
X440837Y615316D01*
X448163Y615316D01*
X454932Y612512D01*
X460112Y607332D01*
X462916Y600563D01*
X462916Y593237D01*
X460112Y586468D01*
X455415Y581771D01*
X455342Y581677D01*
X455263Y581588D01*
X455245Y581552D01*
X455220Y581520D01*
X455173Y581411D01*
X455119Y581304D01*
X455110Y581265D01*
X455094Y581228D01*
X455075Y581110D01*
X455049Y580994D01*
X455050Y580954D01*
X455044Y580914D01*
X455055Y580795D01*
X455059Y580676D01*
X455070Y580638D01*
X455074Y580598D01*
X455089Y580556D01*
X455089Y562697D01*
X453303Y560911D01*
X435697Y560911D01*
G37*
%LPD*%
%LPC*%
G36*
X593237Y172084D02*
X593237Y172084D01*
X586468Y174888D01*
X581288Y180068D01*
X578484Y186837D01*
X578484Y194163D01*
X581288Y200932D01*
X586468Y206112D01*
X588422Y206921D01*
X588465Y206946D01*
X588512Y206963D01*
X588603Y207024D01*
X588698Y207079D01*
X588734Y207113D01*
X588775Y207141D01*
X588848Y207224D01*
X588927Y207300D01*
X588953Y207343D01*
X588986Y207380D01*
X589036Y207478D01*
X589093Y207571D01*
X589108Y207619D01*
X589130Y207663D01*
X589154Y207770D01*
X589187Y207875D01*
X589189Y207925D01*
X589200Y207973D01*
X589196Y208083D01*
X589202Y208193D01*
X589192Y208241D01*
X589190Y208291D01*
X589160Y208397D01*
X589137Y208504D01*
X589116Y208549D01*
X589102Y208597D01*
X589046Y208691D01*
X588998Y208790D01*
X588965Y208828D01*
X588940Y208871D01*
X588834Y208991D01*
X587923Y209902D01*
X586311Y213794D01*
X586311Y218006D01*
X587923Y221898D01*
X590902Y224877D01*
X594794Y226489D01*
X599006Y226489D01*
X602898Y224877D01*
X605877Y221898D01*
X607489Y218006D01*
X607489Y213794D01*
X605877Y209902D01*
X604966Y208991D01*
X604936Y208952D01*
X604899Y208919D01*
X604839Y208827D01*
X604771Y208740D01*
X604752Y208695D01*
X604724Y208653D01*
X604689Y208549D01*
X604645Y208448D01*
X604637Y208399D01*
X604621Y208352D01*
X604612Y208243D01*
X604595Y208134D01*
X604600Y208085D01*
X604596Y208035D01*
X604615Y207927D01*
X604625Y207818D01*
X604642Y207771D01*
X604650Y207722D01*
X604695Y207622D01*
X604732Y207518D01*
X604760Y207477D01*
X604781Y207432D01*
X604849Y207346D01*
X604911Y207255D01*
X604948Y207222D01*
X604979Y207184D01*
X605067Y207117D01*
X605150Y207045D01*
X605194Y207022D01*
X605233Y206992D01*
X605378Y206921D01*
X607332Y206112D01*
X612512Y200932D01*
X615316Y194163D01*
X615316Y186837D01*
X612512Y180068D01*
X607332Y174888D01*
X600563Y172084D01*
X593237Y172084D01*
G37*
%LPD*%
%LPC*%
G36*
X594794Y560911D02*
X594794Y560911D01*
X590902Y562523D01*
X587923Y565502D01*
X586311Y569394D01*
X586311Y573606D01*
X587923Y577498D01*
X588834Y578409D01*
X588864Y578448D01*
X588901Y578481D01*
X588962Y578573D01*
X589029Y578660D01*
X589048Y578705D01*
X589076Y578747D01*
X589111Y578851D01*
X589155Y578952D01*
X589163Y579001D01*
X589179Y579048D01*
X589188Y579157D01*
X589205Y579266D01*
X589200Y579315D01*
X589204Y579365D01*
X589185Y579473D01*
X589175Y579582D01*
X589158Y579629D01*
X589150Y579678D01*
X589105Y579778D01*
X589068Y579882D01*
X589040Y579923D01*
X589019Y579968D01*
X588951Y580054D01*
X588889Y580145D01*
X588852Y580178D01*
X588821Y580216D01*
X588733Y580283D01*
X588651Y580355D01*
X588606Y580378D01*
X588567Y580408D01*
X588422Y580479D01*
X586468Y581288D01*
X581288Y586468D01*
X578484Y593237D01*
X578484Y600563D01*
X581288Y607332D01*
X586468Y612512D01*
X593237Y615316D01*
X600563Y615316D01*
X607332Y612512D01*
X612512Y607332D01*
X615316Y600563D01*
X615316Y593237D01*
X612512Y586468D01*
X607332Y581288D01*
X605378Y580479D01*
X605335Y580454D01*
X605288Y580437D01*
X605197Y580375D01*
X605102Y580321D01*
X605066Y580287D01*
X605025Y580259D01*
X604952Y580176D01*
X604873Y580100D01*
X604847Y580057D01*
X604814Y580020D01*
X604764Y579922D01*
X604707Y579829D01*
X604692Y579781D01*
X604670Y579737D01*
X604646Y579630D01*
X604613Y579525D01*
X604611Y579475D01*
X604600Y579427D01*
X604604Y579317D01*
X604598Y579207D01*
X604608Y579158D01*
X604610Y579109D01*
X604640Y579003D01*
X604663Y578896D01*
X604684Y578851D01*
X604698Y578803D01*
X604754Y578709D01*
X604802Y578610D01*
X604835Y578572D01*
X604860Y578529D01*
X604966Y578409D01*
X605877Y577498D01*
X607489Y573606D01*
X607489Y569394D01*
X605877Y565502D01*
X602898Y562523D01*
X599006Y560911D01*
X594794Y560911D01*
G37*
%LPD*%
%LPC*%
G36*
X517334Y681576D02*
X517334Y681576D01*
X511113Y684153D01*
X506353Y688913D01*
X503776Y695134D01*
X503776Y701866D01*
X506353Y708087D01*
X511113Y712847D01*
X517334Y715424D01*
X524066Y715424D01*
X530287Y712847D01*
X535047Y708087D01*
X537624Y701866D01*
X537624Y695134D01*
X535047Y688913D01*
X530287Y684153D01*
X524066Y681576D01*
X517334Y681576D01*
G37*
%LPD*%
%LPC*%
G36*
X564334Y681576D02*
X564334Y681576D01*
X558113Y684153D01*
X553353Y688913D01*
X550776Y695134D01*
X550776Y701866D01*
X553353Y708087D01*
X558113Y712847D01*
X564334Y715424D01*
X571066Y715424D01*
X577287Y712847D01*
X582047Y708087D01*
X584624Y701866D01*
X584624Y695134D01*
X582047Y688913D01*
X577287Y684153D01*
X571066Y681576D01*
X564334Y681576D01*
G37*
%LPD*%
%LPC*%
G36*
X721980Y694943D02*
X721980Y694943D01*
X718432Y696413D01*
X715717Y699128D01*
X714247Y702676D01*
X714247Y719724D01*
X715717Y723272D01*
X718432Y725987D01*
X721980Y727457D01*
X725820Y727457D01*
X729368Y725987D01*
X732083Y723272D01*
X733553Y719724D01*
X733553Y702676D01*
X732083Y699128D01*
X729368Y696413D01*
X725820Y694943D01*
X721980Y694943D01*
G37*
%LPD*%
%LPC*%
G36*
X696580Y694943D02*
X696580Y694943D01*
X693032Y696413D01*
X690317Y699128D01*
X688847Y702676D01*
X688847Y719724D01*
X690317Y723272D01*
X693032Y725987D01*
X696580Y727457D01*
X700420Y727457D01*
X703968Y725987D01*
X706683Y723272D01*
X708153Y719724D01*
X708153Y702676D01*
X706683Y699128D01*
X703968Y696413D01*
X700420Y694943D01*
X696580Y694943D01*
G37*
%LPD*%
%LPC*%
G36*
X340354Y695701D02*
X340354Y695701D01*
X335650Y697650D01*
X332050Y701250D01*
X330101Y705954D01*
X330101Y711046D01*
X332050Y715750D01*
X335650Y719350D01*
X340354Y721299D01*
X345446Y721299D01*
X350150Y719350D01*
X353750Y715750D01*
X355699Y711046D01*
X355699Y705954D01*
X353750Y701250D01*
X350150Y697650D01*
X345446Y695701D01*
X340354Y695701D01*
G37*
%LPD*%
%LPC*%
G36*
X784924Y698753D02*
X784924Y698753D01*
X780350Y700648D01*
X776848Y704150D01*
X774953Y708724D01*
X774953Y713676D01*
X776848Y718250D01*
X780350Y721752D01*
X784924Y723647D01*
X789876Y723647D01*
X794450Y721752D01*
X797952Y718250D01*
X799847Y713676D01*
X799847Y708724D01*
X797952Y704150D01*
X794450Y700648D01*
X789876Y698753D01*
X784924Y698753D01*
G37*
%LPD*%
%LPC*%
G36*
X442394Y383111D02*
X442394Y383111D01*
X438502Y384723D01*
X435523Y387702D01*
X433911Y391594D01*
X433911Y395806D01*
X435523Y399698D01*
X438502Y402677D01*
X442394Y404289D01*
X446606Y404289D01*
X450498Y402677D01*
X453477Y399698D01*
X455089Y395806D01*
X455089Y391594D01*
X453477Y387702D01*
X450498Y384723D01*
X446606Y383111D01*
X442394Y383111D01*
G37*
%LPD*%
%LPC*%
G36*
X594794Y357711D02*
X594794Y357711D01*
X590902Y359323D01*
X587923Y362302D01*
X586311Y366194D01*
X586311Y370406D01*
X587923Y374298D01*
X590902Y377277D01*
X594794Y378889D01*
X599006Y378889D01*
X602898Y377277D01*
X605877Y374298D01*
X607489Y370406D01*
X607489Y366194D01*
X605877Y362302D01*
X602898Y359323D01*
X599006Y357711D01*
X594794Y357711D01*
G37*
%LPD*%
%LPC*%
G36*
X442394Y357711D02*
X442394Y357711D01*
X438502Y359323D01*
X435523Y362302D01*
X433911Y366194D01*
X433911Y370406D01*
X435523Y374298D01*
X438502Y377277D01*
X442394Y378889D01*
X446606Y378889D01*
X450498Y377277D01*
X453477Y374298D01*
X455089Y370406D01*
X455089Y366194D01*
X453477Y362302D01*
X450498Y359323D01*
X446606Y357711D01*
X442394Y357711D01*
G37*
%LPD*%
%LPC*%
G36*
X594794Y332311D02*
X594794Y332311D01*
X590902Y333923D01*
X587923Y336902D01*
X586311Y340794D01*
X586311Y345006D01*
X587923Y348898D01*
X590902Y351877D01*
X594794Y353489D01*
X599006Y353489D01*
X602898Y351877D01*
X605877Y348898D01*
X607489Y345006D01*
X607489Y340794D01*
X605877Y336902D01*
X602898Y333923D01*
X599006Y332311D01*
X594794Y332311D01*
G37*
%LPD*%
%LPC*%
G36*
X442394Y332311D02*
X442394Y332311D01*
X438502Y333923D01*
X435523Y336902D01*
X433911Y340794D01*
X433911Y345006D01*
X435523Y348898D01*
X438502Y351877D01*
X442394Y353489D01*
X446606Y353489D01*
X450498Y351877D01*
X453477Y348898D01*
X455089Y345006D01*
X455089Y340794D01*
X453477Y336902D01*
X450498Y333923D01*
X446606Y332311D01*
X442394Y332311D01*
G37*
%LPD*%
%LPC*%
G36*
X594794Y306911D02*
X594794Y306911D01*
X590902Y308523D01*
X587923Y311502D01*
X586311Y315394D01*
X586311Y319606D01*
X587923Y323498D01*
X590902Y326477D01*
X594794Y328089D01*
X599006Y328089D01*
X602898Y326477D01*
X605877Y323498D01*
X607489Y319606D01*
X607489Y315394D01*
X605877Y311502D01*
X602898Y308523D01*
X599006Y306911D01*
X594794Y306911D01*
G37*
%LPD*%
%LPC*%
G36*
X594794Y281511D02*
X594794Y281511D01*
X590902Y283123D01*
X587923Y286102D01*
X586311Y289994D01*
X586311Y294206D01*
X587923Y298098D01*
X590902Y301077D01*
X594794Y302689D01*
X599006Y302689D01*
X602898Y301077D01*
X605877Y298098D01*
X607489Y294206D01*
X607489Y289994D01*
X605877Y286102D01*
X602898Y283123D01*
X599006Y281511D01*
X594794Y281511D01*
G37*
%LPD*%
%LPC*%
G36*
X442394Y281511D02*
X442394Y281511D01*
X438502Y283123D01*
X435523Y286102D01*
X433911Y289994D01*
X433911Y294206D01*
X435523Y298098D01*
X438502Y301077D01*
X442394Y302689D01*
X446606Y302689D01*
X450498Y301077D01*
X453477Y298098D01*
X455089Y294206D01*
X455089Y289994D01*
X453477Y286102D01*
X450498Y283123D01*
X446606Y281511D01*
X442394Y281511D01*
G37*
%LPD*%
%LPC*%
G36*
X594794Y256111D02*
X594794Y256111D01*
X590902Y257723D01*
X587923Y260702D01*
X586311Y264594D01*
X586311Y268806D01*
X587923Y272698D01*
X590902Y275677D01*
X594794Y277289D01*
X599006Y277289D01*
X602898Y275677D01*
X605877Y272698D01*
X607489Y268806D01*
X607489Y264594D01*
X605877Y260702D01*
X602898Y257723D01*
X599006Y256111D01*
X594794Y256111D01*
G37*
%LPD*%
%LPC*%
G36*
X442394Y256111D02*
X442394Y256111D01*
X438502Y257723D01*
X435523Y260702D01*
X433911Y264594D01*
X433911Y268806D01*
X435523Y272698D01*
X438502Y275677D01*
X442394Y277289D01*
X446606Y277289D01*
X450498Y275677D01*
X453477Y272698D01*
X455089Y268806D01*
X455089Y264594D01*
X453477Y260702D01*
X450498Y257723D01*
X446606Y256111D01*
X442394Y256111D01*
G37*
%LPD*%
%LPC*%
G36*
X594794Y230711D02*
X594794Y230711D01*
X590902Y232323D01*
X587923Y235302D01*
X586311Y239194D01*
X586311Y243406D01*
X587923Y247298D01*
X590902Y250277D01*
X594794Y251889D01*
X599006Y251889D01*
X602898Y250277D01*
X605877Y247298D01*
X607489Y243406D01*
X607489Y239194D01*
X605877Y235302D01*
X602898Y232323D01*
X599006Y230711D01*
X594794Y230711D01*
G37*
%LPD*%
%LPC*%
G36*
X442394Y230711D02*
X442394Y230711D01*
X438502Y232323D01*
X435523Y235302D01*
X433911Y239194D01*
X433911Y243406D01*
X435523Y247298D01*
X438502Y250277D01*
X442394Y251889D01*
X446606Y251889D01*
X450498Y250277D01*
X453477Y247298D01*
X455089Y243406D01*
X455089Y239194D01*
X453477Y235302D01*
X450498Y232323D01*
X446606Y230711D01*
X442394Y230711D01*
G37*
%LPD*%
%LPC*%
G36*
X442394Y306911D02*
X442394Y306911D01*
X438502Y308523D01*
X435523Y311502D01*
X433911Y315394D01*
X433911Y319606D01*
X435523Y323498D01*
X438502Y326477D01*
X442394Y328089D01*
X446606Y328089D01*
X450498Y326477D01*
X453477Y323498D01*
X455089Y319606D01*
X455089Y315394D01*
X453477Y311502D01*
X450498Y308523D01*
X446606Y306911D01*
X442394Y306911D01*
G37*
%LPD*%
%LPC*%
G36*
X594794Y484711D02*
X594794Y484711D01*
X590902Y486323D01*
X587923Y489302D01*
X586311Y493194D01*
X586311Y497406D01*
X587923Y501298D01*
X590902Y504277D01*
X594794Y505889D01*
X599006Y505889D01*
X602898Y504277D01*
X605877Y501298D01*
X607489Y497406D01*
X607489Y493194D01*
X605877Y489302D01*
X602898Y486323D01*
X599006Y484711D01*
X594794Y484711D01*
G37*
%LPD*%
%LPC*%
G36*
X442394Y535511D02*
X442394Y535511D01*
X438502Y537123D01*
X435523Y540102D01*
X433911Y543994D01*
X433911Y548206D01*
X435523Y552098D01*
X438502Y555077D01*
X442394Y556689D01*
X446606Y556689D01*
X450498Y555077D01*
X453477Y552098D01*
X455089Y548206D01*
X455089Y543994D01*
X453477Y540102D01*
X450498Y537123D01*
X446606Y535511D01*
X442394Y535511D01*
G37*
%LPD*%
%LPC*%
G36*
X442394Y408511D02*
X442394Y408511D01*
X438502Y410123D01*
X435523Y413102D01*
X433911Y416994D01*
X433911Y421206D01*
X435523Y425098D01*
X438502Y428077D01*
X442394Y429689D01*
X446606Y429689D01*
X450498Y428077D01*
X453477Y425098D01*
X455089Y421206D01*
X455089Y416994D01*
X453477Y413102D01*
X450498Y410123D01*
X446606Y408511D01*
X442394Y408511D01*
G37*
%LPD*%
%LPC*%
G36*
X594794Y510111D02*
X594794Y510111D01*
X590902Y511723D01*
X587923Y514702D01*
X586311Y518594D01*
X586311Y522806D01*
X587923Y526698D01*
X590902Y529677D01*
X594794Y531289D01*
X599006Y531289D01*
X602898Y529677D01*
X605877Y526698D01*
X607489Y522806D01*
X607489Y518594D01*
X605877Y514702D01*
X602898Y511723D01*
X599006Y510111D01*
X594794Y510111D01*
G37*
%LPD*%
%LPC*%
G36*
X442394Y510111D02*
X442394Y510111D01*
X438502Y511723D01*
X435523Y514702D01*
X433911Y518594D01*
X433911Y522806D01*
X435523Y526698D01*
X438502Y529677D01*
X442394Y531289D01*
X446606Y531289D01*
X450498Y529677D01*
X453477Y526698D01*
X455089Y522806D01*
X455089Y518594D01*
X453477Y514702D01*
X450498Y511723D01*
X446606Y510111D01*
X442394Y510111D01*
G37*
%LPD*%
%LPC*%
G36*
X442394Y484711D02*
X442394Y484711D01*
X438502Y486323D01*
X435523Y489302D01*
X433911Y493194D01*
X433911Y497406D01*
X435523Y501298D01*
X438502Y504277D01*
X442394Y505889D01*
X446606Y505889D01*
X450498Y504277D01*
X453477Y501298D01*
X455089Y497406D01*
X455089Y493194D01*
X453477Y489302D01*
X450498Y486323D01*
X446606Y484711D01*
X442394Y484711D01*
G37*
%LPD*%
%LPC*%
G36*
X594794Y459311D02*
X594794Y459311D01*
X590902Y460923D01*
X587923Y463902D01*
X586311Y467794D01*
X586311Y472006D01*
X587923Y475898D01*
X590902Y478877D01*
X594794Y480489D01*
X599006Y480489D01*
X602898Y478877D01*
X605877Y475898D01*
X607489Y472006D01*
X607489Y467794D01*
X605877Y463902D01*
X602898Y460923D01*
X599006Y459311D01*
X594794Y459311D01*
G37*
%LPD*%
%LPC*%
G36*
X442394Y459311D02*
X442394Y459311D01*
X438502Y460923D01*
X435523Y463902D01*
X433911Y467794D01*
X433911Y472006D01*
X435523Y475898D01*
X438502Y478877D01*
X442394Y480489D01*
X446606Y480489D01*
X450498Y478877D01*
X453477Y475898D01*
X455089Y472006D01*
X455089Y467794D01*
X453477Y463902D01*
X450498Y460923D01*
X446606Y459311D01*
X442394Y459311D01*
G37*
%LPD*%
%LPC*%
G36*
X594794Y433911D02*
X594794Y433911D01*
X590902Y435523D01*
X587923Y438502D01*
X586311Y442394D01*
X586311Y446606D01*
X587923Y450498D01*
X590902Y453477D01*
X594794Y455089D01*
X599006Y455089D01*
X602898Y453477D01*
X605877Y450498D01*
X607489Y446606D01*
X607489Y442394D01*
X605877Y438502D01*
X602898Y435523D01*
X599006Y433911D01*
X594794Y433911D01*
G37*
%LPD*%
%LPC*%
G36*
X442394Y433911D02*
X442394Y433911D01*
X438502Y435523D01*
X435523Y438502D01*
X433911Y442394D01*
X433911Y446606D01*
X435523Y450498D01*
X438502Y453477D01*
X442394Y455089D01*
X446606Y455089D01*
X450498Y453477D01*
X453477Y450498D01*
X455089Y446606D01*
X455089Y442394D01*
X453477Y438502D01*
X450498Y435523D01*
X446606Y433911D01*
X442394Y433911D01*
G37*
%LPD*%
%LPC*%
G36*
X594794Y408511D02*
X594794Y408511D01*
X590902Y410123D01*
X587923Y413102D01*
X586311Y416994D01*
X586311Y421206D01*
X587923Y425098D01*
X590902Y428077D01*
X594794Y429689D01*
X599006Y429689D01*
X602898Y428077D01*
X605877Y425098D01*
X607489Y421206D01*
X607489Y416994D01*
X605877Y413102D01*
X602898Y410123D01*
X599006Y408511D01*
X594794Y408511D01*
G37*
%LPD*%
%LPC*%
G36*
X829309Y650239D02*
X829309Y650239D01*
X829309Y660157D01*
X829744Y660088D01*
X831645Y659470D01*
X833427Y658563D01*
X835044Y657388D01*
X836458Y655974D01*
X837633Y654357D01*
X838540Y652575D01*
X839158Y650674D01*
X839227Y650239D01*
X829309Y650239D01*
G37*
%LPD*%
%LPC*%
G36*
X829309Y645161D02*
X829309Y645161D01*
X839227Y645161D01*
X839158Y644726D01*
X838540Y642825D01*
X837633Y641043D01*
X836458Y639426D01*
X835044Y638012D01*
X833427Y636837D01*
X831645Y635930D01*
X829744Y635312D01*
X829309Y635243D01*
X829309Y645161D01*
G37*
%LPD*%
%LPC*%
G36*
X865849Y713449D02*
X865849Y713449D01*
X865849Y722931D01*
X866396Y722845D01*
X868183Y722264D01*
X869857Y721411D01*
X871378Y720306D01*
X872706Y718978D01*
X873811Y717457D01*
X874664Y715783D01*
X875245Y713996D01*
X875331Y713449D01*
X865849Y713449D01*
G37*
%LPD*%
%LPC*%
G36*
X851869Y713449D02*
X851869Y713449D01*
X851955Y713996D01*
X852536Y715783D01*
X853389Y717457D01*
X854494Y718978D01*
X855822Y720306D01*
X857343Y721411D01*
X859017Y722264D01*
X860804Y722845D01*
X861351Y722931D01*
X861351Y713449D01*
X851869Y713449D01*
G37*
%LPD*%
%LPC*%
G36*
X865849Y708951D02*
X865849Y708951D01*
X875331Y708951D01*
X875245Y708404D01*
X874664Y706617D01*
X873811Y704943D01*
X872706Y703422D01*
X871378Y702094D01*
X869857Y700989D01*
X868183Y700136D01*
X866396Y699555D01*
X865849Y699469D01*
X865849Y708951D01*
G37*
%LPD*%
%LPC*%
G36*
X860804Y699555D02*
X860804Y699555D01*
X859017Y700136D01*
X857343Y700989D01*
X855822Y702094D01*
X854494Y703422D01*
X853389Y704943D01*
X852536Y706617D01*
X851955Y708404D01*
X851869Y708951D01*
X861351Y708951D01*
X861351Y699469D01*
X860804Y699555D01*
G37*
%LPD*%
%LPC*%
G36*
X393439Y681039D02*
X393439Y681039D01*
X393439Y690542D01*
X393778Y690488D01*
X395618Y689890D01*
X397342Y689012D01*
X398907Y687875D01*
X400275Y686507D01*
X401412Y684942D01*
X402290Y683218D01*
X402888Y681378D01*
X402942Y681039D01*
X393439Y681039D01*
G37*
%LPD*%
%LPC*%
G36*
X345439Y653039D02*
X345439Y653039D01*
X345439Y662542D01*
X345778Y662488D01*
X347618Y661890D01*
X349342Y661012D01*
X350907Y659875D01*
X352275Y658507D01*
X353412Y656942D01*
X354290Y655218D01*
X354888Y653378D01*
X354942Y653039D01*
X345439Y653039D01*
G37*
%LPD*%
%LPC*%
G36*
X378858Y681039D02*
X378858Y681039D01*
X378912Y681378D01*
X379510Y683218D01*
X380388Y684942D01*
X381525Y686507D01*
X382893Y687875D01*
X384458Y689012D01*
X386182Y689890D01*
X388022Y690488D01*
X388361Y690542D01*
X388361Y681039D01*
X378858Y681039D01*
G37*
%LPD*%
%LPC*%
G36*
X393439Y675961D02*
X393439Y675961D01*
X402942Y675961D01*
X402888Y675622D01*
X402290Y673782D01*
X401412Y672058D01*
X400275Y670493D01*
X398907Y669125D01*
X397342Y667988D01*
X395618Y667110D01*
X393778Y666512D01*
X393439Y666458D01*
X393439Y675961D01*
G37*
%LPD*%
%LPC*%
G36*
X330858Y653039D02*
X330858Y653039D01*
X330912Y653378D01*
X331510Y655218D01*
X332388Y656942D01*
X333525Y658507D01*
X334893Y659875D01*
X336458Y661012D01*
X338182Y661890D01*
X340022Y662488D01*
X340361Y662542D01*
X340361Y653039D01*
X330858Y653039D01*
G37*
%LPD*%
%LPC*%
G36*
X345439Y647961D02*
X345439Y647961D01*
X354942Y647961D01*
X354888Y647622D01*
X354290Y645782D01*
X353412Y644058D01*
X352275Y642493D01*
X350907Y641125D01*
X349342Y639988D01*
X347618Y639110D01*
X345778Y638512D01*
X345439Y638458D01*
X345439Y647961D01*
G37*
%LPD*%
%LPC*%
G36*
X388022Y666512D02*
X388022Y666512D01*
X386182Y667110D01*
X384458Y667988D01*
X382893Y669125D01*
X381525Y670493D01*
X380388Y672058D01*
X379510Y673782D01*
X378912Y675622D01*
X378858Y675961D01*
X388361Y675961D01*
X388361Y666458D01*
X388022Y666512D01*
G37*
%LPD*%
%LPC*%
G36*
X340022Y638512D02*
X340022Y638512D01*
X338182Y639110D01*
X336458Y639988D01*
X334893Y641125D01*
X333525Y642493D01*
X332388Y644058D01*
X331510Y645782D01*
X330912Y647622D01*
X330858Y647961D01*
X340361Y647961D01*
X340361Y638458D01*
X340022Y638512D01*
G37*
%LPD*%
%LPC*%
G36*
X599399Y548599D02*
X599399Y548599D01*
X599399Y555887D01*
X600770Y555442D01*
X602183Y554722D01*
X603467Y553789D01*
X604589Y552667D01*
X605522Y551383D01*
X606242Y549970D01*
X606687Y548599D01*
X599399Y548599D01*
G37*
%LPD*%
%LPC*%
G36*
X599399Y543601D02*
X599399Y543601D01*
X606687Y543601D01*
X606242Y542230D01*
X605522Y540817D01*
X604589Y539533D01*
X603467Y538411D01*
X602183Y537478D01*
X600770Y536758D01*
X599399Y536313D01*
X599399Y543601D01*
G37*
%LPD*%
%LPC*%
G36*
X587113Y548599D02*
X587113Y548599D01*
X587558Y549970D01*
X588278Y551383D01*
X589211Y552667D01*
X590333Y553789D01*
X591617Y554722D01*
X593030Y555442D01*
X594401Y555887D01*
X594401Y548599D01*
X587113Y548599D01*
G37*
%LPD*%
%LPC*%
G36*
X593030Y536758D02*
X593030Y536758D01*
X591617Y537478D01*
X590333Y538411D01*
X589211Y539533D01*
X588278Y540817D01*
X587558Y542230D01*
X587113Y543601D01*
X594401Y543601D01*
X594401Y536313D01*
X593030Y536758D01*
G37*
%LPD*%
%LPC*%
G36*
X390899Y678499D02*
X390899Y678499D01*
X390899Y678501D01*
X390901Y678501D01*
X390901Y678499D01*
X390899Y678499D01*
G37*
%LPD*%
%LPC*%
G36*
X342899Y650499D02*
X342899Y650499D01*
X342899Y650501D01*
X342901Y650501D01*
X342901Y650499D01*
X342899Y650499D01*
G37*
%LPD*%
D10*
X798830Y647700D03*
X826770Y647700D03*
D11*
X723900Y704596D02*
X723900Y717804D01*
X698500Y717804D02*
X698500Y704596D01*
D12*
X342900Y708500D03*
X342900Y650500D03*
X390900Y678500D03*
D13*
X444500Y571500D03*
D14*
X444500Y546100D03*
X444500Y520700D03*
X444500Y495300D03*
X444500Y469900D03*
X444500Y444500D03*
X444500Y419100D03*
X444500Y393700D03*
X444500Y368300D03*
X444500Y342900D03*
X444500Y317500D03*
X444500Y292100D03*
X596900Y571500D03*
X596900Y546100D03*
X596900Y520700D03*
X596900Y495300D03*
X596900Y469900D03*
X596900Y444500D03*
X596900Y393700D03*
X596900Y368300D03*
X596900Y317500D03*
X596900Y292100D03*
X596900Y342900D03*
X596900Y419100D03*
X444500Y266700D03*
X444500Y241300D03*
X444500Y215900D03*
X596900Y266700D03*
X596900Y241300D03*
X596900Y215900D03*
D15*
X863600Y711200D03*
X787400Y711200D03*
D16*
X520700Y698500D03*
X567700Y698500D03*
X614700Y698500D03*
D10*
X876300Y520700D03*
X876300Y495300D03*
X876300Y469900D03*
X876300Y444500D03*
X698500Y444500D03*
X698500Y419100D03*
X698500Y469900D03*
X698500Y495300D03*
X698500Y520700D03*
X698500Y546100D03*
D17*
X665500Y647700D02*
X798830Y647700D01*
X665500Y647700D02*
X614700Y698500D01*
X826770Y647700D02*
X826770Y623570D01*
X698500Y495300D01*
X647700Y393700D02*
X596900Y393700D01*
X647700Y393700D02*
X647700Y444500D01*
X673100Y469900D01*
X698500Y469900D01*
M02*
