G04 EAGLE Gerber RS-274X export*
G75*
%MOMM*%
%FSLAX34Y34*%
%LPD*%
%IN*%
%IPPOS*%
%AMOC8*
5,1,8,0,0,1.08239X$1,22.5*%
G01*
%ADD10C,0.254000*%


D10*
X292100Y304800D02*
X444500Y152400D01*
X609600Y152400D01*
X673100Y215900D01*
X825500Y215900D01*
X914400Y304800D01*
X914400Y749300D01*
X292100Y749300D01*
X292100Y304800D01*
X444906Y198755D02*
X445713Y198676D01*
X446508Y198517D01*
X447284Y198282D01*
X448034Y197971D01*
X448749Y197589D01*
X449423Y197138D01*
X450050Y196624D01*
X450624Y196050D01*
X451138Y195423D01*
X451589Y194749D01*
X451971Y194034D01*
X452282Y193284D01*
X452517Y192508D01*
X452676Y191713D01*
X452755Y190906D01*
X452755Y190094D01*
X452676Y189287D01*
X452517Y188492D01*
X452282Y187716D01*
X451971Y186966D01*
X451589Y186251D01*
X451138Y185577D01*
X450624Y184950D01*
X450050Y184376D01*
X449423Y183862D01*
X448749Y183411D01*
X448034Y183029D01*
X447284Y182718D01*
X446508Y182483D01*
X445713Y182325D01*
X444906Y182245D01*
X444094Y182245D01*
X443287Y182325D01*
X442492Y182483D01*
X441716Y182718D01*
X440966Y183029D01*
X440251Y183411D01*
X439577Y183862D01*
X438950Y184376D01*
X438376Y184950D01*
X437862Y185577D01*
X437411Y186251D01*
X437029Y186966D01*
X436718Y187716D01*
X436483Y188492D01*
X436325Y189287D01*
X436245Y190094D01*
X436245Y190906D01*
X436325Y191713D01*
X436483Y192508D01*
X436718Y193284D01*
X437029Y194034D01*
X437411Y194749D01*
X437862Y195423D01*
X438376Y196050D01*
X438950Y196624D01*
X439577Y197138D01*
X440251Y197589D01*
X440966Y197971D01*
X441716Y198282D01*
X442492Y198517D01*
X443287Y198676D01*
X444094Y198755D01*
X444906Y198755D01*
X597306Y198755D02*
X598113Y198676D01*
X598908Y198517D01*
X599684Y198282D01*
X600434Y197971D01*
X601149Y197589D01*
X601823Y197138D01*
X602450Y196624D01*
X603024Y196050D01*
X603538Y195423D01*
X603989Y194749D01*
X604371Y194034D01*
X604682Y193284D01*
X604917Y192508D01*
X605076Y191713D01*
X605155Y190906D01*
X605155Y190094D01*
X605076Y189287D01*
X604917Y188492D01*
X604682Y187716D01*
X604371Y186966D01*
X603989Y186251D01*
X603538Y185577D01*
X603024Y184950D01*
X602450Y184376D01*
X601823Y183862D01*
X601149Y183411D01*
X600434Y183029D01*
X599684Y182718D01*
X598908Y182483D01*
X598113Y182325D01*
X597306Y182245D01*
X596494Y182245D01*
X595687Y182325D01*
X594892Y182483D01*
X594116Y182718D01*
X593366Y183029D01*
X592651Y183411D01*
X591977Y183862D01*
X591350Y184376D01*
X590776Y184950D01*
X590262Y185577D01*
X589811Y186251D01*
X589429Y186966D01*
X589118Y187716D01*
X588883Y188492D01*
X588725Y189287D01*
X588645Y190094D01*
X588645Y190906D01*
X588725Y191713D01*
X588883Y192508D01*
X589118Y193284D01*
X589429Y194034D01*
X589811Y194749D01*
X590262Y195423D01*
X590776Y196050D01*
X591350Y196624D01*
X591977Y197138D01*
X592651Y197589D01*
X593366Y197971D01*
X594116Y198282D01*
X594892Y198517D01*
X595687Y198676D01*
X596494Y198755D01*
X597306Y198755D01*
X597306Y605155D02*
X598113Y605076D01*
X598908Y604917D01*
X599684Y604682D01*
X600434Y604371D01*
X601149Y603989D01*
X601823Y603538D01*
X602450Y603024D01*
X603024Y602450D01*
X603538Y601823D01*
X603989Y601149D01*
X604371Y600434D01*
X604682Y599684D01*
X604917Y598908D01*
X605076Y598113D01*
X605155Y597306D01*
X605155Y596494D01*
X605076Y595687D01*
X604917Y594892D01*
X604682Y594116D01*
X604371Y593366D01*
X603989Y592651D01*
X603538Y591977D01*
X603024Y591350D01*
X602450Y590776D01*
X601823Y590262D01*
X601149Y589811D01*
X600434Y589429D01*
X599684Y589118D01*
X598908Y588883D01*
X598113Y588725D01*
X597306Y588645D01*
X596494Y588645D01*
X595687Y588725D01*
X594892Y588883D01*
X594116Y589118D01*
X593366Y589429D01*
X592651Y589811D01*
X591977Y590262D01*
X591350Y590776D01*
X590776Y591350D01*
X590262Y591977D01*
X589811Y592651D01*
X589429Y593366D01*
X589118Y594116D01*
X588883Y594892D01*
X588725Y595687D01*
X588645Y596494D01*
X588645Y597306D01*
X588725Y598113D01*
X588883Y598908D01*
X589118Y599684D01*
X589429Y600434D01*
X589811Y601149D01*
X590262Y601823D01*
X590776Y602450D01*
X591350Y603024D01*
X591977Y603538D01*
X592651Y603989D01*
X593366Y604371D01*
X594116Y604682D01*
X594892Y604917D01*
X595687Y605076D01*
X596494Y605155D01*
X597306Y605155D01*
X444906Y605155D02*
X445713Y605076D01*
X446508Y604917D01*
X447284Y604682D01*
X448034Y604371D01*
X448749Y603989D01*
X449423Y603538D01*
X450050Y603024D01*
X450624Y602450D01*
X451138Y601823D01*
X451589Y601149D01*
X451971Y600434D01*
X452282Y599684D01*
X452517Y598908D01*
X452676Y598113D01*
X452755Y597306D01*
X452755Y596494D01*
X452676Y595687D01*
X452517Y594892D01*
X452282Y594116D01*
X451971Y593366D01*
X451589Y592651D01*
X451138Y591977D01*
X450624Y591350D01*
X450050Y590776D01*
X449423Y590262D01*
X448749Y589811D01*
X448034Y589429D01*
X447284Y589118D01*
X446508Y588883D01*
X445713Y588725D01*
X444906Y588645D01*
X444094Y588645D01*
X443287Y588725D01*
X442492Y588883D01*
X441716Y589118D01*
X440966Y589429D01*
X440251Y589811D01*
X439577Y590262D01*
X438950Y590776D01*
X438376Y591350D01*
X437862Y591977D01*
X437411Y592651D01*
X437029Y593366D01*
X436718Y594116D01*
X436483Y594892D01*
X436325Y595687D01*
X436245Y596494D01*
X436245Y597306D01*
X436325Y598113D01*
X436483Y598908D01*
X436718Y599684D01*
X437029Y600434D01*
X437411Y601149D01*
X437862Y601823D01*
X438376Y602450D01*
X438950Y603024D01*
X439577Y603538D01*
X440251Y603989D01*
X440966Y604371D01*
X441716Y604682D01*
X442492Y604917D01*
X443287Y605076D01*
X444094Y605155D01*
X444906Y605155D01*
M02*
