G04 EAGLE Gerber RS-274X export*
G75*
%MOMM*%
%FSLAX34Y34*%
%LPD*%
%INSilkscreen Top*%
%IPPOS*%
%AMOC8*
5,1,8,0,0,1.08239X$1,22.5*%
G01*
%ADD10C,0.304800*%
%ADD11C,0.254000*%
%ADD12C,0.152400*%
%ADD13C,0.127000*%
%ADD14C,0.203200*%
%ADD15C,0.076200*%
%ADD16C,0.101600*%
%ADD17C,0.100000*%
%ADD18C,0.200000*%
%ADD19C,0.200000*%
%ADD20C,0.050800*%


D10*
X360003Y396155D02*
X360003Y401997D01*
X379476Y401997D01*
X379476Y390313D01*
X379474Y390125D01*
X379467Y389937D01*
X379456Y389749D01*
X379440Y389561D01*
X379419Y389374D01*
X379394Y389188D01*
X379365Y389002D01*
X379331Y388817D01*
X379292Y388632D01*
X379250Y388449D01*
X379202Y388267D01*
X379151Y388086D01*
X379095Y387906D01*
X379034Y387728D01*
X378970Y387551D01*
X378901Y387376D01*
X378828Y387202D01*
X378751Y387031D01*
X378669Y386861D01*
X378584Y386693D01*
X378494Y386528D01*
X378401Y386364D01*
X378304Y386203D01*
X378202Y386045D01*
X378097Y385888D01*
X377988Y385735D01*
X377876Y385584D01*
X377760Y385436D01*
X377640Y385290D01*
X377517Y385148D01*
X377391Y385009D01*
X377261Y384872D01*
X377128Y384739D01*
X376991Y384609D01*
X376852Y384483D01*
X376710Y384360D01*
X376564Y384240D01*
X376416Y384124D01*
X376265Y384012D01*
X376112Y383903D01*
X375955Y383798D01*
X375797Y383696D01*
X375636Y383599D01*
X375472Y383506D01*
X375307Y383416D01*
X375139Y383331D01*
X374969Y383249D01*
X374798Y383172D01*
X374624Y383099D01*
X374449Y383030D01*
X374272Y382966D01*
X374094Y382905D01*
X373914Y382849D01*
X373733Y382798D01*
X373551Y382750D01*
X373368Y382708D01*
X373183Y382669D01*
X372998Y382635D01*
X372812Y382606D01*
X372626Y382581D01*
X372439Y382560D01*
X372251Y382544D01*
X372063Y382533D01*
X371875Y382526D01*
X371687Y382524D01*
X352213Y382524D01*
X352022Y382526D01*
X351831Y382533D01*
X351640Y382545D01*
X351450Y382562D01*
X351260Y382583D01*
X351070Y382608D01*
X350881Y382639D01*
X350693Y382674D01*
X350506Y382713D01*
X350320Y382757D01*
X350136Y382806D01*
X349952Y382859D01*
X349770Y382917D01*
X349589Y382979D01*
X349410Y383046D01*
X349232Y383117D01*
X349057Y383192D01*
X348883Y383272D01*
X348711Y383356D01*
X348541Y383444D01*
X348374Y383536D01*
X348209Y383632D01*
X348046Y383732D01*
X347886Y383837D01*
X347728Y383945D01*
X347573Y384057D01*
X347421Y384173D01*
X347272Y384292D01*
X347125Y384415D01*
X346982Y384542D01*
X346842Y384672D01*
X346705Y384805D01*
X346572Y384942D01*
X346442Y385082D01*
X346315Y385225D01*
X346192Y385372D01*
X346073Y385521D01*
X345957Y385673D01*
X345845Y385828D01*
X345737Y385986D01*
X345632Y386146D01*
X345532Y386309D01*
X345436Y386474D01*
X345344Y386641D01*
X345256Y386811D01*
X345172Y386983D01*
X345092Y387157D01*
X345017Y387332D01*
X344946Y387510D01*
X344879Y387689D01*
X344817Y387870D01*
X344759Y388052D01*
X344706Y388236D01*
X344657Y388420D01*
X344613Y388606D01*
X344574Y388793D01*
X344539Y388981D01*
X344508Y389170D01*
X344483Y389359D01*
X344462Y389549D01*
X344445Y389740D01*
X344433Y389931D01*
X344426Y390122D01*
X344424Y390313D01*
X344424Y401997D01*
X344424Y412962D02*
X379476Y412962D01*
X363897Y424646D02*
X344424Y412962D01*
X363897Y424646D02*
X344424Y436330D01*
X379476Y436330D01*
X379476Y454173D02*
X344424Y454173D01*
X344424Y444437D02*
X344424Y463910D01*
D11*
X330200Y508000D02*
X330200Y368300D01*
X342900Y355600D01*
X381000Y355600D01*
X393700Y368300D01*
X393700Y508000D01*
X381000Y520700D01*
X342900Y520700D01*
X330200Y508000D01*
X746302Y292100D02*
X746311Y292797D01*
X746336Y293493D01*
X746379Y294189D01*
X746439Y294883D01*
X746516Y295576D01*
X746609Y296267D01*
X746720Y296955D01*
X746848Y297640D01*
X746992Y298322D01*
X747153Y299000D01*
X747331Y299674D01*
X747525Y300344D01*
X747735Y301008D01*
X747962Y301667D01*
X748205Y302320D01*
X748464Y302967D01*
X748738Y303608D01*
X749029Y304242D01*
X749334Y304868D01*
X749655Y305487D01*
X749991Y306097D01*
X750342Y306699D01*
X750708Y307293D01*
X751088Y307877D01*
X751482Y308452D01*
X751891Y309017D01*
X752313Y309571D01*
X752748Y310116D01*
X753197Y310649D01*
X753658Y311171D01*
X754133Y311682D01*
X754620Y312180D01*
X755118Y312667D01*
X755629Y313142D01*
X756151Y313603D01*
X756684Y314052D01*
X757229Y314487D01*
X757783Y314909D01*
X758348Y315318D01*
X758923Y315712D01*
X759507Y316092D01*
X760101Y316458D01*
X760703Y316809D01*
X761313Y317145D01*
X761932Y317466D01*
X762558Y317771D01*
X763192Y318062D01*
X763833Y318336D01*
X764480Y318595D01*
X765133Y318838D01*
X765792Y319065D01*
X766456Y319275D01*
X767126Y319469D01*
X767800Y319647D01*
X768478Y319808D01*
X769160Y319952D01*
X769845Y320080D01*
X770533Y320191D01*
X771224Y320284D01*
X771917Y320361D01*
X772611Y320421D01*
X773307Y320464D01*
X774003Y320489D01*
X774700Y320498D01*
X775397Y320489D01*
X776093Y320464D01*
X776789Y320421D01*
X777483Y320361D01*
X778176Y320284D01*
X778867Y320191D01*
X779555Y320080D01*
X780240Y319952D01*
X780922Y319808D01*
X781600Y319647D01*
X782274Y319469D01*
X782944Y319275D01*
X783608Y319065D01*
X784267Y318838D01*
X784920Y318595D01*
X785567Y318336D01*
X786208Y318062D01*
X786842Y317771D01*
X787468Y317466D01*
X788087Y317145D01*
X788697Y316809D01*
X789299Y316458D01*
X789893Y316092D01*
X790477Y315712D01*
X791052Y315318D01*
X791617Y314909D01*
X792171Y314487D01*
X792716Y314052D01*
X793249Y313603D01*
X793771Y313142D01*
X794282Y312667D01*
X794780Y312180D01*
X795267Y311682D01*
X795742Y311171D01*
X796203Y310649D01*
X796652Y310116D01*
X797087Y309571D01*
X797509Y309017D01*
X797918Y308452D01*
X798312Y307877D01*
X798692Y307293D01*
X799058Y306699D01*
X799409Y306097D01*
X799745Y305487D01*
X800066Y304868D01*
X800371Y304242D01*
X800662Y303608D01*
X800936Y302967D01*
X801195Y302320D01*
X801438Y301667D01*
X801665Y301008D01*
X801875Y300344D01*
X802069Y299674D01*
X802247Y299000D01*
X802408Y298322D01*
X802552Y297640D01*
X802680Y296955D01*
X802791Y296267D01*
X802884Y295576D01*
X802961Y294883D01*
X803021Y294189D01*
X803064Y293493D01*
X803089Y292797D01*
X803098Y292100D01*
X803089Y291403D01*
X803064Y290707D01*
X803021Y290011D01*
X802961Y289317D01*
X802884Y288624D01*
X802791Y287933D01*
X802680Y287245D01*
X802552Y286560D01*
X802408Y285878D01*
X802247Y285200D01*
X802069Y284526D01*
X801875Y283856D01*
X801665Y283192D01*
X801438Y282533D01*
X801195Y281880D01*
X800936Y281233D01*
X800662Y280592D01*
X800371Y279958D01*
X800066Y279332D01*
X799745Y278713D01*
X799409Y278103D01*
X799058Y277501D01*
X798692Y276907D01*
X798312Y276323D01*
X797918Y275748D01*
X797509Y275183D01*
X797087Y274629D01*
X796652Y274084D01*
X796203Y273551D01*
X795742Y273029D01*
X795267Y272518D01*
X794780Y272020D01*
X794282Y271533D01*
X793771Y271058D01*
X793249Y270597D01*
X792716Y270148D01*
X792171Y269713D01*
X791617Y269291D01*
X791052Y268882D01*
X790477Y268488D01*
X789893Y268108D01*
X789299Y267742D01*
X788697Y267391D01*
X788087Y267055D01*
X787468Y266734D01*
X786842Y266429D01*
X786208Y266138D01*
X785567Y265864D01*
X784920Y265605D01*
X784267Y265362D01*
X783608Y265135D01*
X782944Y264925D01*
X782274Y264731D01*
X781600Y264553D01*
X780922Y264392D01*
X780240Y264248D01*
X779555Y264120D01*
X778867Y264009D01*
X778176Y263916D01*
X777483Y263839D01*
X776789Y263779D01*
X776093Y263736D01*
X775397Y263711D01*
X774700Y263702D01*
X774003Y263711D01*
X773307Y263736D01*
X772611Y263779D01*
X771917Y263839D01*
X771224Y263916D01*
X770533Y264009D01*
X769845Y264120D01*
X769160Y264248D01*
X768478Y264392D01*
X767800Y264553D01*
X767126Y264731D01*
X766456Y264925D01*
X765792Y265135D01*
X765133Y265362D01*
X764480Y265605D01*
X763833Y265864D01*
X763192Y266138D01*
X762558Y266429D01*
X761932Y266734D01*
X761313Y267055D01*
X760703Y267391D01*
X760101Y267742D01*
X759507Y268108D01*
X758923Y268488D01*
X758348Y268882D01*
X757783Y269291D01*
X757229Y269713D01*
X756684Y270148D01*
X756151Y270597D01*
X755629Y271058D01*
X755118Y271533D01*
X754620Y272020D01*
X754133Y272518D01*
X753658Y273029D01*
X753197Y273551D01*
X752748Y274084D01*
X752313Y274629D01*
X751891Y275183D01*
X751482Y275748D01*
X751088Y276323D01*
X750708Y276907D01*
X750342Y277501D01*
X749991Y278103D01*
X749655Y278713D01*
X749334Y279332D01*
X749029Y279958D01*
X748738Y280592D01*
X748464Y281233D01*
X748205Y281880D01*
X747962Y282533D01*
X747735Y283192D01*
X747525Y283856D01*
X747331Y284526D01*
X747153Y285200D01*
X746992Y285878D01*
X746848Y286560D01*
X746720Y287245D01*
X746609Y287933D01*
X746516Y288624D01*
X746439Y289317D01*
X746379Y290011D01*
X746336Y290707D01*
X746311Y291403D01*
X746302Y292100D01*
X762000Y266700D02*
X761693Y266386D01*
X761395Y266065D01*
X761104Y265737D01*
X760822Y265401D01*
X760548Y265059D01*
X760282Y264710D01*
X760025Y264355D01*
X759776Y263994D01*
X759537Y263626D01*
X759306Y263253D01*
X759085Y262875D01*
X758873Y262491D01*
X758670Y262102D01*
X758477Y261708D01*
X758294Y261310D01*
X758120Y260907D01*
X757957Y260500D01*
X757803Y260090D01*
X757659Y259675D01*
X757526Y259258D01*
X757402Y258837D01*
X757290Y258413D01*
X757187Y257987D01*
X757095Y257558D01*
X757013Y257127D01*
X756942Y256694D01*
X756882Y256260D01*
X756832Y255824D01*
X756793Y255387D01*
X756764Y254950D01*
X756746Y254512D01*
X756739Y254073D01*
X756743Y253635D01*
X756757Y253196D01*
X756782Y252758D01*
X756818Y252321D01*
X756864Y251885D01*
X756921Y251450D01*
X756988Y251017D01*
X757067Y250586D01*
X757155Y250156D01*
X757254Y249729D01*
X757364Y249304D01*
X757483Y248882D01*
X757614Y248464D01*
X757754Y248048D01*
X757904Y247636D01*
X758065Y247228D01*
X758235Y246824D01*
X758415Y246424D01*
X758605Y246029D01*
X758804Y245638D01*
X759013Y245253D01*
X759231Y244872D01*
X759459Y244497D01*
X759695Y244128D01*
X759941Y243765D01*
X760195Y243407D01*
X760458Y243056D01*
X760729Y242712D01*
X761009Y242374D01*
X761297Y242043D01*
X761593Y241720D01*
X761897Y241403D01*
X762208Y241095D01*
X762527Y240793D01*
X762853Y240500D01*
X763186Y240215D01*
X763526Y239938D01*
X763873Y239669D01*
X764226Y239409D01*
X764585Y239158D01*
X764950Y238915D01*
X765322Y238682D01*
X765698Y238458D01*
X766081Y238242D01*
X766468Y238037D01*
X766860Y237840D01*
X767257Y237654D01*
X767658Y237477D01*
X768064Y237310D01*
X768473Y237153D01*
X768886Y237006D01*
X769303Y236869D01*
X769723Y236742D01*
X770146Y236626D01*
X770571Y236520D01*
X770999Y236424D01*
X771429Y236339D01*
X771861Y236265D01*
X772295Y236201D01*
X772731Y236147D01*
X773167Y236105D01*
X773604Y236072D01*
X774042Y236051D01*
X774481Y236040D01*
X774919Y236040D01*
X775358Y236051D01*
X775796Y236072D01*
X776233Y236105D01*
X776669Y236147D01*
X777105Y236201D01*
X777539Y236265D01*
X777971Y236339D01*
X778401Y236424D01*
X778829Y236520D01*
X779254Y236626D01*
X779677Y236742D01*
X780097Y236869D01*
X780514Y237006D01*
X780927Y237153D01*
X781336Y237310D01*
X781742Y237477D01*
X782143Y237654D01*
X782540Y237840D01*
X782932Y238037D01*
X783319Y238242D01*
X783702Y238458D01*
X784078Y238682D01*
X784450Y238915D01*
X784815Y239158D01*
X785174Y239409D01*
X785527Y239669D01*
X785874Y239938D01*
X786214Y240215D01*
X786547Y240500D01*
X786873Y240793D01*
X787192Y241095D01*
X787503Y241403D01*
X787807Y241720D01*
X788103Y242043D01*
X788391Y242374D01*
X788671Y242712D01*
X788942Y243056D01*
X789205Y243407D01*
X789459Y243765D01*
X789705Y244128D01*
X789941Y244497D01*
X790169Y244872D01*
X790387Y245253D01*
X790596Y245638D01*
X790795Y246029D01*
X790985Y246424D01*
X791165Y246824D01*
X791335Y247228D01*
X791496Y247636D01*
X791646Y248048D01*
X791786Y248464D01*
X791917Y248882D01*
X792036Y249304D01*
X792146Y249729D01*
X792245Y250156D01*
X792333Y250586D01*
X792412Y251017D01*
X792479Y251450D01*
X792536Y251885D01*
X792582Y252321D01*
X792618Y252758D01*
X792643Y253196D01*
X792657Y253635D01*
X792661Y254073D01*
X792654Y254512D01*
X792636Y254950D01*
X792607Y255387D01*
X792568Y255824D01*
X792518Y256260D01*
X792458Y256694D01*
X792387Y257127D01*
X792305Y257558D01*
X792213Y257987D01*
X792110Y258413D01*
X791998Y258837D01*
X791874Y259258D01*
X791741Y259675D01*
X791597Y260090D01*
X791443Y260500D01*
X791280Y260907D01*
X791106Y261310D01*
X790923Y261708D01*
X790730Y262102D01*
X790527Y262491D01*
X790315Y262875D01*
X790094Y263253D01*
X789863Y263626D01*
X789624Y263994D01*
X789375Y264355D01*
X789118Y264710D01*
X788852Y265059D01*
X788578Y265401D01*
X788296Y265737D01*
X788005Y266065D01*
X787707Y266386D01*
X787400Y266700D01*
X812800Y292100D02*
X736600Y292100D01*
X749300Y304800D02*
X800100Y304800D01*
D12*
X756431Y281940D02*
X756433Y282108D01*
X756439Y282276D01*
X756450Y282443D01*
X756464Y282610D01*
X756482Y282777D01*
X756505Y282943D01*
X756532Y283109D01*
X756562Y283274D01*
X756597Y283438D01*
X756636Y283602D01*
X756679Y283764D01*
X756725Y283925D01*
X756776Y284085D01*
X756831Y284244D01*
X756889Y284401D01*
X756952Y284557D01*
X757018Y284711D01*
X757088Y284864D01*
X757161Y285015D01*
X757239Y285164D01*
X757319Y285311D01*
X757404Y285456D01*
X757492Y285599D01*
X757584Y285740D01*
X757679Y285878D01*
X757777Y286014D01*
X757878Y286148D01*
X757983Y286279D01*
X758091Y286407D01*
X758203Y286533D01*
X758317Y286656D01*
X758434Y286776D01*
X758554Y286893D01*
X758677Y287007D01*
X758803Y287119D01*
X758931Y287227D01*
X759062Y287332D01*
X759196Y287433D01*
X759332Y287531D01*
X759470Y287626D01*
X759611Y287718D01*
X759754Y287806D01*
X759899Y287891D01*
X760046Y287971D01*
X760195Y288049D01*
X760346Y288122D01*
X760499Y288192D01*
X760653Y288258D01*
X760809Y288321D01*
X760966Y288379D01*
X761125Y288434D01*
X761285Y288485D01*
X761446Y288531D01*
X761608Y288574D01*
X761772Y288613D01*
X761936Y288648D01*
X762101Y288678D01*
X762267Y288705D01*
X762433Y288728D01*
X762600Y288746D01*
X762767Y288760D01*
X762934Y288771D01*
X763102Y288777D01*
X763270Y288779D01*
X763438Y288777D01*
X763606Y288771D01*
X763773Y288760D01*
X763940Y288746D01*
X764107Y288728D01*
X764273Y288705D01*
X764439Y288678D01*
X764604Y288648D01*
X764768Y288613D01*
X764932Y288574D01*
X765094Y288531D01*
X765255Y288485D01*
X765415Y288434D01*
X765574Y288379D01*
X765731Y288321D01*
X765887Y288258D01*
X766041Y288192D01*
X766194Y288122D01*
X766345Y288049D01*
X766494Y287971D01*
X766641Y287891D01*
X766786Y287806D01*
X766929Y287718D01*
X767070Y287626D01*
X767208Y287531D01*
X767344Y287433D01*
X767478Y287332D01*
X767609Y287227D01*
X767737Y287119D01*
X767863Y287007D01*
X767986Y286893D01*
X768106Y286776D01*
X768223Y286656D01*
X768337Y286533D01*
X768449Y286407D01*
X768557Y286279D01*
X768662Y286148D01*
X768763Y286014D01*
X768861Y285878D01*
X768956Y285740D01*
X769048Y285599D01*
X769136Y285456D01*
X769221Y285311D01*
X769301Y285164D01*
X769379Y285015D01*
X769452Y284864D01*
X769522Y284711D01*
X769588Y284557D01*
X769651Y284401D01*
X769709Y284244D01*
X769764Y284085D01*
X769815Y283925D01*
X769861Y283764D01*
X769904Y283602D01*
X769943Y283438D01*
X769978Y283274D01*
X770008Y283109D01*
X770035Y282943D01*
X770058Y282777D01*
X770076Y282610D01*
X770090Y282443D01*
X770101Y282276D01*
X770107Y282108D01*
X770109Y281940D01*
X770107Y281772D01*
X770101Y281604D01*
X770090Y281437D01*
X770076Y281270D01*
X770058Y281103D01*
X770035Y280937D01*
X770008Y280771D01*
X769978Y280606D01*
X769943Y280442D01*
X769904Y280278D01*
X769861Y280116D01*
X769815Y279955D01*
X769764Y279795D01*
X769709Y279636D01*
X769651Y279479D01*
X769588Y279323D01*
X769522Y279169D01*
X769452Y279016D01*
X769379Y278865D01*
X769301Y278716D01*
X769221Y278569D01*
X769136Y278424D01*
X769048Y278281D01*
X768956Y278140D01*
X768861Y278002D01*
X768763Y277866D01*
X768662Y277732D01*
X768557Y277601D01*
X768449Y277473D01*
X768337Y277347D01*
X768223Y277224D01*
X768106Y277104D01*
X767986Y276987D01*
X767863Y276873D01*
X767737Y276761D01*
X767609Y276653D01*
X767478Y276548D01*
X767344Y276447D01*
X767208Y276349D01*
X767070Y276254D01*
X766929Y276162D01*
X766786Y276074D01*
X766641Y275989D01*
X766494Y275909D01*
X766345Y275831D01*
X766194Y275758D01*
X766041Y275688D01*
X765887Y275622D01*
X765731Y275559D01*
X765574Y275501D01*
X765415Y275446D01*
X765255Y275395D01*
X765094Y275349D01*
X764932Y275306D01*
X764768Y275267D01*
X764604Y275232D01*
X764439Y275202D01*
X764273Y275175D01*
X764107Y275152D01*
X763940Y275134D01*
X763773Y275120D01*
X763606Y275109D01*
X763438Y275103D01*
X763270Y275101D01*
X763102Y275103D01*
X762934Y275109D01*
X762767Y275120D01*
X762600Y275134D01*
X762433Y275152D01*
X762267Y275175D01*
X762101Y275202D01*
X761936Y275232D01*
X761772Y275267D01*
X761608Y275306D01*
X761446Y275349D01*
X761285Y275395D01*
X761125Y275446D01*
X760966Y275501D01*
X760809Y275559D01*
X760653Y275622D01*
X760499Y275688D01*
X760346Y275758D01*
X760195Y275831D01*
X760046Y275909D01*
X759899Y275989D01*
X759754Y276074D01*
X759611Y276162D01*
X759470Y276254D01*
X759332Y276349D01*
X759196Y276447D01*
X759062Y276548D01*
X758931Y276653D01*
X758803Y276761D01*
X758677Y276873D01*
X758554Y276987D01*
X758434Y277104D01*
X758317Y277224D01*
X758203Y277347D01*
X758091Y277473D01*
X757983Y277601D01*
X757878Y277732D01*
X757777Y277866D01*
X757679Y278002D01*
X757584Y278140D01*
X757492Y278281D01*
X757404Y278424D01*
X757319Y278569D01*
X757239Y278716D01*
X757161Y278865D01*
X757088Y279016D01*
X757018Y279169D01*
X756952Y279323D01*
X756889Y279479D01*
X756831Y279636D01*
X756776Y279795D01*
X756725Y279955D01*
X756679Y280116D01*
X756636Y280278D01*
X756597Y280442D01*
X756562Y280606D01*
X756532Y280771D01*
X756505Y280937D01*
X756482Y281103D01*
X756464Y281270D01*
X756450Y281437D01*
X756439Y281604D01*
X756433Y281772D01*
X756431Y281940D01*
X778021Y281940D02*
X778023Y282108D01*
X778029Y282276D01*
X778040Y282443D01*
X778054Y282610D01*
X778072Y282777D01*
X778095Y282943D01*
X778122Y283109D01*
X778152Y283274D01*
X778187Y283438D01*
X778226Y283602D01*
X778269Y283764D01*
X778315Y283925D01*
X778366Y284085D01*
X778421Y284244D01*
X778479Y284401D01*
X778542Y284557D01*
X778608Y284711D01*
X778678Y284864D01*
X778751Y285015D01*
X778829Y285164D01*
X778909Y285311D01*
X778994Y285456D01*
X779082Y285599D01*
X779174Y285740D01*
X779269Y285878D01*
X779367Y286014D01*
X779468Y286148D01*
X779573Y286279D01*
X779681Y286407D01*
X779793Y286533D01*
X779907Y286656D01*
X780024Y286776D01*
X780144Y286893D01*
X780267Y287007D01*
X780393Y287119D01*
X780521Y287227D01*
X780652Y287332D01*
X780786Y287433D01*
X780922Y287531D01*
X781060Y287626D01*
X781201Y287718D01*
X781344Y287806D01*
X781489Y287891D01*
X781636Y287971D01*
X781785Y288049D01*
X781936Y288122D01*
X782089Y288192D01*
X782243Y288258D01*
X782399Y288321D01*
X782556Y288379D01*
X782715Y288434D01*
X782875Y288485D01*
X783036Y288531D01*
X783198Y288574D01*
X783362Y288613D01*
X783526Y288648D01*
X783691Y288678D01*
X783857Y288705D01*
X784023Y288728D01*
X784190Y288746D01*
X784357Y288760D01*
X784524Y288771D01*
X784692Y288777D01*
X784860Y288779D01*
X785028Y288777D01*
X785196Y288771D01*
X785363Y288760D01*
X785530Y288746D01*
X785697Y288728D01*
X785863Y288705D01*
X786029Y288678D01*
X786194Y288648D01*
X786358Y288613D01*
X786522Y288574D01*
X786684Y288531D01*
X786845Y288485D01*
X787005Y288434D01*
X787164Y288379D01*
X787321Y288321D01*
X787477Y288258D01*
X787631Y288192D01*
X787784Y288122D01*
X787935Y288049D01*
X788084Y287971D01*
X788231Y287891D01*
X788376Y287806D01*
X788519Y287718D01*
X788660Y287626D01*
X788798Y287531D01*
X788934Y287433D01*
X789068Y287332D01*
X789199Y287227D01*
X789327Y287119D01*
X789453Y287007D01*
X789576Y286893D01*
X789696Y286776D01*
X789813Y286656D01*
X789927Y286533D01*
X790039Y286407D01*
X790147Y286279D01*
X790252Y286148D01*
X790353Y286014D01*
X790451Y285878D01*
X790546Y285740D01*
X790638Y285599D01*
X790726Y285456D01*
X790811Y285311D01*
X790891Y285164D01*
X790969Y285015D01*
X791042Y284864D01*
X791112Y284711D01*
X791178Y284557D01*
X791241Y284401D01*
X791299Y284244D01*
X791354Y284085D01*
X791405Y283925D01*
X791451Y283764D01*
X791494Y283602D01*
X791533Y283438D01*
X791568Y283274D01*
X791598Y283109D01*
X791625Y282943D01*
X791648Y282777D01*
X791666Y282610D01*
X791680Y282443D01*
X791691Y282276D01*
X791697Y282108D01*
X791699Y281940D01*
X791697Y281772D01*
X791691Y281604D01*
X791680Y281437D01*
X791666Y281270D01*
X791648Y281103D01*
X791625Y280937D01*
X791598Y280771D01*
X791568Y280606D01*
X791533Y280442D01*
X791494Y280278D01*
X791451Y280116D01*
X791405Y279955D01*
X791354Y279795D01*
X791299Y279636D01*
X791241Y279479D01*
X791178Y279323D01*
X791112Y279169D01*
X791042Y279016D01*
X790969Y278865D01*
X790891Y278716D01*
X790811Y278569D01*
X790726Y278424D01*
X790638Y278281D01*
X790546Y278140D01*
X790451Y278002D01*
X790353Y277866D01*
X790252Y277732D01*
X790147Y277601D01*
X790039Y277473D01*
X789927Y277347D01*
X789813Y277224D01*
X789696Y277104D01*
X789576Y276987D01*
X789453Y276873D01*
X789327Y276761D01*
X789199Y276653D01*
X789068Y276548D01*
X788934Y276447D01*
X788798Y276349D01*
X788660Y276254D01*
X788519Y276162D01*
X788376Y276074D01*
X788231Y275989D01*
X788084Y275909D01*
X787935Y275831D01*
X787784Y275758D01*
X787631Y275688D01*
X787477Y275622D01*
X787321Y275559D01*
X787164Y275501D01*
X787005Y275446D01*
X786845Y275395D01*
X786684Y275349D01*
X786522Y275306D01*
X786358Y275267D01*
X786194Y275232D01*
X786029Y275202D01*
X785863Y275175D01*
X785697Y275152D01*
X785530Y275134D01*
X785363Y275120D01*
X785196Y275109D01*
X785028Y275103D01*
X784860Y275101D01*
X784692Y275103D01*
X784524Y275109D01*
X784357Y275120D01*
X784190Y275134D01*
X784023Y275152D01*
X783857Y275175D01*
X783691Y275202D01*
X783526Y275232D01*
X783362Y275267D01*
X783198Y275306D01*
X783036Y275349D01*
X782875Y275395D01*
X782715Y275446D01*
X782556Y275501D01*
X782399Y275559D01*
X782243Y275622D01*
X782089Y275688D01*
X781936Y275758D01*
X781785Y275831D01*
X781636Y275909D01*
X781489Y275989D01*
X781344Y276074D01*
X781201Y276162D01*
X781060Y276254D01*
X780922Y276349D01*
X780786Y276447D01*
X780652Y276548D01*
X780521Y276653D01*
X780393Y276761D01*
X780267Y276873D01*
X780144Y276987D01*
X780024Y277104D01*
X779907Y277224D01*
X779793Y277347D01*
X779681Y277473D01*
X779573Y277601D01*
X779468Y277732D01*
X779367Y277866D01*
X779269Y278002D01*
X779174Y278140D01*
X779082Y278281D01*
X778994Y278424D01*
X778909Y278569D01*
X778829Y278716D01*
X778751Y278865D01*
X778678Y279016D01*
X778608Y279169D01*
X778542Y279323D01*
X778479Y279479D01*
X778421Y279636D01*
X778366Y279795D01*
X778315Y279955D01*
X778269Y280116D01*
X778226Y280278D01*
X778187Y280442D01*
X778152Y280606D01*
X778122Y280771D01*
X778095Y280937D01*
X778072Y281103D01*
X778054Y281270D01*
X778040Y281437D01*
X778029Y281604D01*
X778023Y281772D01*
X778021Y281940D01*
X772904Y273050D02*
X772906Y273134D01*
X772912Y273218D01*
X772922Y273302D01*
X772935Y273385D01*
X772953Y273467D01*
X772975Y273549D01*
X773000Y273629D01*
X773029Y273708D01*
X773062Y273786D01*
X773098Y273862D01*
X773138Y273936D01*
X773181Y274008D01*
X773227Y274078D01*
X773277Y274146D01*
X773330Y274212D01*
X773386Y274275D01*
X773445Y274335D01*
X773507Y274392D01*
X773571Y274447D01*
X773638Y274498D01*
X773707Y274546D01*
X773778Y274591D01*
X773851Y274633D01*
X773926Y274671D01*
X774003Y274705D01*
X774081Y274736D01*
X774161Y274763D01*
X774242Y274787D01*
X774324Y274806D01*
X774407Y274822D01*
X774490Y274834D01*
X774574Y274842D01*
X774658Y274846D01*
X774742Y274846D01*
X774826Y274842D01*
X774910Y274834D01*
X774993Y274822D01*
X775076Y274806D01*
X775158Y274787D01*
X775239Y274763D01*
X775319Y274736D01*
X775397Y274705D01*
X775474Y274671D01*
X775549Y274633D01*
X775622Y274591D01*
X775693Y274546D01*
X775762Y274498D01*
X775829Y274447D01*
X775893Y274392D01*
X775955Y274335D01*
X776014Y274275D01*
X776070Y274212D01*
X776123Y274146D01*
X776173Y274078D01*
X776219Y274008D01*
X776262Y273936D01*
X776302Y273862D01*
X776338Y273786D01*
X776371Y273708D01*
X776400Y273629D01*
X776425Y273549D01*
X776447Y273467D01*
X776465Y273385D01*
X776478Y273302D01*
X776488Y273218D01*
X776494Y273134D01*
X776496Y273050D01*
X776494Y272966D01*
X776488Y272882D01*
X776478Y272798D01*
X776465Y272715D01*
X776447Y272633D01*
X776425Y272551D01*
X776400Y272471D01*
X776371Y272392D01*
X776338Y272314D01*
X776302Y272238D01*
X776262Y272164D01*
X776219Y272092D01*
X776173Y272022D01*
X776123Y271954D01*
X776070Y271888D01*
X776014Y271825D01*
X775955Y271765D01*
X775893Y271708D01*
X775829Y271653D01*
X775762Y271602D01*
X775693Y271554D01*
X775622Y271509D01*
X775549Y271467D01*
X775474Y271429D01*
X775397Y271395D01*
X775319Y271364D01*
X775239Y271337D01*
X775158Y271313D01*
X775076Y271294D01*
X774993Y271278D01*
X774910Y271266D01*
X774826Y271258D01*
X774742Y271254D01*
X774658Y271254D01*
X774574Y271258D01*
X774490Y271266D01*
X774407Y271278D01*
X774324Y271294D01*
X774242Y271313D01*
X774161Y271337D01*
X774081Y271364D01*
X774003Y271395D01*
X773926Y271429D01*
X773851Y271467D01*
X773778Y271509D01*
X773707Y271554D01*
X773638Y271602D01*
X773571Y271653D01*
X773507Y271708D01*
X773445Y271765D01*
X773386Y271825D01*
X773330Y271888D01*
X773277Y271954D01*
X773227Y272022D01*
X773181Y272092D01*
X773138Y272164D01*
X773098Y272238D01*
X773062Y272314D01*
X773029Y272392D01*
X773000Y272471D01*
X772975Y272551D01*
X772953Y272633D01*
X772935Y272715D01*
X772922Y272798D01*
X772912Y272882D01*
X772906Y272966D01*
X772904Y273050D01*
X758190Y255270D02*
X758706Y254893D01*
X759230Y254529D01*
X759763Y254177D01*
X760304Y253839D01*
X760854Y253514D01*
X761411Y253202D01*
X761976Y252904D01*
X762548Y252620D01*
X763126Y252350D01*
X763711Y252094D01*
X764302Y251852D01*
X764899Y251625D01*
X765501Y251412D01*
X766108Y251215D01*
X766720Y251032D01*
X767336Y250864D01*
X767955Y250711D01*
X768579Y250573D01*
X769205Y250451D01*
X769835Y250343D01*
X770467Y250251D01*
X771101Y250175D01*
X771736Y250114D01*
X772373Y250069D01*
X773011Y250039D01*
X773649Y250024D01*
X774288Y250026D01*
X774926Y250042D01*
X775563Y250075D01*
X776200Y250123D01*
X776836Y250186D01*
X777469Y250265D01*
X778101Y250359D01*
X778730Y250468D01*
X779356Y250593D01*
X779979Y250733D01*
X780598Y250889D01*
X781213Y251059D01*
X781824Y251244D01*
X782431Y251444D01*
X783032Y251659D01*
X783628Y251888D01*
X784218Y252132D01*
X784802Y252390D01*
X785379Y252663D01*
X785950Y252949D01*
X786514Y253249D01*
X787070Y253563D01*
X787618Y253890D01*
X788158Y254231D01*
X788690Y254584D01*
X789213Y254951D01*
X789726Y255330D01*
X790231Y255721D01*
X790725Y256125D01*
X791210Y256540D01*
X789940Y261620D02*
X789550Y261255D01*
X789151Y260899D01*
X788744Y260553D01*
X788328Y260217D01*
X787905Y259891D01*
X787473Y259576D01*
X787034Y259271D01*
X786588Y258977D01*
X786135Y258693D01*
X785675Y258421D01*
X785209Y258160D01*
X784736Y257911D01*
X784258Y257673D01*
X783773Y257447D01*
X783284Y257232D01*
X782789Y257030D01*
X782290Y256839D01*
X781786Y256661D01*
X781278Y256495D01*
X780766Y256342D01*
X780251Y256201D01*
X779732Y256072D01*
X779210Y255956D01*
X778686Y255853D01*
X778159Y255763D01*
X777631Y255685D01*
X777100Y255620D01*
X776568Y255568D01*
X776035Y255530D01*
X775501Y255504D01*
X774967Y255491D01*
X774433Y255491D01*
X773899Y255504D01*
X773365Y255530D01*
X772832Y255568D01*
X772300Y255620D01*
X771769Y255685D01*
X771241Y255763D01*
X770714Y255853D01*
X770190Y255956D01*
X769668Y256072D01*
X769149Y256201D01*
X768634Y256342D01*
X768122Y256495D01*
X767614Y256661D01*
X767110Y256839D01*
X766611Y257030D01*
X766116Y257232D01*
X765627Y257447D01*
X765142Y257673D01*
X764664Y257911D01*
X764191Y258160D01*
X763725Y258421D01*
X763265Y258693D01*
X762812Y258977D01*
X762366Y259271D01*
X761927Y259576D01*
X761495Y259891D01*
X761072Y260217D01*
X760656Y260553D01*
X760249Y260899D01*
X759850Y261255D01*
X759460Y261620D01*
X774700Y262890D02*
X774700Y250190D01*
X763270Y251460D02*
X763665Y252027D01*
X764046Y252602D01*
X764413Y253187D01*
X764766Y253781D01*
X765105Y254382D01*
X765430Y254992D01*
X765739Y255609D01*
X766034Y256234D01*
X766313Y256865D01*
X766577Y257503D01*
X766826Y258148D01*
X767059Y258798D01*
X767276Y259453D01*
X767478Y260113D01*
X767664Y260778D01*
X767833Y261448D01*
X767987Y262121D01*
X768124Y262798D01*
X768245Y263478D01*
X768350Y264160D01*
X781050Y264160D02*
X781157Y263410D01*
X781282Y262663D01*
X781425Y261919D01*
X781585Y261178D01*
X781764Y260442D01*
X781960Y259710D01*
X782173Y258983D01*
X782404Y258262D01*
X782652Y257546D01*
X782918Y256836D01*
X783200Y256133D01*
X783499Y255437D01*
X783815Y254748D01*
X784147Y254067D01*
X784496Y253395D01*
X784860Y252730D01*
X760730Y309880D02*
X761197Y310312D01*
X761674Y310734D01*
X762161Y311144D01*
X762656Y311543D01*
X763161Y311930D01*
X763675Y312306D01*
X764196Y312671D01*
X764727Y313023D01*
X765264Y313363D01*
X765810Y313690D01*
X765810Y308611D02*
X766389Y309184D01*
X766981Y309744D01*
X767586Y310290D01*
X768204Y310822D01*
X768835Y311338D01*
X769477Y311840D01*
X770131Y312326D01*
X770797Y312797D01*
X771473Y313252D01*
X772160Y313691D01*
X781050Y314960D02*
X781751Y314609D01*
X782444Y314242D01*
X783127Y313858D01*
X783801Y313457D01*
X784466Y313041D01*
X785120Y312609D01*
X785763Y312161D01*
X786396Y311697D01*
X787017Y311219D01*
X787626Y310725D01*
X788224Y310218D01*
X788809Y309695D01*
X789381Y309159D01*
X789940Y308610D01*
D11*
X800100Y304800D02*
X815340Y320040D01*
X815340Y321310D01*
X821690Y314960D02*
X803910Y297180D01*
X821690Y314960D02*
X821690Y316230D01*
X787400Y266700D02*
X807720Y246380D01*
X803910Y242570D02*
X792480Y254000D01*
X760730Y266700D02*
X742950Y248920D01*
X741680Y248920D01*
X755650Y255270D02*
X756920Y255270D01*
X755650Y255270D02*
X745490Y245110D01*
X815340Y321309D02*
X815248Y321409D01*
X815158Y321511D01*
X815072Y321616D01*
X814989Y321723D01*
X814910Y321833D01*
X814833Y321945D01*
X814760Y322059D01*
X814690Y322175D01*
X814623Y322293D01*
X814560Y322413D01*
X814500Y322535D01*
X814444Y322658D01*
X814392Y322784D01*
X814343Y322910D01*
X814298Y323038D01*
X814257Y323167D01*
X814219Y323297D01*
X814185Y323429D01*
X814155Y323561D01*
X814129Y323694D01*
X814107Y323828D01*
X814089Y323962D01*
X814075Y324097D01*
X814064Y324232D01*
X814058Y324368D01*
X814055Y324503D01*
X814056Y324639D01*
X814062Y324775D01*
X814071Y324910D01*
X814084Y325045D01*
X814101Y325179D01*
X814122Y325313D01*
X814147Y325447D01*
X814176Y325579D01*
X814209Y325711D01*
X814245Y325842D01*
X814285Y325971D01*
X814329Y326099D01*
X814377Y326226D01*
X814428Y326352D01*
X814483Y326476D01*
X814542Y326598D01*
X814604Y326719D01*
X814669Y326838D01*
X814738Y326954D01*
X814810Y327069D01*
X814886Y327182D01*
X814965Y327292D01*
X815047Y327400D01*
X815132Y327506D01*
X815220Y327609D01*
X815311Y327709D01*
X815405Y327807D01*
X815502Y327902D01*
X815602Y327994D01*
X815704Y328083D01*
X815809Y328169D01*
X815916Y328252D01*
X816026Y328332D01*
X816137Y328409D01*
X816251Y328482D01*
X816367Y328552D01*
X816486Y328619D01*
X816606Y328682D01*
X816727Y328742D01*
X816851Y328798D01*
X816976Y328851D01*
X817102Y328900D01*
X817230Y328945D01*
X817359Y328986D01*
X817490Y329024D01*
X817621Y329058D01*
X817753Y329088D01*
X817886Y329114D01*
X818020Y329136D01*
X818154Y329155D01*
X818289Y329169D01*
X818424Y329180D01*
X818560Y329186D01*
X818696Y329189D01*
X818831Y329188D01*
X818967Y329182D01*
X819102Y329173D01*
X819237Y329160D01*
X819372Y329143D01*
X819506Y329122D01*
X819639Y329098D01*
X819771Y329069D01*
X819903Y329036D01*
X820034Y329000D01*
X820163Y328960D01*
X820292Y328916D01*
X820419Y328869D01*
X820544Y328818D01*
X820668Y328763D01*
X820791Y328704D01*
X820911Y328642D01*
X821030Y328577D01*
X821147Y328508D01*
X821262Y328436D01*
X821374Y328360D01*
X821485Y328281D01*
X821593Y328199D01*
X821698Y328114D01*
X821802Y328026D01*
X821902Y327935D01*
X822000Y327841D01*
X822095Y327745D01*
X822187Y327645D01*
X822276Y327543D01*
X822363Y327438D01*
X822446Y327331D01*
X822526Y327222D01*
X822603Y327110D01*
X822676Y326996D01*
X822746Y326880D01*
X822813Y326762D01*
X822876Y326642D01*
X822936Y326520D01*
X822993Y326397D01*
X823045Y326272D01*
X823094Y326145D01*
X823139Y326018D01*
X823181Y325888D01*
X823219Y325758D01*
X823253Y325627D01*
X823283Y325495D01*
X823309Y325362D01*
X823332Y325228D01*
X823350Y325094D01*
X823365Y324959D01*
X823375Y324823D01*
X823382Y324688D01*
X823385Y324552D01*
X823384Y324417D01*
X823379Y324281D01*
X823370Y324146D01*
X823357Y324011D01*
X823340Y323876D01*
X823319Y323742D01*
X823294Y323609D01*
X823266Y323476D01*
X823233Y323345D01*
X823197Y323214D01*
X823157Y323084D01*
X823114Y322956D01*
X823066Y322829D01*
X823015Y322703D01*
X822960Y322579D01*
X821690Y322580D02*
X821784Y322686D01*
X821880Y322789D01*
X821979Y322889D01*
X822081Y322987D01*
X822185Y323082D01*
X822293Y323174D01*
X822402Y323263D01*
X822514Y323348D01*
X822629Y323431D01*
X822746Y323510D01*
X822865Y323586D01*
X822986Y323659D01*
X823109Y323728D01*
X823233Y323794D01*
X823360Y323856D01*
X823488Y323915D01*
X823618Y323970D01*
X823750Y324021D01*
X823883Y324069D01*
X824017Y324113D01*
X824152Y324153D01*
X824288Y324189D01*
X824426Y324222D01*
X824564Y324251D01*
X824703Y324275D01*
X824843Y324296D01*
X824983Y324313D01*
X825123Y324326D01*
X825264Y324336D01*
X825405Y324341D01*
X825546Y324342D01*
X825687Y324339D01*
X825828Y324332D01*
X825969Y324322D01*
X826109Y324307D01*
X826249Y324289D01*
X826389Y324266D01*
X826527Y324240D01*
X826665Y324210D01*
X826802Y324176D01*
X826938Y324138D01*
X827073Y324096D01*
X827207Y324051D01*
X827339Y324002D01*
X827470Y323949D01*
X827599Y323893D01*
X827727Y323833D01*
X827853Y323769D01*
X827977Y323702D01*
X828099Y323631D01*
X828220Y323557D01*
X828338Y323480D01*
X828454Y323400D01*
X828567Y323316D01*
X828678Y323229D01*
X828787Y323139D01*
X828893Y323046D01*
X828997Y322950D01*
X829098Y322851D01*
X829196Y322749D01*
X829291Y322645D01*
X829383Y322538D01*
X829472Y322429D01*
X829558Y322317D01*
X829641Y322203D01*
X829720Y322086D01*
X829797Y321967D01*
X829870Y321846D01*
X829939Y321724D01*
X830005Y321599D01*
X830068Y321472D01*
X830127Y321344D01*
X830182Y321214D01*
X830234Y321083D01*
X830282Y320950D01*
X830326Y320816D01*
X830367Y320681D01*
X830403Y320545D01*
X830436Y320408D01*
X830465Y320269D01*
X830490Y320131D01*
X830512Y319991D01*
X830529Y319851D01*
X830542Y319710D01*
X830552Y319570D01*
X830557Y319429D01*
X830559Y319287D01*
X830557Y319146D01*
X830550Y319005D01*
X830540Y318865D01*
X830526Y318724D01*
X830508Y318584D01*
X830486Y318445D01*
X830460Y318306D01*
X830430Y318168D01*
X830396Y318031D01*
X830359Y317895D01*
X830317Y317760D01*
X830272Y317626D01*
X830223Y317494D01*
X830171Y317363D01*
X830115Y317233D01*
X830055Y317105D01*
X829992Y316979D01*
X829925Y316855D01*
X829855Y316733D01*
X829781Y316612D01*
X829704Y316494D01*
X829624Y316378D01*
X829540Y316264D01*
X829454Y316153D01*
X829364Y316044D01*
X829271Y315937D01*
X829176Y315833D01*
X829077Y315732D01*
X828976Y315634D01*
X828872Y315539D01*
X828765Y315446D01*
X828656Y315357D01*
X828544Y315271D01*
X828430Y315188D01*
X828314Y315108D01*
X828195Y315031D01*
X828074Y314958D01*
X827952Y314888D01*
X827827Y314822D01*
X827701Y314759D01*
X827573Y314699D01*
X827443Y314644D01*
X827312Y314592D01*
X827179Y314543D01*
X827045Y314499D01*
X826910Y314458D01*
X826774Y314421D01*
X826637Y314388D01*
X826499Y314358D01*
X826360Y314333D01*
X826221Y314311D01*
X826081Y314293D01*
X825940Y314280D01*
X825799Y314270D01*
X825658Y314264D01*
X825517Y314262D01*
X825376Y314264D01*
X825235Y314270D01*
X825094Y314280D01*
X824954Y314294D01*
X824814Y314312D01*
X824674Y314333D01*
X824536Y314359D01*
X824397Y314388D01*
X824260Y314422D01*
X824124Y314459D01*
X823989Y314500D01*
X823855Y314545D01*
X823723Y314593D01*
X823592Y314645D01*
X823462Y314701D01*
X823334Y314760D01*
X823208Y314823D01*
X823083Y314890D01*
X822960Y314960D01*
X807720Y246380D02*
X807781Y246495D01*
X807847Y246609D01*
X807916Y246721D01*
X807988Y246830D01*
X808063Y246938D01*
X808142Y247043D01*
X808223Y247145D01*
X808308Y247245D01*
X808396Y247343D01*
X808487Y247438D01*
X808580Y247530D01*
X808676Y247619D01*
X808775Y247705D01*
X808877Y247788D01*
X808980Y247868D01*
X809087Y247945D01*
X809195Y248019D01*
X809306Y248089D01*
X809419Y248156D01*
X809533Y248220D01*
X809650Y248280D01*
X809768Y248337D01*
X809888Y248390D01*
X810010Y248439D01*
X810133Y248485D01*
X810257Y248527D01*
X810382Y248565D01*
X810509Y248599D01*
X810636Y248630D01*
X810765Y248657D01*
X810894Y248679D01*
X811024Y248698D01*
X811154Y248713D01*
X811285Y248724D01*
X811416Y248732D01*
X811547Y248735D01*
X811678Y248734D01*
X811809Y248729D01*
X811940Y248721D01*
X812071Y248708D01*
X812201Y248692D01*
X812330Y248671D01*
X812459Y248647D01*
X812587Y248619D01*
X812714Y248586D01*
X812841Y248551D01*
X812966Y248511D01*
X813089Y248468D01*
X813212Y248420D01*
X813333Y248370D01*
X813452Y248315D01*
X813570Y248257D01*
X813686Y248196D01*
X813800Y248131D01*
X813911Y248062D01*
X814021Y247991D01*
X814129Y247916D01*
X814234Y247838D01*
X814337Y247756D01*
X814438Y247672D01*
X814535Y247584D01*
X814631Y247494D01*
X814723Y247401D01*
X814812Y247305D01*
X814899Y247207D01*
X814983Y247106D01*
X815063Y247002D01*
X815141Y246896D01*
X815215Y246788D01*
X815286Y246678D01*
X815353Y246565D01*
X815417Y246451D01*
X815478Y246334D01*
X815535Y246216D01*
X815588Y246096D01*
X815638Y245975D01*
X815684Y245852D01*
X815727Y245728D01*
X815765Y245603D01*
X815800Y245476D01*
X815831Y245349D01*
X815858Y245221D01*
X815882Y245092D01*
X815901Y244962D01*
X815917Y244832D01*
X815928Y244701D01*
X815936Y244570D01*
X815940Y244439D01*
X815939Y244308D01*
X815935Y244177D01*
X815927Y244046D01*
X815915Y243915D01*
X815899Y243785D01*
X815879Y243655D01*
X815855Y243526D01*
X815827Y243398D01*
X815796Y243271D01*
X815760Y243145D01*
X815721Y243019D01*
X815678Y242895D01*
X815632Y242773D01*
X815581Y242652D01*
X815527Y242532D01*
X815470Y242414D01*
X815409Y242298D01*
X815344Y242184D01*
X815276Y242072D01*
X815205Y241962D01*
X815131Y241854D01*
X815053Y241748D01*
X814972Y241645D01*
X814888Y241544D01*
X814801Y241446D01*
X814711Y241351D01*
X814618Y241258D01*
X814523Y241168D01*
X814425Y241081D01*
X814324Y240997D01*
X814221Y240916D01*
X814115Y240838D01*
X814007Y240764D01*
X813897Y240692D01*
X813785Y240625D01*
X813671Y240560D01*
X813554Y240499D01*
X813437Y240441D01*
X813317Y240388D01*
X813196Y240337D01*
X813073Y240291D01*
X812949Y240248D01*
X812824Y240208D01*
X812698Y240173D01*
X812571Y240142D01*
X812442Y240114D01*
X812313Y240090D01*
X812184Y240070D01*
X812054Y240054D01*
X811923Y240042D01*
X811792Y240034D01*
X811661Y240030D01*
X811530Y240029D01*
X811530Y241300D02*
X811568Y241175D01*
X811603Y241048D01*
X811633Y240921D01*
X811660Y240793D01*
X811683Y240664D01*
X811702Y240535D01*
X811717Y240405D01*
X811728Y240274D01*
X811735Y240144D01*
X811739Y240013D01*
X811738Y239882D01*
X811734Y239751D01*
X811725Y239620D01*
X811713Y239490D01*
X811696Y239360D01*
X811676Y239231D01*
X811652Y239102D01*
X811624Y238975D01*
X811592Y238848D01*
X811557Y238722D01*
X811517Y238597D01*
X811474Y238473D01*
X811427Y238351D01*
X811377Y238230D01*
X811323Y238111D01*
X811265Y237994D01*
X811204Y237878D01*
X811139Y237764D01*
X811071Y237652D01*
X811000Y237543D01*
X810925Y237435D01*
X810847Y237330D01*
X810766Y237227D01*
X810682Y237127D01*
X810595Y237029D01*
X810505Y236934D01*
X810412Y236842D01*
X810317Y236752D01*
X810219Y236666D01*
X810118Y236582D01*
X810015Y236502D01*
X809909Y236424D01*
X809802Y236350D01*
X809692Y236279D01*
X809580Y236212D01*
X809465Y236147D01*
X809349Y236087D01*
X809232Y236030D01*
X809112Y235976D01*
X808991Y235926D01*
X808869Y235880D01*
X808745Y235837D01*
X808620Y235798D01*
X808494Y235763D01*
X808367Y235732D01*
X808239Y235704D01*
X808110Y235681D01*
X807981Y235661D01*
X807851Y235645D01*
X807721Y235633D01*
X807590Y235626D01*
X807459Y235622D01*
X807328Y235621D01*
X807198Y235625D01*
X807067Y235633D01*
X806937Y235645D01*
X806807Y235661D01*
X806677Y235680D01*
X806549Y235704D01*
X806421Y235731D01*
X806294Y235762D01*
X806167Y235797D01*
X806042Y235836D01*
X805919Y235878D01*
X805796Y235925D01*
X805675Y235974D01*
X805556Y236028D01*
X805438Y236085D01*
X805322Y236146D01*
X805208Y236210D01*
X805096Y236277D01*
X804986Y236348D01*
X804878Y236422D01*
X804772Y236499D01*
X804669Y236580D01*
X804568Y236663D01*
X804470Y236750D01*
X804374Y236839D01*
X804282Y236931D01*
X804192Y237026D01*
X804104Y237124D01*
X804020Y237224D01*
X803939Y237327D01*
X803861Y237432D01*
X803787Y237540D01*
X803715Y237649D01*
X803647Y237761D01*
X803582Y237875D01*
X803521Y237990D01*
X803463Y238108D01*
X803409Y238227D01*
X803358Y238348D01*
X803311Y238470D01*
X803268Y238593D01*
X803229Y238718D01*
X803193Y238844D01*
X803161Y238971D01*
X803133Y239099D01*
X803109Y239227D01*
X803088Y239357D01*
X803072Y239486D01*
X803059Y239617D01*
X803051Y239747D01*
X803046Y239878D01*
X803045Y240009D01*
X803048Y240140D01*
X803056Y240270D01*
X803067Y240401D01*
X803082Y240531D01*
X803100Y240660D01*
X803123Y240789D01*
X803150Y240917D01*
X803180Y241045D01*
X803215Y241171D01*
X803253Y241296D01*
X803295Y241420D01*
X803340Y241543D01*
X803390Y241664D01*
X803442Y241784D01*
X803499Y241902D01*
X803559Y242018D01*
X803622Y242133D01*
X803689Y242245D01*
X803759Y242356D01*
X803833Y242464D01*
X803910Y242570D01*
X745489Y243840D02*
X745567Y243737D01*
X745642Y243630D01*
X745714Y243522D01*
X745782Y243411D01*
X745847Y243299D01*
X745908Y243184D01*
X745966Y243068D01*
X746020Y242949D01*
X746071Y242830D01*
X746117Y242709D01*
X746161Y242586D01*
X746200Y242462D01*
X746236Y242337D01*
X746267Y242211D01*
X746295Y242084D01*
X746319Y241957D01*
X746339Y241828D01*
X746355Y241699D01*
X746368Y241570D01*
X746376Y241440D01*
X746380Y241311D01*
X746381Y241181D01*
X746377Y241051D01*
X746369Y240921D01*
X746358Y240792D01*
X746342Y240663D01*
X746323Y240534D01*
X746300Y240406D01*
X746273Y240279D01*
X746241Y240153D01*
X746207Y240028D01*
X746168Y239904D01*
X746125Y239781D01*
X746079Y239660D01*
X746029Y239540D01*
X745976Y239421D01*
X745919Y239305D01*
X745858Y239190D01*
X745794Y239077D01*
X745726Y238966D01*
X745655Y238857D01*
X745581Y238750D01*
X745504Y238646D01*
X745423Y238544D01*
X745339Y238444D01*
X745253Y238348D01*
X745163Y238254D01*
X745071Y238162D01*
X744976Y238074D01*
X744878Y237988D01*
X744777Y237906D01*
X744675Y237826D01*
X744569Y237750D01*
X744462Y237677D01*
X744352Y237607D01*
X744240Y237541D01*
X744127Y237478D01*
X744011Y237419D01*
X743894Y237363D01*
X743775Y237311D01*
X743654Y237262D01*
X743532Y237217D01*
X743409Y237176D01*
X743285Y237139D01*
X743159Y237106D01*
X743033Y237076D01*
X742905Y237050D01*
X742777Y237028D01*
X742648Y237010D01*
X742519Y236996D01*
X742390Y236986D01*
X742260Y236980D01*
X742130Y236978D01*
X742000Y236980D01*
X741870Y236986D01*
X741741Y236995D01*
X741612Y237009D01*
X741483Y237027D01*
X741355Y237048D01*
X741227Y237074D01*
X741101Y237103D01*
X740975Y237136D01*
X740850Y237173D01*
X740727Y237214D01*
X740605Y237259D01*
X740484Y237307D01*
X740365Y237359D01*
X740248Y237414D01*
X740132Y237473D01*
X740018Y237536D01*
X739906Y237602D01*
X739797Y237671D01*
X739689Y237744D01*
X739583Y237820D01*
X739480Y237899D01*
X739380Y237982D01*
X739282Y238067D01*
X739187Y238155D01*
X739094Y238246D01*
X739004Y238340D01*
X738917Y238437D01*
X738833Y238536D01*
X738753Y238638D01*
X738675Y238742D01*
X738600Y238848D01*
X738529Y238957D01*
X738461Y239068D01*
X738397Y239181D01*
X738336Y239296D01*
X738279Y239412D01*
X738225Y239530D01*
X738175Y239650D01*
X738128Y239772D01*
X738085Y239894D01*
X738046Y240018D01*
X738011Y240143D01*
X737980Y240269D01*
X737952Y240396D01*
X737929Y240524D01*
X737909Y240653D01*
X737893Y240782D01*
X737881Y240911D01*
X737873Y241041D01*
X737869Y241171D01*
X737870Y241300D01*
X737734Y241305D01*
X737598Y241314D01*
X737463Y241328D01*
X737328Y241345D01*
X737194Y241366D01*
X737060Y241391D01*
X736927Y241420D01*
X736795Y241452D01*
X736664Y241489D01*
X736534Y241529D01*
X736405Y241573D01*
X736278Y241621D01*
X736152Y241672D01*
X736028Y241727D01*
X735905Y241785D01*
X735784Y241847D01*
X735665Y241913D01*
X735548Y241982D01*
X735433Y242054D01*
X735320Y242129D01*
X735209Y242208D01*
X735100Y242290D01*
X734994Y242375D01*
X734891Y242463D01*
X734790Y242554D01*
X734691Y242648D01*
X734596Y242745D01*
X734503Y242845D01*
X734413Y242947D01*
X734327Y243051D01*
X734243Y243158D01*
X734162Y243268D01*
X734085Y243380D01*
X734011Y243494D01*
X733940Y243610D01*
X733872Y243728D01*
X733808Y243848D01*
X733748Y243969D01*
X733691Y244093D01*
X733637Y244218D01*
X733588Y244344D01*
X733542Y244472D01*
X733499Y244602D01*
X733461Y244732D01*
X733426Y244863D01*
X733395Y244996D01*
X733368Y245129D01*
X733344Y245263D01*
X733325Y245397D01*
X733309Y245532D01*
X733298Y245668D01*
X733290Y245804D01*
X733286Y245940D01*
X733287Y246076D01*
X733291Y246211D01*
X733299Y246347D01*
X733311Y246483D01*
X733326Y246618D01*
X733346Y246752D01*
X733370Y246886D01*
X733397Y247019D01*
X733429Y247152D01*
X733464Y247283D01*
X733503Y247413D01*
X733545Y247542D01*
X733592Y247670D01*
X733642Y247796D01*
X733695Y247921D01*
X733753Y248045D01*
X733813Y248166D01*
X733878Y248286D01*
X733945Y248404D01*
X734017Y248520D01*
X734091Y248634D01*
X734169Y248745D01*
X734250Y248854D01*
X734334Y248961D01*
X734421Y249066D01*
X734511Y249168D01*
X734604Y249267D01*
X734699Y249363D01*
X734798Y249457D01*
X734899Y249548D01*
X735003Y249636D01*
X735109Y249721D01*
X735218Y249802D01*
X735329Y249881D01*
X735442Y249956D01*
X735557Y250028D01*
X735675Y250097D01*
X735794Y250162D01*
X735915Y250224D01*
X736038Y250282D01*
X736163Y250336D01*
X736289Y250388D01*
X736416Y250435D01*
X736545Y250478D01*
X736675Y250518D01*
X736806Y250555D01*
X736938Y250587D01*
X737071Y250615D01*
X737205Y250640D01*
X737339Y250661D01*
X737474Y250678D01*
X737609Y250691D01*
X737745Y250700D01*
X737881Y250705D01*
X738017Y250706D01*
X738153Y250703D01*
X738288Y250697D01*
X738424Y250686D01*
X738559Y250671D01*
X738694Y250653D01*
X738828Y250631D01*
X738961Y250605D01*
X739094Y250575D01*
X739226Y250541D01*
X739356Y250503D01*
X739486Y250462D01*
X739614Y250417D01*
X739741Y250368D01*
X739866Y250316D01*
X739990Y250260D01*
X740112Y250200D01*
X740233Y250137D01*
X740351Y250070D01*
X740468Y250000D01*
X740583Y249927D01*
X740695Y249851D01*
X740805Y249771D01*
X740913Y249688D01*
X741018Y249602D01*
X741121Y249513D01*
X741221Y249421D01*
X741318Y249326D01*
X741413Y249228D01*
X741505Y249128D01*
X741594Y249025D01*
X741680Y248920D01*
X748030Y304800D02*
X732790Y320040D01*
X727710Y316230D02*
X746760Y297180D01*
X727710Y316230D02*
X727628Y316118D01*
X727544Y316009D01*
X727456Y315902D01*
X727365Y315797D01*
X727271Y315695D01*
X727174Y315596D01*
X727075Y315500D01*
X726973Y315407D01*
X726868Y315317D01*
X726761Y315229D01*
X726651Y315145D01*
X726539Y315064D01*
X726424Y314986D01*
X726308Y314912D01*
X726189Y314841D01*
X726068Y314773D01*
X725946Y314709D01*
X725822Y314648D01*
X725695Y314591D01*
X725568Y314538D01*
X725439Y314488D01*
X725308Y314442D01*
X725177Y314400D01*
X725044Y314361D01*
X724910Y314326D01*
X724775Y314295D01*
X724639Y314269D01*
X724503Y314245D01*
X724366Y314226D01*
X724228Y314211D01*
X724090Y314200D01*
X723952Y314193D01*
X723814Y314189D01*
X723675Y314190D01*
X723537Y314194D01*
X723399Y314203D01*
X723261Y314215D01*
X723124Y314232D01*
X722987Y314252D01*
X722851Y314277D01*
X722715Y314305D01*
X722581Y314337D01*
X722447Y314373D01*
X722314Y314412D01*
X722183Y314456D01*
X722053Y314503D01*
X721924Y314554D01*
X721797Y314608D01*
X721672Y314667D01*
X721548Y314728D01*
X721426Y314794D01*
X721306Y314862D01*
X721188Y314935D01*
X721072Y315010D01*
X720958Y315089D01*
X720847Y315171D01*
X720738Y315256D01*
X720631Y315344D01*
X720527Y315436D01*
X720426Y315530D01*
X720327Y315627D01*
X720231Y315727D01*
X720139Y315829D01*
X720049Y315935D01*
X719962Y316042D01*
X719878Y316152D01*
X719798Y316265D01*
X719720Y316380D01*
X719646Y316497D01*
X719576Y316616D01*
X719509Y316737D01*
X719445Y316860D01*
X719385Y316984D01*
X719328Y317110D01*
X719276Y317238D01*
X719226Y317368D01*
X719181Y317498D01*
X719139Y317630D01*
X719101Y317763D01*
X719067Y317897D01*
X719037Y318032D01*
X719011Y318168D01*
X718988Y318305D01*
X718970Y318442D01*
X718955Y318580D01*
X718944Y318717D01*
X718938Y318856D01*
X718935Y318994D01*
X718936Y319132D01*
X718942Y319271D01*
X718951Y319409D01*
X718964Y319546D01*
X718981Y319684D01*
X719002Y319820D01*
X719027Y319957D01*
X719055Y320092D01*
X719088Y320226D01*
X719125Y320360D01*
X719165Y320492D01*
X719209Y320623D01*
X719257Y320753D01*
X719308Y320882D01*
X719363Y321009D01*
X719422Y321134D01*
X719484Y321257D01*
X719550Y321379D01*
X719619Y321499D01*
X719692Y321617D01*
X719768Y321732D01*
X719847Y321846D01*
X719930Y321957D01*
X720016Y322065D01*
X720104Y322171D01*
X720196Y322275D01*
X720291Y322376D01*
X720388Y322474D01*
X720489Y322569D01*
X720592Y322662D01*
X720697Y322751D01*
X720805Y322837D01*
X720916Y322921D01*
X721029Y323001D01*
X721144Y323077D01*
X721261Y323151D01*
X721381Y323221D01*
X721502Y323288D01*
X721625Y323351D01*
X721750Y323410D01*
X721876Y323466D01*
X722004Y323518D01*
X722134Y323567D01*
X722265Y323612D01*
X722397Y323653D01*
X722530Y323690D01*
X722665Y323724D01*
X722800Y323753D01*
X722936Y323779D01*
X723072Y323801D01*
X723209Y323819D01*
X723347Y323833D01*
X723485Y323843D01*
X723623Y323849D01*
X723762Y323851D01*
X723900Y323849D01*
X723899Y323850D02*
X723883Y323990D01*
X723870Y324130D01*
X723862Y324270D01*
X723857Y324411D01*
X723856Y324551D01*
X723859Y324692D01*
X723866Y324832D01*
X723877Y324972D01*
X723892Y325112D01*
X723911Y325252D01*
X723933Y325390D01*
X723960Y325528D01*
X723990Y325666D01*
X724024Y325802D01*
X724062Y325937D01*
X724104Y326072D01*
X724149Y326205D01*
X724199Y326336D01*
X724251Y326467D01*
X724308Y326595D01*
X724368Y326723D01*
X724431Y326848D01*
X724498Y326972D01*
X724568Y327093D01*
X724642Y327213D01*
X724719Y327331D01*
X724799Y327446D01*
X724883Y327559D01*
X724970Y327670D01*
X725059Y327778D01*
X725152Y327884D01*
X725247Y327987D01*
X725346Y328087D01*
X725447Y328185D01*
X725551Y328280D01*
X725657Y328372D01*
X725766Y328460D01*
X725877Y328546D01*
X725991Y328629D01*
X726107Y328708D01*
X726225Y328784D01*
X726346Y328857D01*
X726468Y328927D01*
X726592Y328993D01*
X726718Y329055D01*
X726845Y329114D01*
X726975Y329169D01*
X727105Y329221D01*
X727237Y329269D01*
X727371Y329314D01*
X727505Y329354D01*
X727641Y329391D01*
X727778Y329424D01*
X727915Y329454D01*
X728053Y329479D01*
X728192Y329501D01*
X728332Y329518D01*
X728472Y329532D01*
X728612Y329542D01*
X728752Y329548D01*
X728893Y329550D01*
X729033Y329548D01*
X729174Y329542D01*
X729314Y329533D01*
X729454Y329519D01*
X729594Y329502D01*
X729732Y329480D01*
X729871Y329455D01*
X730008Y329426D01*
X730145Y329393D01*
X730281Y329356D01*
X730415Y329316D01*
X730549Y329271D01*
X730681Y329223D01*
X730812Y329172D01*
X730941Y329117D01*
X731068Y329058D01*
X731194Y328995D01*
X731319Y328930D01*
X731441Y328860D01*
X731561Y328788D01*
X731680Y328712D01*
X731796Y328632D01*
X731909Y328550D01*
X732021Y328464D01*
X732130Y328376D01*
X732237Y328284D01*
X732341Y328189D01*
X732442Y328092D01*
X732540Y327991D01*
X732636Y327888D01*
X732729Y327783D01*
X732819Y327675D01*
X732905Y327564D01*
X732989Y327451D01*
X733069Y327336D01*
X733147Y327218D01*
X733220Y327099D01*
X733291Y326977D01*
X733358Y326854D01*
X733422Y326728D01*
X733482Y326601D01*
X733538Y326472D01*
X733591Y326342D01*
X733640Y326211D01*
X733686Y326078D01*
X733728Y325943D01*
X733766Y325808D01*
X733800Y325672D01*
X733831Y325535D01*
X733857Y325396D01*
X733880Y325258D01*
X733899Y325118D01*
X733914Y324979D01*
X733925Y324839D01*
X733932Y324698D01*
X733936Y324558D01*
X733935Y324417D01*
X733931Y324277D01*
X733922Y324136D01*
X733910Y323996D01*
X733893Y323857D01*
X733873Y323718D01*
X733849Y323579D01*
X733821Y323441D01*
X733790Y323304D01*
X733754Y323168D01*
X733715Y323033D01*
X733672Y322899D01*
X733625Y322767D01*
X733575Y322636D01*
X733520Y322506D01*
X733463Y322378D01*
X733402Y322251D01*
X733337Y322126D01*
X733269Y322004D01*
X733197Y321883D01*
X733122Y321764D01*
X733044Y321647D01*
X732962Y321532D01*
X732878Y321420D01*
X732790Y321310D01*
X812800Y641350D02*
X812800Y654050D01*
X786130Y660400D02*
X839470Y660400D01*
X839470Y635000D01*
X786130Y635000D01*
X786130Y660400D01*
D12*
X689610Y726440D02*
X683260Y732790D01*
X689610Y739140D01*
X695960Y732790D01*
X711200Y728980D02*
X711631Y728975D01*
X712062Y728959D01*
X712492Y728933D01*
X712922Y728896D01*
X713350Y728849D01*
X713778Y728792D01*
X714203Y728724D01*
X714628Y728647D01*
X715050Y728558D01*
X715469Y728460D01*
X715887Y728351D01*
X716301Y728233D01*
X716712Y728104D01*
X717121Y727965D01*
X717525Y727817D01*
X717927Y727658D01*
X718324Y727491D01*
X718717Y727313D01*
X719105Y727126D01*
X719489Y726930D01*
X719868Y726724D01*
X720242Y726509D01*
X720610Y726286D01*
X720973Y726053D01*
X721330Y725812D01*
X721682Y725562D01*
X722027Y725303D01*
X722366Y725037D01*
X722698Y724762D01*
X723023Y724479D01*
X723342Y724189D01*
X723653Y723890D01*
X723957Y723585D01*
X724254Y723272D01*
X724543Y722952D01*
X724824Y722625D01*
X725097Y722291D01*
X725362Y721951D01*
X725618Y721604D01*
X725866Y721252D01*
X726106Y720893D01*
X726336Y720529D01*
X726558Y720159D01*
X711200Y728980D02*
X710769Y728975D01*
X710338Y728959D01*
X709908Y728933D01*
X709478Y728896D01*
X709050Y728849D01*
X708622Y728792D01*
X708197Y728724D01*
X707772Y728647D01*
X707350Y728558D01*
X706931Y728460D01*
X706513Y728351D01*
X706099Y728233D01*
X705688Y728104D01*
X705279Y727965D01*
X704875Y727817D01*
X704473Y727658D01*
X704076Y727491D01*
X703683Y727313D01*
X703295Y727126D01*
X702911Y726930D01*
X702532Y726724D01*
X702158Y726509D01*
X701790Y726286D01*
X701427Y726053D01*
X701070Y725812D01*
X700718Y725562D01*
X700373Y725303D01*
X700034Y725037D01*
X699702Y724762D01*
X699377Y724479D01*
X699058Y724189D01*
X698747Y723890D01*
X698443Y723585D01*
X698146Y723272D01*
X697857Y722952D01*
X697576Y722625D01*
X697303Y722291D01*
X697038Y721951D01*
X696782Y721604D01*
X696534Y721252D01*
X696294Y720893D01*
X696064Y720529D01*
X695842Y720159D01*
X695842Y702241D02*
X696064Y701871D01*
X696294Y701507D01*
X696534Y701148D01*
X696782Y700796D01*
X697038Y700449D01*
X697303Y700109D01*
X697576Y699775D01*
X697857Y699448D01*
X698146Y699128D01*
X698443Y698815D01*
X698747Y698510D01*
X699058Y698211D01*
X699377Y697921D01*
X699702Y697638D01*
X700034Y697363D01*
X700373Y697097D01*
X700718Y696838D01*
X701070Y696588D01*
X701427Y696347D01*
X701790Y696114D01*
X702158Y695891D01*
X702532Y695676D01*
X702911Y695470D01*
X703295Y695274D01*
X703683Y695087D01*
X704076Y694909D01*
X704473Y694742D01*
X704875Y694583D01*
X705279Y694435D01*
X705688Y694296D01*
X706099Y694167D01*
X706513Y694049D01*
X706931Y693940D01*
X707350Y693842D01*
X707772Y693753D01*
X708197Y693676D01*
X708622Y693608D01*
X709050Y693551D01*
X709478Y693504D01*
X709908Y693467D01*
X710338Y693441D01*
X710769Y693425D01*
X711200Y693420D01*
X711631Y693425D01*
X712062Y693441D01*
X712492Y693467D01*
X712922Y693504D01*
X713350Y693551D01*
X713778Y693608D01*
X714203Y693676D01*
X714628Y693753D01*
X715050Y693842D01*
X715469Y693940D01*
X715887Y694049D01*
X716301Y694167D01*
X716712Y694296D01*
X717121Y694435D01*
X717525Y694583D01*
X717927Y694742D01*
X718324Y694909D01*
X718717Y695087D01*
X719105Y695274D01*
X719489Y695470D01*
X719868Y695676D01*
X720242Y695891D01*
X720610Y696114D01*
X720973Y696347D01*
X721330Y696588D01*
X721682Y696838D01*
X722027Y697097D01*
X722366Y697363D01*
X722698Y697638D01*
X723023Y697921D01*
X723342Y698211D01*
X723653Y698510D01*
X723957Y698815D01*
X724254Y699128D01*
X724543Y699448D01*
X724824Y699775D01*
X725097Y700109D01*
X725362Y700449D01*
X725618Y700796D01*
X725866Y701148D01*
X726106Y701507D01*
X726336Y701871D01*
X726558Y702241D01*
X684530Y711200D02*
X684538Y711855D01*
X684562Y712509D01*
X684602Y713162D01*
X684658Y713814D01*
X684731Y714465D01*
X684819Y715113D01*
X684923Y715760D01*
X685042Y716403D01*
X685178Y717043D01*
X685329Y717680D01*
X685496Y718313D01*
X685678Y718942D01*
X685876Y719566D01*
X686089Y720185D01*
X686317Y720798D01*
X686560Y721406D01*
X686818Y722008D01*
X687091Y722603D01*
X687378Y723191D01*
X687679Y723772D01*
X687995Y724346D01*
X688324Y724911D01*
X688668Y725468D01*
X689025Y726017D01*
X689395Y726557D01*
X689778Y727087D01*
X690175Y727608D01*
X690584Y728119D01*
X691005Y728620D01*
X691439Y729110D01*
X691884Y729590D01*
X692341Y730059D01*
X692810Y730516D01*
X693290Y730961D01*
X693780Y731395D01*
X694281Y731816D01*
X694792Y732225D01*
X695313Y732622D01*
X695843Y733005D01*
X696383Y733375D01*
X696932Y733732D01*
X697489Y734076D01*
X698054Y734405D01*
X698628Y734721D01*
X699209Y735022D01*
X699797Y735309D01*
X700392Y735582D01*
X700994Y735840D01*
X701602Y736083D01*
X702215Y736311D01*
X702834Y736524D01*
X703458Y736722D01*
X704087Y736904D01*
X704720Y737071D01*
X705357Y737222D01*
X705997Y737358D01*
X706640Y737477D01*
X707287Y737581D01*
X707935Y737669D01*
X708586Y737742D01*
X709238Y737798D01*
X709891Y737838D01*
X710545Y737862D01*
X711200Y737870D01*
X711855Y737862D01*
X712509Y737838D01*
X713162Y737798D01*
X713814Y737742D01*
X714465Y737669D01*
X715113Y737581D01*
X715760Y737477D01*
X716403Y737358D01*
X717043Y737222D01*
X717680Y737071D01*
X718313Y736904D01*
X718942Y736722D01*
X719566Y736524D01*
X720185Y736311D01*
X720798Y736083D01*
X721406Y735840D01*
X722008Y735582D01*
X722603Y735309D01*
X723191Y735022D01*
X723772Y734721D01*
X724346Y734405D01*
X724911Y734076D01*
X725468Y733732D01*
X726017Y733375D01*
X726557Y733005D01*
X727087Y732622D01*
X727608Y732225D01*
X728119Y731816D01*
X728620Y731395D01*
X729110Y730961D01*
X729590Y730516D01*
X730059Y730059D01*
X730516Y729590D01*
X730961Y729110D01*
X731395Y728620D01*
X731816Y728119D01*
X732225Y727608D01*
X732622Y727087D01*
X733005Y726557D01*
X733375Y726017D01*
X733732Y725468D01*
X734076Y724911D01*
X734405Y724346D01*
X734721Y723772D01*
X735022Y723191D01*
X735309Y722603D01*
X735582Y722008D01*
X735840Y721406D01*
X736083Y720798D01*
X736311Y720185D01*
X736524Y719566D01*
X736722Y718942D01*
X736904Y718313D01*
X737071Y717680D01*
X737222Y717043D01*
X737358Y716403D01*
X737477Y715760D01*
X737581Y715113D01*
X737669Y714465D01*
X737742Y713814D01*
X737798Y713162D01*
X737838Y712509D01*
X737862Y711855D01*
X737870Y711200D01*
X737862Y710545D01*
X737838Y709891D01*
X737798Y709238D01*
X737742Y708586D01*
X737669Y707935D01*
X737581Y707287D01*
X737477Y706640D01*
X737358Y705997D01*
X737222Y705357D01*
X737071Y704720D01*
X736904Y704087D01*
X736722Y703458D01*
X736524Y702834D01*
X736311Y702215D01*
X736083Y701602D01*
X735840Y700994D01*
X735582Y700392D01*
X735309Y699797D01*
X735022Y699209D01*
X734721Y698628D01*
X734405Y698054D01*
X734076Y697489D01*
X733732Y696932D01*
X733375Y696383D01*
X733005Y695843D01*
X732622Y695313D01*
X732225Y694792D01*
X731816Y694281D01*
X731395Y693780D01*
X730961Y693290D01*
X730516Y692810D01*
X730059Y692341D01*
X729590Y691884D01*
X729110Y691439D01*
X728620Y691005D01*
X728119Y690584D01*
X727608Y690175D01*
X727087Y689778D01*
X726557Y689395D01*
X726017Y689025D01*
X725468Y688668D01*
X724911Y688324D01*
X724346Y687995D01*
X723772Y687679D01*
X723191Y687378D01*
X722603Y687091D01*
X722008Y686818D01*
X721406Y686560D01*
X720798Y686317D01*
X720185Y686089D01*
X719566Y685876D01*
X718942Y685678D01*
X718313Y685496D01*
X717680Y685329D01*
X717043Y685178D01*
X716403Y685042D01*
X715760Y684923D01*
X715113Y684819D01*
X714465Y684731D01*
X713814Y684658D01*
X713162Y684602D01*
X712509Y684562D01*
X711855Y684538D01*
X711200Y684530D01*
X710545Y684538D01*
X709891Y684562D01*
X709238Y684602D01*
X708586Y684658D01*
X707935Y684731D01*
X707287Y684819D01*
X706640Y684923D01*
X705997Y685042D01*
X705357Y685178D01*
X704720Y685329D01*
X704087Y685496D01*
X703458Y685678D01*
X702834Y685876D01*
X702215Y686089D01*
X701602Y686317D01*
X700994Y686560D01*
X700392Y686818D01*
X699797Y687091D01*
X699209Y687378D01*
X698628Y687679D01*
X698054Y687995D01*
X697489Y688324D01*
X696932Y688668D01*
X696383Y689025D01*
X695843Y689395D01*
X695313Y689778D01*
X694792Y690175D01*
X694281Y690584D01*
X693780Y691005D01*
X693290Y691439D01*
X692810Y691884D01*
X692341Y692341D01*
X691884Y692810D01*
X691439Y693290D01*
X691005Y693780D01*
X690584Y694281D01*
X690175Y694792D01*
X689778Y695313D01*
X689395Y695843D01*
X689025Y696383D01*
X688668Y696932D01*
X688324Y697489D01*
X687995Y698054D01*
X687679Y698628D01*
X687378Y699209D01*
X687091Y699797D01*
X686818Y700392D01*
X686560Y700994D01*
X686317Y701602D01*
X686089Y702215D01*
X685876Y702834D01*
X685678Y703458D01*
X685496Y704087D01*
X685329Y704720D01*
X685178Y705357D01*
X685042Y705997D01*
X684923Y706640D01*
X684819Y707287D01*
X684731Y707935D01*
X684658Y708586D01*
X684602Y709238D01*
X684562Y709891D01*
X684538Y710545D01*
X684530Y711200D01*
D11*
X687070Y711200D02*
X687077Y711792D01*
X687099Y712384D01*
X687135Y712975D01*
X687186Y713565D01*
X687251Y714154D01*
X687331Y714741D01*
X687425Y715325D01*
X687534Y715908D01*
X687656Y716487D01*
X687793Y717063D01*
X687944Y717636D01*
X688109Y718205D01*
X688288Y718769D01*
X688481Y719329D01*
X688687Y719884D01*
X688907Y720434D01*
X689140Y720978D01*
X689387Y721517D01*
X689646Y722049D01*
X689919Y722575D01*
X690205Y723094D01*
X690503Y723605D01*
X690814Y724109D01*
X691137Y724606D01*
X691472Y725094D01*
X691819Y725574D01*
X692177Y726046D01*
X692547Y726508D01*
X692929Y726961D01*
X693321Y727405D01*
X693724Y727839D01*
X694138Y728262D01*
X694561Y728676D01*
X694995Y729079D01*
X695439Y729471D01*
X695892Y729853D01*
X696354Y730223D01*
X696826Y730581D01*
X697306Y730928D01*
X697794Y731263D01*
X698291Y731586D01*
X698795Y731897D01*
X699306Y732195D01*
X699825Y732481D01*
X700351Y732754D01*
X700883Y733013D01*
X701422Y733260D01*
X701966Y733493D01*
X702516Y733713D01*
X703071Y733919D01*
X703631Y734112D01*
X704195Y734291D01*
X704764Y734456D01*
X705337Y734607D01*
X705913Y734744D01*
X706492Y734866D01*
X707075Y734975D01*
X707659Y735069D01*
X708246Y735149D01*
X708835Y735214D01*
X709425Y735265D01*
X710016Y735301D01*
X710608Y735323D01*
X711200Y735330D01*
X711792Y735323D01*
X712384Y735301D01*
X712975Y735265D01*
X713565Y735214D01*
X714154Y735149D01*
X714741Y735069D01*
X715325Y734975D01*
X715908Y734866D01*
X716487Y734744D01*
X717063Y734607D01*
X717636Y734456D01*
X718205Y734291D01*
X718769Y734112D01*
X719329Y733919D01*
X719884Y733713D01*
X720434Y733493D01*
X720978Y733260D01*
X721517Y733013D01*
X722049Y732754D01*
X722575Y732481D01*
X723094Y732195D01*
X723605Y731897D01*
X724109Y731586D01*
X724606Y731263D01*
X725094Y730928D01*
X725574Y730581D01*
X726046Y730223D01*
X726508Y729853D01*
X726961Y729471D01*
X727405Y729079D01*
X727839Y728676D01*
X728262Y728262D01*
X728676Y727839D01*
X729079Y727405D01*
X729471Y726961D01*
X729853Y726508D01*
X730223Y726046D01*
X730581Y725574D01*
X730928Y725094D01*
X731263Y724606D01*
X731586Y724109D01*
X731897Y723605D01*
X732195Y723094D01*
X732481Y722575D01*
X732754Y722049D01*
X733013Y721517D01*
X733260Y720978D01*
X733493Y720434D01*
X733713Y719884D01*
X733919Y719329D01*
X734112Y718769D01*
X734291Y718205D01*
X734456Y717636D01*
X734607Y717063D01*
X734744Y716487D01*
X734866Y715908D01*
X734975Y715325D01*
X735069Y714741D01*
X735149Y714154D01*
X735214Y713565D01*
X735265Y712975D01*
X735301Y712384D01*
X735323Y711792D01*
X735330Y711200D01*
X735323Y710608D01*
X735301Y710016D01*
X735265Y709425D01*
X735214Y708835D01*
X735149Y708246D01*
X735069Y707659D01*
X734975Y707075D01*
X734866Y706492D01*
X734744Y705913D01*
X734607Y705337D01*
X734456Y704764D01*
X734291Y704195D01*
X734112Y703631D01*
X733919Y703071D01*
X733713Y702516D01*
X733493Y701966D01*
X733260Y701422D01*
X733013Y700883D01*
X732754Y700351D01*
X732481Y699825D01*
X732195Y699306D01*
X731897Y698795D01*
X731586Y698291D01*
X731263Y697794D01*
X730928Y697306D01*
X730581Y696826D01*
X730223Y696354D01*
X729853Y695892D01*
X729471Y695439D01*
X729079Y694995D01*
X728676Y694561D01*
X728262Y694138D01*
X727839Y693724D01*
X727405Y693321D01*
X726961Y692929D01*
X726508Y692547D01*
X726046Y692177D01*
X725574Y691819D01*
X725094Y691472D01*
X724606Y691137D01*
X724109Y690814D01*
X723605Y690503D01*
X723094Y690205D01*
X722575Y689919D01*
X722049Y689646D01*
X721517Y689387D01*
X720978Y689140D01*
X720434Y688907D01*
X719884Y688687D01*
X719329Y688481D01*
X718769Y688288D01*
X718205Y688109D01*
X717636Y687944D01*
X717063Y687793D01*
X716487Y687656D01*
X715908Y687534D01*
X715325Y687425D01*
X714741Y687331D01*
X714154Y687251D01*
X713565Y687186D01*
X712975Y687135D01*
X712384Y687099D01*
X711792Y687077D01*
X711200Y687070D01*
X710608Y687077D01*
X710016Y687099D01*
X709425Y687135D01*
X708835Y687186D01*
X708246Y687251D01*
X707659Y687331D01*
X707075Y687425D01*
X706492Y687534D01*
X705913Y687656D01*
X705337Y687793D01*
X704764Y687944D01*
X704195Y688109D01*
X703631Y688288D01*
X703071Y688481D01*
X702516Y688687D01*
X701966Y688907D01*
X701422Y689140D01*
X700883Y689387D01*
X700351Y689646D01*
X699825Y689919D01*
X699306Y690205D01*
X698795Y690503D01*
X698291Y690814D01*
X697794Y691137D01*
X697306Y691472D01*
X696826Y691819D01*
X696354Y692177D01*
X695892Y692547D01*
X695439Y692929D01*
X694995Y693321D01*
X694561Y693724D01*
X694138Y694138D01*
X693724Y694561D01*
X693321Y694995D01*
X692929Y695439D01*
X692547Y695892D01*
X692177Y696354D01*
X691819Y696826D01*
X691472Y697306D01*
X691137Y697794D01*
X690814Y698291D01*
X690503Y698795D01*
X690205Y699306D01*
X689919Y699825D01*
X689646Y700351D01*
X689387Y700883D01*
X689140Y701422D01*
X688907Y701966D01*
X688687Y702516D01*
X688481Y703071D01*
X688288Y703631D01*
X688109Y704195D01*
X687944Y704764D01*
X687793Y705337D01*
X687656Y705913D01*
X687534Y706492D01*
X687425Y707075D01*
X687331Y707659D01*
X687251Y708246D01*
X687186Y708835D01*
X687135Y709425D01*
X687099Y710016D01*
X687077Y710608D01*
X687070Y711200D01*
D13*
X699135Y742315D02*
X699135Y753745D01*
X702310Y753745D01*
X702421Y753743D01*
X702531Y753737D01*
X702642Y753728D01*
X702752Y753714D01*
X702861Y753697D01*
X702970Y753676D01*
X703078Y753651D01*
X703185Y753622D01*
X703291Y753590D01*
X703396Y753554D01*
X703499Y753514D01*
X703601Y753471D01*
X703702Y753424D01*
X703801Y753373D01*
X703898Y753320D01*
X703992Y753263D01*
X704085Y753202D01*
X704176Y753139D01*
X704265Y753072D01*
X704351Y753002D01*
X704434Y752929D01*
X704516Y752854D01*
X704594Y752776D01*
X704669Y752694D01*
X704742Y752611D01*
X704812Y752525D01*
X704879Y752436D01*
X704942Y752345D01*
X705003Y752252D01*
X705060Y752158D01*
X705113Y752061D01*
X705164Y751962D01*
X705211Y751861D01*
X705254Y751759D01*
X705294Y751656D01*
X705330Y751551D01*
X705362Y751445D01*
X705391Y751338D01*
X705416Y751230D01*
X705437Y751121D01*
X705454Y751012D01*
X705468Y750902D01*
X705477Y750791D01*
X705483Y750681D01*
X705485Y750570D01*
X705485Y745490D01*
X705483Y745379D01*
X705477Y745269D01*
X705468Y745158D01*
X705454Y745048D01*
X705437Y744939D01*
X705416Y744830D01*
X705391Y744722D01*
X705362Y744615D01*
X705330Y744509D01*
X705294Y744404D01*
X705254Y744301D01*
X705211Y744199D01*
X705164Y744098D01*
X705113Y743999D01*
X705060Y743903D01*
X705003Y743808D01*
X704942Y743715D01*
X704879Y743624D01*
X704812Y743535D01*
X704742Y743449D01*
X704669Y743366D01*
X704594Y743284D01*
X704516Y743206D01*
X704434Y743131D01*
X704351Y743058D01*
X704265Y742988D01*
X704176Y742921D01*
X704085Y742858D01*
X703992Y742797D01*
X703898Y742740D01*
X703801Y742687D01*
X703702Y742636D01*
X703601Y742589D01*
X703499Y742546D01*
X703396Y742506D01*
X703291Y742470D01*
X703185Y742438D01*
X703078Y742409D01*
X702970Y742384D01*
X702861Y742363D01*
X702752Y742346D01*
X702642Y742332D01*
X702531Y742323D01*
X702421Y742317D01*
X702310Y742315D01*
X699135Y742315D01*
X710946Y751205D02*
X714121Y753745D01*
X714121Y742315D01*
X710946Y742315D02*
X717296Y742315D01*
D14*
X387900Y717500D02*
X351900Y717500D01*
X387900Y666500D02*
X387900Y607500D01*
X387900Y690500D02*
X387900Y717500D01*
X297900Y717500D02*
X297900Y607500D01*
X297900Y717500D02*
X333900Y717500D01*
X297900Y607500D02*
X387900Y607500D01*
D13*
X367496Y598551D02*
X367496Y594797D01*
X367495Y594797D02*
X367493Y594732D01*
X367487Y594668D01*
X367477Y594604D01*
X367464Y594540D01*
X367446Y594478D01*
X367425Y594417D01*
X367401Y594357D01*
X367372Y594299D01*
X367340Y594242D01*
X367305Y594188D01*
X367267Y594136D01*
X367225Y594086D01*
X367181Y594039D01*
X367134Y593995D01*
X367084Y593953D01*
X367032Y593915D01*
X366978Y593880D01*
X366921Y593848D01*
X366863Y593819D01*
X366803Y593795D01*
X366742Y593774D01*
X366680Y593756D01*
X366616Y593743D01*
X366552Y593733D01*
X366488Y593727D01*
X366423Y593725D01*
X365887Y593725D01*
X370444Y597479D02*
X371784Y598551D01*
X371784Y593725D01*
X370444Y593725D02*
X373125Y593725D01*
X431800Y577850D02*
X438150Y584200D01*
X431800Y565150D02*
X438150Y558800D01*
X431800Y539750D02*
X438150Y533400D01*
X431800Y527050D01*
X438150Y508000D02*
X431800Y501650D01*
X431800Y488950D02*
X438150Y482600D01*
X431800Y476250D01*
X431800Y463550D02*
X438150Y457200D01*
X431800Y450850D01*
X431800Y438150D02*
X438150Y431800D01*
X431800Y425450D01*
X431800Y412750D02*
X438150Y406400D01*
X431800Y400050D01*
X431800Y387350D02*
X438150Y381000D01*
X431800Y374650D01*
X431800Y361950D02*
X438150Y355600D01*
X431800Y336550D02*
X438150Y330200D01*
X431800Y323850D01*
X431800Y311150D02*
X438150Y304800D01*
X431800Y298450D01*
X431800Y285750D02*
X438150Y279400D01*
X450850Y279400D02*
X457200Y285750D01*
X457200Y298450D01*
X450850Y304800D01*
X457200Y311150D01*
X457200Y323850D01*
X450850Y330200D01*
X457200Y336550D01*
X457200Y349250D01*
X450850Y355600D01*
X457200Y361950D01*
X457200Y374650D01*
X450850Y381000D01*
X457200Y387350D01*
X457200Y400050D01*
X450850Y406400D01*
X457200Y412750D01*
X457200Y425450D01*
X450850Y431800D01*
X457200Y438150D01*
X457200Y450850D01*
X450850Y457200D01*
X457200Y463550D01*
X457200Y476250D01*
X450850Y482600D01*
X457200Y488950D01*
X457200Y501650D01*
X450850Y508000D01*
X457200Y514350D01*
X457200Y527050D01*
X450850Y533400D01*
X457200Y539750D01*
X457200Y552450D01*
X450850Y558800D01*
X457200Y565150D01*
X457200Y577850D01*
X450850Y584200D01*
X584200Y577850D02*
X590550Y584200D01*
X584200Y285750D02*
X590550Y279400D01*
X609600Y577850D02*
X603250Y584200D01*
X609600Y285750D02*
X603250Y279400D01*
X431800Y552450D02*
X431800Y609600D01*
X431800Y552450D02*
X431800Y514350D01*
X431800Y349250D01*
X609600Y311150D02*
X609600Y298450D01*
X609600Y311150D02*
X609600Y323850D01*
X609600Y336550D01*
X609600Y349250D01*
X609600Y361950D01*
X609600Y374650D01*
X609600Y387350D01*
X609600Y400050D01*
X609600Y412750D01*
X609600Y425450D01*
X609600Y438150D01*
X609600Y450850D01*
X609600Y463550D01*
X609600Y476250D01*
X609600Y488950D01*
X609600Y501650D01*
X609600Y514350D01*
X609600Y527050D01*
X609600Y539750D01*
X609600Y552450D01*
X609600Y565150D01*
X438150Y355600D02*
X431800Y349250D01*
X431800Y552450D02*
X438150Y558800D01*
X431800Y514350D02*
X438150Y508000D01*
X603250Y304800D02*
X609600Y298450D01*
X603250Y304800D02*
X609600Y311150D01*
X609600Y323850D02*
X603250Y330200D01*
X609600Y336550D01*
X609600Y349250D02*
X603250Y355600D01*
X609600Y361950D01*
X609600Y374650D02*
X603250Y381000D01*
X609600Y387350D01*
X609600Y400050D02*
X603250Y406400D01*
X609600Y412750D01*
X609600Y425450D02*
X603250Y431800D01*
X609600Y438150D01*
X609600Y450850D02*
X603250Y457200D01*
X609600Y463550D01*
X609600Y476250D02*
X603250Y482600D01*
X609600Y488950D01*
X609600Y501650D02*
X603250Y508000D01*
X609600Y514350D01*
X609600Y527050D02*
X603250Y533400D01*
X609600Y539750D01*
X584200Y298450D02*
X584200Y285750D01*
X584200Y298450D02*
X590550Y304800D01*
X584200Y311150D01*
X584200Y323850D01*
X590550Y330200D01*
X584200Y336550D01*
X584200Y349250D01*
X590550Y355600D01*
X584200Y361950D01*
X584200Y374650D01*
X590550Y381000D01*
X584200Y387350D01*
X584200Y400050D01*
X590550Y406400D01*
X584200Y412750D01*
X584200Y425450D01*
X590550Y431800D01*
X584200Y438150D01*
X584200Y450850D01*
X590550Y457200D01*
X584200Y463550D01*
X584200Y476250D01*
X590550Y482600D01*
X584200Y488950D01*
X584200Y501650D01*
X590550Y508000D01*
X584200Y514350D01*
X584200Y527050D01*
X590550Y533400D01*
X584200Y539750D01*
X584200Y552450D01*
X590550Y558800D01*
X584200Y565150D01*
X584200Y577850D01*
X603250Y558800D02*
X609600Y565150D01*
X603250Y558800D02*
X609600Y552450D01*
X431800Y349250D02*
X431800Y273050D01*
X431800Y260350D01*
X431800Y247650D01*
X431800Y234950D01*
X431800Y222250D01*
X431800Y209550D01*
X431800Y177800D01*
X488950Y177800D01*
X552450Y177800D02*
X609600Y177800D01*
X609600Y209550D01*
X609600Y222250D01*
X609600Y234950D01*
X609600Y247650D01*
X609600Y260350D01*
X609600Y273050D01*
X609600Y298450D01*
X488950Y609600D02*
X431800Y609600D01*
X488950Y609600D02*
X552450Y609600D01*
X609600Y609600D01*
X609600Y565150D01*
X438150Y279400D02*
X431800Y273050D01*
X431800Y260350D02*
X438150Y254000D01*
X431800Y247650D01*
X431800Y234950D02*
X438150Y228600D01*
X431800Y222250D01*
X431800Y209550D02*
X438150Y203200D01*
X450850Y203200D01*
X457200Y209550D01*
X457200Y222250D01*
X450850Y228600D01*
X457200Y234950D01*
X457200Y247650D01*
X450850Y254000D01*
X457200Y260350D01*
X457200Y273050D01*
X450850Y279400D01*
X450850Y584200D02*
X438150Y584200D01*
X590550Y584200D02*
X603250Y584200D01*
X590550Y279400D02*
X584200Y273050D01*
X584200Y260350D01*
X590550Y254000D01*
X584200Y247650D01*
X584200Y234950D01*
X590550Y228600D01*
X584200Y222250D01*
X584200Y209550D01*
X590550Y203200D01*
X603250Y203200D01*
X609600Y209550D01*
X609600Y222250D02*
X603250Y228600D01*
X609600Y234950D01*
X609600Y247650D02*
X603250Y254000D01*
X609600Y260350D01*
X609600Y273050D02*
X603250Y279400D01*
X488950Y254000D02*
X488950Y177800D01*
X488950Y254000D02*
X552450Y254000D01*
X552450Y177800D01*
D12*
X524312Y195648D02*
X512572Y195648D01*
X524312Y195647D02*
X524445Y195649D01*
X524577Y195655D01*
X524709Y195665D01*
X524841Y195678D01*
X524973Y195696D01*
X525103Y195717D01*
X525234Y195742D01*
X525363Y195771D01*
X525491Y195804D01*
X525619Y195840D01*
X525745Y195880D01*
X525870Y195924D01*
X525994Y195972D01*
X526116Y196023D01*
X526237Y196078D01*
X526356Y196136D01*
X526474Y196198D01*
X526589Y196263D01*
X526703Y196332D01*
X526814Y196403D01*
X526923Y196479D01*
X527030Y196557D01*
X527135Y196638D01*
X527237Y196723D01*
X527337Y196810D01*
X527434Y196900D01*
X527529Y196993D01*
X527620Y197089D01*
X527709Y197187D01*
X527795Y197288D01*
X527878Y197392D01*
X527958Y197498D01*
X528034Y197606D01*
X528108Y197716D01*
X528178Y197829D01*
X528245Y197943D01*
X528308Y198060D01*
X528368Y198178D01*
X528425Y198298D01*
X528478Y198420D01*
X528527Y198543D01*
X528573Y198667D01*
X528615Y198793D01*
X528653Y198920D01*
X528688Y199048D01*
X528719Y199177D01*
X528746Y199306D01*
X528769Y199437D01*
X528789Y199568D01*
X528804Y199700D01*
X528816Y199832D01*
X528824Y199964D01*
X528828Y200097D01*
X528828Y200229D01*
X528824Y200362D01*
X528816Y200494D01*
X528804Y200626D01*
X528789Y200758D01*
X528769Y200889D01*
X528746Y201020D01*
X528719Y201149D01*
X528688Y201278D01*
X528653Y201406D01*
X528615Y201533D01*
X528573Y201659D01*
X528527Y201783D01*
X528478Y201906D01*
X528425Y202028D01*
X528368Y202148D01*
X528308Y202266D01*
X528245Y202383D01*
X528178Y202497D01*
X528108Y202610D01*
X528034Y202720D01*
X527958Y202828D01*
X527878Y202934D01*
X527795Y203038D01*
X527709Y203139D01*
X527620Y203237D01*
X527529Y203333D01*
X527434Y203426D01*
X527337Y203516D01*
X527237Y203603D01*
X527135Y203688D01*
X527030Y203769D01*
X526923Y203847D01*
X526814Y203923D01*
X526703Y203994D01*
X526589Y204063D01*
X526474Y204128D01*
X526356Y204190D01*
X526237Y204248D01*
X526116Y204303D01*
X525994Y204354D01*
X525870Y204402D01*
X525745Y204446D01*
X525619Y204486D01*
X525491Y204522D01*
X525363Y204555D01*
X525234Y204584D01*
X525103Y204609D01*
X524973Y204630D01*
X524841Y204648D01*
X524709Y204661D01*
X524577Y204671D01*
X524445Y204677D01*
X524312Y204679D01*
X512572Y204679D01*
X525216Y220310D02*
X525334Y220308D01*
X525452Y220302D01*
X525570Y220293D01*
X525687Y220279D01*
X525804Y220262D01*
X525921Y220241D01*
X526036Y220216D01*
X526151Y220187D01*
X526265Y220154D01*
X526377Y220118D01*
X526488Y220078D01*
X526598Y220035D01*
X526707Y219988D01*
X526814Y219938D01*
X526919Y219883D01*
X527022Y219826D01*
X527123Y219765D01*
X527223Y219701D01*
X527320Y219634D01*
X527415Y219564D01*
X527507Y219490D01*
X527598Y219414D01*
X527685Y219334D01*
X527770Y219252D01*
X527852Y219167D01*
X527932Y219080D01*
X528008Y218989D01*
X528082Y218897D01*
X528152Y218802D01*
X528219Y218705D01*
X528283Y218605D01*
X528344Y218504D01*
X528401Y218401D01*
X528456Y218296D01*
X528506Y218189D01*
X528553Y218080D01*
X528596Y217970D01*
X528636Y217859D01*
X528672Y217747D01*
X528705Y217633D01*
X528734Y217518D01*
X528759Y217403D01*
X528780Y217286D01*
X528797Y217169D01*
X528811Y217052D01*
X528820Y216934D01*
X528826Y216816D01*
X528828Y216698D01*
X528826Y216515D01*
X528819Y216333D01*
X528808Y216151D01*
X528793Y215969D01*
X528773Y215787D01*
X528750Y215606D01*
X528721Y215426D01*
X528689Y215246D01*
X528652Y215067D01*
X528611Y214890D01*
X528565Y214713D01*
X528516Y214537D01*
X528462Y214363D01*
X528404Y214189D01*
X528342Y214018D01*
X528276Y213848D01*
X528205Y213679D01*
X528131Y213512D01*
X528053Y213347D01*
X527971Y213184D01*
X527885Y213023D01*
X527795Y212864D01*
X527701Y212707D01*
X527604Y212553D01*
X527503Y212401D01*
X527398Y212251D01*
X527290Y212104D01*
X527179Y211960D01*
X527064Y211818D01*
X526945Y211679D01*
X526823Y211543D01*
X526698Y211410D01*
X526570Y211280D01*
X516184Y211731D02*
X516066Y211733D01*
X515948Y211739D01*
X515830Y211748D01*
X515713Y211762D01*
X515596Y211779D01*
X515479Y211800D01*
X515364Y211825D01*
X515249Y211854D01*
X515135Y211887D01*
X515023Y211923D01*
X514912Y211963D01*
X514802Y212006D01*
X514693Y212053D01*
X514586Y212103D01*
X514481Y212158D01*
X514378Y212215D01*
X514277Y212276D01*
X514177Y212340D01*
X514080Y212407D01*
X513985Y212477D01*
X513893Y212551D01*
X513802Y212627D01*
X513715Y212707D01*
X513630Y212789D01*
X513548Y212874D01*
X513468Y212961D01*
X513392Y213052D01*
X513318Y213144D01*
X513248Y213239D01*
X513181Y213336D01*
X513117Y213436D01*
X513056Y213537D01*
X512999Y213640D01*
X512944Y213745D01*
X512894Y213852D01*
X512847Y213961D01*
X512804Y214071D01*
X512764Y214182D01*
X512728Y214294D01*
X512695Y214408D01*
X512666Y214523D01*
X512641Y214638D01*
X512620Y214755D01*
X512603Y214872D01*
X512589Y214989D01*
X512580Y215107D01*
X512574Y215225D01*
X512572Y215343D01*
X512574Y215504D01*
X512580Y215666D01*
X512589Y215827D01*
X512603Y215988D01*
X512620Y216148D01*
X512641Y216308D01*
X512666Y216468D01*
X512695Y216627D01*
X512727Y216785D01*
X512763Y216942D01*
X512803Y217098D01*
X512847Y217254D01*
X512895Y217408D01*
X512946Y217561D01*
X513000Y217713D01*
X513059Y217864D01*
X513120Y218013D01*
X513186Y218160D01*
X513255Y218306D01*
X513327Y218451D01*
X513403Y218593D01*
X513482Y218734D01*
X513564Y218873D01*
X513650Y219009D01*
X513739Y219144D01*
X513831Y219277D01*
X513927Y219407D01*
X519345Y213536D02*
X519283Y213435D01*
X519218Y213335D01*
X519149Y213238D01*
X519077Y213143D01*
X519003Y213050D01*
X518925Y212960D01*
X518844Y212872D01*
X518761Y212787D01*
X518675Y212705D01*
X518586Y212626D01*
X518495Y212549D01*
X518401Y212476D01*
X518305Y212405D01*
X518207Y212338D01*
X518107Y212274D01*
X518004Y212213D01*
X517900Y212156D01*
X517794Y212102D01*
X517686Y212052D01*
X517577Y212005D01*
X517466Y211961D01*
X517354Y211921D01*
X517240Y211885D01*
X517126Y211853D01*
X517010Y211824D01*
X516894Y211799D01*
X516777Y211778D01*
X516659Y211761D01*
X516541Y211747D01*
X516422Y211738D01*
X516303Y211732D01*
X516184Y211730D01*
X522055Y218504D02*
X522117Y218605D01*
X522182Y218705D01*
X522251Y218802D01*
X522323Y218897D01*
X522397Y218990D01*
X522475Y219080D01*
X522556Y219168D01*
X522639Y219253D01*
X522725Y219335D01*
X522814Y219414D01*
X522905Y219491D01*
X522999Y219564D01*
X523095Y219635D01*
X523193Y219702D01*
X523293Y219766D01*
X523396Y219827D01*
X523500Y219884D01*
X523606Y219938D01*
X523714Y219988D01*
X523823Y220035D01*
X523934Y220079D01*
X524046Y220119D01*
X524160Y220155D01*
X524274Y220187D01*
X524390Y220216D01*
X524506Y220241D01*
X524623Y220262D01*
X524741Y220279D01*
X524859Y220293D01*
X524978Y220302D01*
X525097Y220308D01*
X525216Y220310D01*
X522055Y218504D02*
X519345Y213537D01*
X519797Y227121D02*
X519797Y231637D01*
X519796Y231637D02*
X519798Y231770D01*
X519804Y231902D01*
X519814Y232034D01*
X519827Y232166D01*
X519845Y232298D01*
X519866Y232428D01*
X519891Y232559D01*
X519920Y232688D01*
X519953Y232816D01*
X519989Y232944D01*
X520029Y233070D01*
X520073Y233195D01*
X520121Y233319D01*
X520172Y233441D01*
X520227Y233562D01*
X520285Y233681D01*
X520347Y233799D01*
X520412Y233914D01*
X520481Y234028D01*
X520552Y234139D01*
X520628Y234248D01*
X520706Y234355D01*
X520787Y234460D01*
X520872Y234562D01*
X520959Y234662D01*
X521049Y234759D01*
X521142Y234854D01*
X521238Y234945D01*
X521336Y235034D01*
X521437Y235120D01*
X521541Y235203D01*
X521647Y235283D01*
X521755Y235359D01*
X521865Y235433D01*
X521978Y235503D01*
X522092Y235570D01*
X522209Y235633D01*
X522327Y235693D01*
X522447Y235750D01*
X522569Y235803D01*
X522692Y235852D01*
X522816Y235898D01*
X522942Y235940D01*
X523069Y235978D01*
X523197Y236013D01*
X523326Y236044D01*
X523455Y236071D01*
X523586Y236094D01*
X523717Y236114D01*
X523849Y236129D01*
X523981Y236141D01*
X524113Y236149D01*
X524246Y236153D01*
X524378Y236153D01*
X524511Y236149D01*
X524643Y236141D01*
X524775Y236129D01*
X524907Y236114D01*
X525038Y236094D01*
X525169Y236071D01*
X525298Y236044D01*
X525427Y236013D01*
X525555Y235978D01*
X525682Y235940D01*
X525808Y235898D01*
X525932Y235852D01*
X526055Y235803D01*
X526177Y235750D01*
X526297Y235693D01*
X526415Y235633D01*
X526532Y235570D01*
X526646Y235503D01*
X526759Y235433D01*
X526869Y235359D01*
X526977Y235283D01*
X527083Y235203D01*
X527187Y235120D01*
X527288Y235034D01*
X527386Y234945D01*
X527482Y234854D01*
X527575Y234759D01*
X527665Y234662D01*
X527752Y234562D01*
X527837Y234460D01*
X527918Y234355D01*
X527996Y234248D01*
X528072Y234139D01*
X528143Y234028D01*
X528212Y233914D01*
X528277Y233799D01*
X528339Y233681D01*
X528397Y233562D01*
X528452Y233441D01*
X528503Y233319D01*
X528551Y233195D01*
X528595Y233070D01*
X528635Y232944D01*
X528671Y232816D01*
X528704Y232688D01*
X528733Y232559D01*
X528758Y232428D01*
X528779Y232298D01*
X528797Y232166D01*
X528810Y232034D01*
X528820Y231902D01*
X528826Y231770D01*
X528828Y231637D01*
X528828Y227121D01*
X512572Y227121D01*
X512572Y231637D01*
X512574Y231756D01*
X512580Y231876D01*
X512590Y231995D01*
X512604Y232113D01*
X512621Y232232D01*
X512643Y232349D01*
X512668Y232466D01*
X512698Y232581D01*
X512731Y232696D01*
X512768Y232810D01*
X512808Y232922D01*
X512853Y233033D01*
X512901Y233142D01*
X512952Y233250D01*
X513007Y233356D01*
X513066Y233460D01*
X513128Y233562D01*
X513193Y233662D01*
X513262Y233760D01*
X513334Y233856D01*
X513409Y233949D01*
X513486Y234039D01*
X513567Y234127D01*
X513651Y234212D01*
X513738Y234294D01*
X513827Y234374D01*
X513919Y234450D01*
X514013Y234524D01*
X514110Y234594D01*
X514208Y234661D01*
X514309Y234725D01*
X514413Y234785D01*
X514518Y234842D01*
X514625Y234895D01*
X514733Y234945D01*
X514843Y234991D01*
X514955Y235033D01*
X515068Y235072D01*
X515182Y235107D01*
X515297Y235138D01*
X515414Y235166D01*
X515531Y235189D01*
X515648Y235209D01*
X515767Y235225D01*
X515886Y235237D01*
X516005Y235245D01*
X516124Y235249D01*
X516244Y235249D01*
X516363Y235245D01*
X516482Y235237D01*
X516601Y235225D01*
X516720Y235209D01*
X516837Y235189D01*
X516954Y235166D01*
X517071Y235138D01*
X517186Y235107D01*
X517300Y235072D01*
X517413Y235033D01*
X517525Y234991D01*
X517635Y234945D01*
X517743Y234895D01*
X517850Y234842D01*
X517955Y234785D01*
X518059Y234725D01*
X518160Y234661D01*
X518258Y234594D01*
X518355Y234524D01*
X518449Y234450D01*
X518541Y234374D01*
X518630Y234294D01*
X518717Y234212D01*
X518801Y234127D01*
X518882Y234039D01*
X518959Y233949D01*
X519034Y233856D01*
X519106Y233760D01*
X519175Y233662D01*
X519240Y233562D01*
X519302Y233460D01*
X519361Y233356D01*
X519416Y233250D01*
X519467Y233142D01*
X519515Y233033D01*
X519560Y232922D01*
X519600Y232810D01*
X519637Y232696D01*
X519670Y232581D01*
X519700Y232466D01*
X519725Y232349D01*
X519747Y232232D01*
X519764Y232113D01*
X519778Y231995D01*
X519788Y231876D01*
X519794Y231756D01*
X519796Y231637D01*
D13*
X488950Y177800D02*
X488950Y165100D01*
X552450Y165100D01*
X552450Y177800D01*
X546100Y406400D02*
X546100Y431800D01*
X508000Y431800D01*
X508000Y406400D01*
X546100Y406400D01*
X519430Y419100D02*
X519432Y419287D01*
X519439Y419474D01*
X519451Y419661D01*
X519467Y419847D01*
X519487Y420033D01*
X519512Y420218D01*
X519542Y420403D01*
X519576Y420587D01*
X519615Y420770D01*
X519658Y420952D01*
X519706Y421132D01*
X519758Y421312D01*
X519815Y421490D01*
X519875Y421667D01*
X519941Y421842D01*
X520010Y422016D01*
X520084Y422188D01*
X520162Y422358D01*
X520244Y422526D01*
X520330Y422692D01*
X520420Y422856D01*
X520514Y423017D01*
X520612Y423177D01*
X520714Y423333D01*
X520820Y423488D01*
X520930Y423639D01*
X521043Y423788D01*
X521160Y423934D01*
X521280Y424077D01*
X521404Y424217D01*
X521531Y424354D01*
X521662Y424488D01*
X521796Y424619D01*
X521933Y424746D01*
X522073Y424870D01*
X522216Y424990D01*
X522362Y425107D01*
X522511Y425220D01*
X522662Y425330D01*
X522817Y425436D01*
X522973Y425538D01*
X523133Y425636D01*
X523294Y425730D01*
X523458Y425820D01*
X523624Y425906D01*
X523792Y425988D01*
X523962Y426066D01*
X524134Y426140D01*
X524308Y426209D01*
X524483Y426275D01*
X524660Y426335D01*
X524838Y426392D01*
X525018Y426444D01*
X525198Y426492D01*
X525380Y426535D01*
X525563Y426574D01*
X525747Y426608D01*
X525932Y426638D01*
X526117Y426663D01*
X526303Y426683D01*
X526489Y426699D01*
X526676Y426711D01*
X526863Y426718D01*
X527050Y426720D01*
X527237Y426718D01*
X527424Y426711D01*
X527611Y426699D01*
X527797Y426683D01*
X527983Y426663D01*
X528168Y426638D01*
X528353Y426608D01*
X528537Y426574D01*
X528720Y426535D01*
X528902Y426492D01*
X529082Y426444D01*
X529262Y426392D01*
X529440Y426335D01*
X529617Y426275D01*
X529792Y426209D01*
X529966Y426140D01*
X530138Y426066D01*
X530308Y425988D01*
X530476Y425906D01*
X530642Y425820D01*
X530806Y425730D01*
X530967Y425636D01*
X531127Y425538D01*
X531283Y425436D01*
X531438Y425330D01*
X531589Y425220D01*
X531738Y425107D01*
X531884Y424990D01*
X532027Y424870D01*
X532167Y424746D01*
X532304Y424619D01*
X532438Y424488D01*
X532569Y424354D01*
X532696Y424217D01*
X532820Y424077D01*
X532940Y423934D01*
X533057Y423788D01*
X533170Y423639D01*
X533280Y423488D01*
X533386Y423333D01*
X533488Y423177D01*
X533586Y423017D01*
X533680Y422856D01*
X533770Y422692D01*
X533856Y422526D01*
X533938Y422358D01*
X534016Y422188D01*
X534090Y422016D01*
X534159Y421842D01*
X534225Y421667D01*
X534285Y421490D01*
X534342Y421312D01*
X534394Y421132D01*
X534442Y420952D01*
X534485Y420770D01*
X534524Y420587D01*
X534558Y420403D01*
X534588Y420218D01*
X534613Y420033D01*
X534633Y419847D01*
X534649Y419661D01*
X534661Y419474D01*
X534668Y419287D01*
X534670Y419100D01*
X534668Y418913D01*
X534661Y418726D01*
X534649Y418539D01*
X534633Y418353D01*
X534613Y418167D01*
X534588Y417982D01*
X534558Y417797D01*
X534524Y417613D01*
X534485Y417430D01*
X534442Y417248D01*
X534394Y417068D01*
X534342Y416888D01*
X534285Y416710D01*
X534225Y416533D01*
X534159Y416358D01*
X534090Y416184D01*
X534016Y416012D01*
X533938Y415842D01*
X533856Y415674D01*
X533770Y415508D01*
X533680Y415344D01*
X533586Y415183D01*
X533488Y415023D01*
X533386Y414867D01*
X533280Y414712D01*
X533170Y414561D01*
X533057Y414412D01*
X532940Y414266D01*
X532820Y414123D01*
X532696Y413983D01*
X532569Y413846D01*
X532438Y413712D01*
X532304Y413581D01*
X532167Y413454D01*
X532027Y413330D01*
X531884Y413210D01*
X531738Y413093D01*
X531589Y412980D01*
X531438Y412870D01*
X531283Y412764D01*
X531127Y412662D01*
X530967Y412564D01*
X530806Y412470D01*
X530642Y412380D01*
X530476Y412294D01*
X530308Y412212D01*
X530138Y412134D01*
X529966Y412060D01*
X529792Y411991D01*
X529617Y411925D01*
X529440Y411865D01*
X529262Y411808D01*
X529082Y411756D01*
X528902Y411708D01*
X528720Y411665D01*
X528537Y411626D01*
X528353Y411592D01*
X528168Y411562D01*
X527983Y411537D01*
X527797Y411517D01*
X527611Y411501D01*
X527424Y411489D01*
X527237Y411482D01*
X527050Y411480D01*
X526863Y411482D01*
X526676Y411489D01*
X526489Y411501D01*
X526303Y411517D01*
X526117Y411537D01*
X525932Y411562D01*
X525747Y411592D01*
X525563Y411626D01*
X525380Y411665D01*
X525198Y411708D01*
X525018Y411756D01*
X524838Y411808D01*
X524660Y411865D01*
X524483Y411925D01*
X524308Y411991D01*
X524134Y412060D01*
X523962Y412134D01*
X523792Y412212D01*
X523624Y412294D01*
X523458Y412380D01*
X523294Y412470D01*
X523133Y412564D01*
X522973Y412662D01*
X522817Y412764D01*
X522662Y412870D01*
X522511Y412980D01*
X522362Y413093D01*
X522216Y413210D01*
X522073Y413330D01*
X521933Y413454D01*
X521796Y413581D01*
X521662Y413712D01*
X521531Y413846D01*
X521404Y413983D01*
X521280Y414123D01*
X521160Y414266D01*
X521043Y414412D01*
X520930Y414561D01*
X520820Y414712D01*
X520714Y414867D01*
X520612Y415023D01*
X520514Y415183D01*
X520420Y415344D01*
X520330Y415508D01*
X520244Y415674D01*
X520162Y415842D01*
X520084Y416012D01*
X520010Y416184D01*
X519941Y416358D01*
X519875Y416533D01*
X519815Y416710D01*
X519758Y416888D01*
X519706Y417068D01*
X519658Y417248D01*
X519615Y417430D01*
X519576Y417613D01*
X519542Y417797D01*
X519512Y417982D01*
X519487Y418167D01*
X519467Y418353D01*
X519451Y418539D01*
X519439Y418726D01*
X519432Y418913D01*
X519430Y419100D01*
D15*
X508009Y439801D02*
X508009Y449199D01*
X510619Y449199D01*
X510720Y449197D01*
X510821Y449191D01*
X510922Y449181D01*
X511022Y449168D01*
X511122Y449150D01*
X511221Y449129D01*
X511319Y449103D01*
X511416Y449074D01*
X511512Y449042D01*
X511606Y449005D01*
X511699Y448965D01*
X511791Y448921D01*
X511880Y448874D01*
X511968Y448823D01*
X512054Y448769D01*
X512137Y448712D01*
X512219Y448652D01*
X512297Y448588D01*
X512374Y448522D01*
X512447Y448452D01*
X512518Y448380D01*
X512586Y448305D01*
X512651Y448227D01*
X512713Y448147D01*
X512772Y448065D01*
X512828Y447980D01*
X512880Y447893D01*
X512929Y447805D01*
X512975Y447714D01*
X513016Y447622D01*
X513055Y447528D01*
X513089Y447433D01*
X513120Y447337D01*
X513147Y447239D01*
X513171Y447141D01*
X513190Y447041D01*
X513206Y446941D01*
X513218Y446841D01*
X513226Y446740D01*
X513230Y446639D01*
X513230Y446537D01*
X513226Y446436D01*
X513218Y446335D01*
X513206Y446235D01*
X513190Y446135D01*
X513171Y446035D01*
X513147Y445937D01*
X513120Y445839D01*
X513089Y445743D01*
X513055Y445648D01*
X513016Y445554D01*
X512975Y445462D01*
X512929Y445371D01*
X512880Y445283D01*
X512828Y445196D01*
X512772Y445111D01*
X512713Y445029D01*
X512651Y444949D01*
X512586Y444871D01*
X512518Y444796D01*
X512447Y444724D01*
X512374Y444654D01*
X512297Y444588D01*
X512219Y444524D01*
X512137Y444464D01*
X512054Y444407D01*
X511968Y444353D01*
X511880Y444302D01*
X511791Y444255D01*
X511699Y444211D01*
X511606Y444171D01*
X511512Y444134D01*
X511416Y444102D01*
X511319Y444073D01*
X511221Y444047D01*
X511122Y444026D01*
X511022Y444008D01*
X510922Y443995D01*
X510821Y443985D01*
X510720Y443979D01*
X510619Y443977D01*
X510619Y443978D02*
X508009Y443978D01*
X511142Y443978D02*
X513230Y439801D01*
X517418Y439801D02*
X521595Y439801D01*
X517418Y439801D02*
X517418Y449199D01*
X521595Y449199D01*
X520551Y445022D02*
X517418Y445022D01*
X527848Y439801D02*
X527937Y439803D01*
X528025Y439809D01*
X528113Y439818D01*
X528201Y439831D01*
X528288Y439848D01*
X528374Y439868D01*
X528459Y439893D01*
X528544Y439920D01*
X528627Y439952D01*
X528708Y439986D01*
X528788Y440025D01*
X528866Y440066D01*
X528943Y440111D01*
X529017Y440159D01*
X529090Y440210D01*
X529160Y440264D01*
X529227Y440322D01*
X529293Y440382D01*
X529355Y440444D01*
X529415Y440510D01*
X529473Y440577D01*
X529527Y440647D01*
X529578Y440720D01*
X529626Y440794D01*
X529671Y440871D01*
X529712Y440949D01*
X529751Y441029D01*
X529785Y441110D01*
X529817Y441193D01*
X529844Y441278D01*
X529869Y441363D01*
X529889Y441449D01*
X529906Y441536D01*
X529919Y441624D01*
X529928Y441712D01*
X529934Y441800D01*
X529936Y441889D01*
X527848Y439801D02*
X527719Y439803D01*
X527590Y439809D01*
X527461Y439818D01*
X527333Y439831D01*
X527205Y439848D01*
X527078Y439869D01*
X526951Y439893D01*
X526825Y439921D01*
X526700Y439953D01*
X526576Y439988D01*
X526453Y440027D01*
X526331Y440070D01*
X526211Y440116D01*
X526092Y440166D01*
X525974Y440219D01*
X525858Y440275D01*
X525744Y440335D01*
X525631Y440398D01*
X525521Y440465D01*
X525412Y440534D01*
X525306Y440607D01*
X525201Y440683D01*
X525099Y440762D01*
X525000Y440844D01*
X524902Y440928D01*
X524807Y441016D01*
X524715Y441106D01*
X524977Y447111D02*
X524979Y447200D01*
X524985Y447288D01*
X524994Y447376D01*
X525007Y447464D01*
X525024Y447551D01*
X525044Y447637D01*
X525069Y447722D01*
X525096Y447807D01*
X525128Y447890D01*
X525162Y447971D01*
X525201Y448051D01*
X525242Y448129D01*
X525287Y448206D01*
X525335Y448280D01*
X525386Y448353D01*
X525440Y448423D01*
X525498Y448490D01*
X525558Y448556D01*
X525620Y448618D01*
X525686Y448678D01*
X525753Y448736D01*
X525823Y448790D01*
X525896Y448841D01*
X525970Y448889D01*
X526047Y448934D01*
X526125Y448975D01*
X526205Y449014D01*
X526286Y449048D01*
X526369Y449080D01*
X526454Y449107D01*
X526539Y449132D01*
X526625Y449152D01*
X526712Y449169D01*
X526800Y449182D01*
X526888Y449191D01*
X526976Y449197D01*
X527065Y449199D01*
X527185Y449197D01*
X527305Y449192D01*
X527425Y449182D01*
X527544Y449170D01*
X527663Y449153D01*
X527781Y449133D01*
X527899Y449109D01*
X528015Y449082D01*
X528131Y449051D01*
X528246Y449017D01*
X528360Y448979D01*
X528473Y448937D01*
X528584Y448892D01*
X528694Y448844D01*
X528802Y448793D01*
X528909Y448738D01*
X529014Y448680D01*
X529117Y448618D01*
X529218Y448554D01*
X529318Y448486D01*
X529415Y448416D01*
X526021Y445284D02*
X525943Y445332D01*
X525867Y445384D01*
X525794Y445438D01*
X525723Y445496D01*
X525654Y445557D01*
X525588Y445621D01*
X525525Y445688D01*
X525465Y445757D01*
X525408Y445829D01*
X525354Y445903D01*
X525304Y445980D01*
X525256Y446059D01*
X525213Y446139D01*
X525172Y446222D01*
X525136Y446306D01*
X525103Y446391D01*
X525074Y446478D01*
X525048Y446567D01*
X525026Y446656D01*
X525009Y446746D01*
X524995Y446836D01*
X524985Y446928D01*
X524979Y447019D01*
X524977Y447111D01*
X528893Y443716D02*
X528971Y443668D01*
X529047Y443616D01*
X529120Y443562D01*
X529191Y443504D01*
X529260Y443443D01*
X529326Y443379D01*
X529389Y443312D01*
X529449Y443243D01*
X529506Y443171D01*
X529560Y443097D01*
X529610Y443020D01*
X529658Y442941D01*
X529701Y442861D01*
X529742Y442778D01*
X529778Y442694D01*
X529811Y442609D01*
X529840Y442522D01*
X529866Y442433D01*
X529888Y442344D01*
X529905Y442254D01*
X529919Y442164D01*
X529929Y442072D01*
X529935Y441981D01*
X529937Y441889D01*
X528893Y443717D02*
X526021Y445283D01*
X533877Y439801D02*
X538054Y439801D01*
X533877Y439801D02*
X533877Y449199D01*
X538054Y449199D01*
X537010Y445022D02*
X533877Y445022D01*
X543481Y449199D02*
X543481Y439801D01*
X540870Y449199D02*
X546091Y449199D01*
D16*
X418592Y383843D02*
X406908Y383843D01*
X413399Y387738D01*
X406908Y391633D01*
X418592Y391633D01*
X409504Y397066D02*
X406908Y400311D01*
X418592Y400311D01*
X418592Y397066D02*
X418592Y403557D01*
D14*
X800100Y703580D02*
X850900Y703580D01*
X800100Y703580D02*
X800100Y711200D01*
X800100Y718820D01*
X850900Y718820D01*
X850900Y711200D01*
X850900Y703580D01*
X800100Y711200D02*
X797560Y711200D01*
X850900Y711200D02*
X853440Y711200D01*
D13*
X821448Y700405D02*
X821448Y695579D01*
X821448Y700405D02*
X822789Y700405D01*
X822860Y700403D01*
X822932Y700397D01*
X823002Y700388D01*
X823072Y700375D01*
X823142Y700358D01*
X823210Y700337D01*
X823277Y700313D01*
X823343Y700285D01*
X823407Y700254D01*
X823470Y700219D01*
X823530Y700181D01*
X823589Y700140D01*
X823645Y700096D01*
X823699Y700049D01*
X823750Y700000D01*
X823798Y699947D01*
X823844Y699892D01*
X823886Y699835D01*
X823926Y699775D01*
X823962Y699714D01*
X823995Y699650D01*
X824024Y699585D01*
X824050Y699519D01*
X824073Y699451D01*
X824092Y699382D01*
X824107Y699312D01*
X824118Y699242D01*
X824126Y699171D01*
X824130Y699100D01*
X824130Y699028D01*
X824126Y698957D01*
X824118Y698886D01*
X824107Y698816D01*
X824092Y698746D01*
X824073Y698677D01*
X824050Y698609D01*
X824024Y698543D01*
X823995Y698478D01*
X823962Y698414D01*
X823926Y698353D01*
X823886Y698293D01*
X823844Y698236D01*
X823798Y698181D01*
X823750Y698128D01*
X823699Y698079D01*
X823645Y698032D01*
X823589Y697988D01*
X823530Y697947D01*
X823470Y697909D01*
X823407Y697874D01*
X823343Y697843D01*
X823277Y697815D01*
X823210Y697791D01*
X823142Y697770D01*
X823072Y697753D01*
X823002Y697740D01*
X822932Y697731D01*
X822860Y697725D01*
X822789Y697723D01*
X822789Y697724D02*
X821448Y697724D01*
X823057Y697724D02*
X824129Y695579D01*
X826871Y699333D02*
X828211Y700405D01*
X828211Y695579D01*
X826871Y695579D02*
X829552Y695579D01*
D17*
X631200Y665500D02*
X631200Y731500D01*
X631200Y665500D02*
X504200Y665500D01*
X504200Y731500D01*
X631200Y731500D01*
D18*
X498700Y699500D03*
D19*
X498638Y699498D01*
X498577Y699492D01*
X498516Y699483D01*
X498456Y699470D01*
X498397Y699453D01*
X498339Y699432D01*
X498282Y699408D01*
X498227Y699381D01*
X498174Y699350D01*
X498122Y699316D01*
X498073Y699279D01*
X498026Y699239D01*
X497982Y699196D01*
X497941Y699151D01*
X497902Y699103D01*
X497866Y699052D01*
X497834Y699000D01*
X497805Y698946D01*
X497779Y698890D01*
X497757Y698832D01*
X497738Y698774D01*
X497723Y698714D01*
X497712Y698653D01*
X497704Y698592D01*
X497700Y698531D01*
X497700Y698469D01*
X497704Y698408D01*
X497712Y698347D01*
X497723Y698286D01*
X497738Y698226D01*
X497757Y698168D01*
X497779Y698110D01*
X497805Y698054D01*
X497834Y698000D01*
X497866Y697948D01*
X497902Y697897D01*
X497941Y697849D01*
X497982Y697804D01*
X498026Y697761D01*
X498073Y697721D01*
X498122Y697684D01*
X498174Y697650D01*
X498227Y697619D01*
X498282Y697592D01*
X498339Y697568D01*
X498397Y697547D01*
X498456Y697530D01*
X498516Y697517D01*
X498577Y697508D01*
X498638Y697502D01*
X498700Y697500D01*
D18*
X498700Y697500D03*
D19*
X498762Y697502D01*
X498823Y697508D01*
X498884Y697517D01*
X498944Y697530D01*
X499003Y697547D01*
X499061Y697568D01*
X499118Y697592D01*
X499173Y697619D01*
X499226Y697650D01*
X499278Y697684D01*
X499327Y697721D01*
X499374Y697761D01*
X499418Y697804D01*
X499459Y697849D01*
X499498Y697897D01*
X499534Y697948D01*
X499566Y698000D01*
X499595Y698054D01*
X499621Y698110D01*
X499643Y698168D01*
X499662Y698226D01*
X499677Y698286D01*
X499688Y698347D01*
X499696Y698408D01*
X499700Y698469D01*
X499700Y698531D01*
X499696Y698592D01*
X499688Y698653D01*
X499677Y698714D01*
X499662Y698774D01*
X499643Y698832D01*
X499621Y698890D01*
X499595Y698946D01*
X499566Y699000D01*
X499534Y699052D01*
X499498Y699103D01*
X499459Y699151D01*
X499418Y699196D01*
X499374Y699239D01*
X499327Y699279D01*
X499278Y699316D01*
X499226Y699350D01*
X499173Y699381D01*
X499118Y699408D01*
X499061Y699432D01*
X499003Y699453D01*
X498944Y699470D01*
X498884Y699483D01*
X498823Y699492D01*
X498762Y699498D01*
X498700Y699500D01*
D16*
X570946Y696221D02*
X571045Y696219D01*
X571145Y696213D01*
X571244Y696204D01*
X571342Y696191D01*
X571440Y696174D01*
X571538Y696153D01*
X571634Y696128D01*
X571729Y696100D01*
X571823Y696068D01*
X571916Y696033D01*
X572008Y695994D01*
X572098Y695951D01*
X572186Y695906D01*
X572273Y695856D01*
X572357Y695804D01*
X572440Y695748D01*
X572520Y695690D01*
X572598Y695628D01*
X572673Y695563D01*
X572746Y695495D01*
X572816Y695425D01*
X572884Y695352D01*
X572949Y695277D01*
X573011Y695199D01*
X573069Y695119D01*
X573125Y695036D01*
X573177Y694952D01*
X573227Y694865D01*
X573272Y694777D01*
X573315Y694687D01*
X573354Y694595D01*
X573389Y694502D01*
X573421Y694408D01*
X573449Y694313D01*
X573474Y694217D01*
X573495Y694119D01*
X573512Y694021D01*
X573525Y693923D01*
X573534Y693824D01*
X573540Y693724D01*
X573542Y693625D01*
X573540Y693481D01*
X573534Y693336D01*
X573525Y693192D01*
X573512Y693049D01*
X573495Y692905D01*
X573474Y692762D01*
X573449Y692620D01*
X573421Y692479D01*
X573389Y692338D01*
X573353Y692198D01*
X573314Y692059D01*
X573271Y691921D01*
X573224Y691785D01*
X573174Y691649D01*
X573120Y691515D01*
X573063Y691383D01*
X573002Y691252D01*
X572938Y691123D01*
X572870Y690995D01*
X572800Y690869D01*
X572725Y690745D01*
X572648Y690624D01*
X572567Y690504D01*
X572484Y690386D01*
X572397Y690271D01*
X572307Y690158D01*
X572214Y690047D01*
X572119Y689939D01*
X572020Y689833D01*
X571919Y689730D01*
X564454Y690055D02*
X564355Y690057D01*
X564255Y690063D01*
X564156Y690072D01*
X564058Y690085D01*
X563960Y690102D01*
X563862Y690123D01*
X563766Y690148D01*
X563671Y690176D01*
X563577Y690208D01*
X563484Y690243D01*
X563392Y690282D01*
X563302Y690325D01*
X563214Y690370D01*
X563127Y690420D01*
X563043Y690472D01*
X562960Y690528D01*
X562880Y690586D01*
X562802Y690648D01*
X562727Y690713D01*
X562654Y690781D01*
X562584Y690851D01*
X562516Y690924D01*
X562451Y690999D01*
X562389Y691077D01*
X562331Y691157D01*
X562275Y691240D01*
X562223Y691324D01*
X562173Y691411D01*
X562128Y691499D01*
X562085Y691589D01*
X562046Y691681D01*
X562011Y691774D01*
X561979Y691868D01*
X561951Y691963D01*
X561926Y692059D01*
X561905Y692157D01*
X561888Y692255D01*
X561875Y692353D01*
X561866Y692452D01*
X561860Y692552D01*
X561858Y692651D01*
X561860Y692787D01*
X561866Y692923D01*
X561875Y693059D01*
X561888Y693195D01*
X561906Y693330D01*
X561926Y693464D01*
X561951Y693598D01*
X561979Y693732D01*
X562012Y693864D01*
X562047Y693995D01*
X562087Y694126D01*
X562130Y694255D01*
X562176Y694383D01*
X562227Y694509D01*
X562280Y694635D01*
X562338Y694758D01*
X562398Y694880D01*
X562462Y695000D01*
X562530Y695119D01*
X562600Y695235D01*
X562674Y695349D01*
X562751Y695462D01*
X562832Y695572D01*
X566726Y691352D02*
X566673Y691266D01*
X566616Y691182D01*
X566557Y691100D01*
X566494Y691020D01*
X566428Y690943D01*
X566360Y690868D01*
X566288Y690796D01*
X566214Y690727D01*
X566137Y690661D01*
X566058Y690598D01*
X565976Y690538D01*
X565892Y690481D01*
X565806Y690427D01*
X565718Y690377D01*
X565628Y690330D01*
X565537Y690286D01*
X565443Y690247D01*
X565349Y690210D01*
X565253Y690178D01*
X565155Y690149D01*
X565057Y690124D01*
X564958Y690103D01*
X564858Y690085D01*
X564758Y690072D01*
X564657Y690062D01*
X564555Y690056D01*
X564454Y690054D01*
X568674Y694923D02*
X568727Y695009D01*
X568784Y695093D01*
X568843Y695175D01*
X568906Y695255D01*
X568972Y695332D01*
X569040Y695407D01*
X569112Y695479D01*
X569186Y695548D01*
X569263Y695614D01*
X569342Y695677D01*
X569424Y695737D01*
X569508Y695794D01*
X569594Y695848D01*
X569682Y695898D01*
X569772Y695945D01*
X569863Y695989D01*
X569957Y696028D01*
X570051Y696065D01*
X570147Y696097D01*
X570245Y696126D01*
X570343Y696151D01*
X570442Y696172D01*
X570542Y696190D01*
X570642Y696203D01*
X570743Y696213D01*
X570845Y696219D01*
X570946Y696221D01*
X568674Y694923D02*
X566726Y691353D01*
X564454Y700779D02*
X561858Y704024D01*
X573542Y704024D01*
X573542Y700779D02*
X573542Y707270D01*
D13*
X889000Y615950D02*
X889000Y349250D01*
X685800Y349250D01*
X685800Y615950D02*
X889000Y615950D01*
X685800Y615950D02*
X685800Y349250D01*
D20*
X851154Y516258D02*
X858266Y516258D01*
X851154Y516258D02*
X851154Y518233D01*
X851156Y518320D01*
X851162Y518408D01*
X851171Y518495D01*
X851185Y518581D01*
X851202Y518667D01*
X851223Y518751D01*
X851248Y518835D01*
X851277Y518918D01*
X851309Y518999D01*
X851344Y519079D01*
X851383Y519157D01*
X851426Y519234D01*
X851472Y519308D01*
X851521Y519380D01*
X851573Y519450D01*
X851629Y519518D01*
X851687Y519583D01*
X851748Y519646D01*
X851812Y519705D01*
X851879Y519762D01*
X851947Y519816D01*
X852019Y519867D01*
X852092Y519914D01*
X852167Y519959D01*
X852245Y520000D01*
X852324Y520037D01*
X852404Y520071D01*
X852486Y520101D01*
X852569Y520128D01*
X852654Y520151D01*
X852739Y520170D01*
X852825Y520185D01*
X852912Y520197D01*
X852999Y520205D01*
X853086Y520209D01*
X853174Y520209D01*
X853261Y520205D01*
X853348Y520197D01*
X853435Y520185D01*
X853521Y520170D01*
X853606Y520151D01*
X853691Y520128D01*
X853774Y520101D01*
X853856Y520071D01*
X853936Y520037D01*
X854015Y520000D01*
X854093Y519959D01*
X854168Y519914D01*
X854241Y519867D01*
X854313Y519816D01*
X854381Y519762D01*
X854448Y519705D01*
X854512Y519646D01*
X854573Y519583D01*
X854631Y519518D01*
X854687Y519450D01*
X854739Y519380D01*
X854788Y519308D01*
X854834Y519234D01*
X854877Y519157D01*
X854916Y519079D01*
X854951Y518999D01*
X854983Y518918D01*
X855012Y518835D01*
X855037Y518751D01*
X855058Y518667D01*
X855075Y518581D01*
X855089Y518495D01*
X855098Y518408D01*
X855104Y518320D01*
X855106Y518233D01*
X855105Y518233D02*
X855105Y516258D01*
X858266Y524936D02*
X858264Y525014D01*
X858258Y525091D01*
X858249Y525168D01*
X858236Y525244D01*
X858219Y525320D01*
X858198Y525395D01*
X858174Y525468D01*
X858146Y525541D01*
X858114Y525612D01*
X858079Y525681D01*
X858041Y525748D01*
X858000Y525814D01*
X857955Y525877D01*
X857907Y525938D01*
X857857Y525997D01*
X857803Y526053D01*
X857747Y526107D01*
X857688Y526157D01*
X857627Y526205D01*
X857564Y526250D01*
X857498Y526291D01*
X857431Y526329D01*
X857362Y526364D01*
X857291Y526396D01*
X857218Y526424D01*
X857145Y526448D01*
X857070Y526469D01*
X856994Y526486D01*
X856918Y526499D01*
X856841Y526508D01*
X856764Y526514D01*
X856686Y526516D01*
X858266Y524936D02*
X858264Y524821D01*
X858258Y524707D01*
X858248Y524593D01*
X858235Y524479D01*
X858217Y524366D01*
X858195Y524253D01*
X858170Y524141D01*
X858141Y524031D01*
X858108Y523921D01*
X858071Y523812D01*
X858031Y523705D01*
X857987Y523599D01*
X857939Y523495D01*
X857888Y523392D01*
X857833Y523292D01*
X857775Y523193D01*
X857713Y523096D01*
X857649Y523002D01*
X857581Y522909D01*
X857509Y522819D01*
X857435Y522732D01*
X857358Y522647D01*
X857278Y522565D01*
X852734Y522764D02*
X852656Y522766D01*
X852579Y522772D01*
X852502Y522781D01*
X852426Y522794D01*
X852350Y522811D01*
X852275Y522832D01*
X852202Y522856D01*
X852129Y522884D01*
X852058Y522916D01*
X851989Y522951D01*
X851922Y522989D01*
X851856Y523030D01*
X851793Y523075D01*
X851732Y523123D01*
X851673Y523173D01*
X851617Y523227D01*
X851563Y523283D01*
X851513Y523342D01*
X851465Y523403D01*
X851420Y523466D01*
X851379Y523532D01*
X851341Y523599D01*
X851306Y523668D01*
X851274Y523739D01*
X851246Y523812D01*
X851222Y523885D01*
X851201Y523960D01*
X851184Y524036D01*
X851171Y524112D01*
X851162Y524189D01*
X851156Y524266D01*
X851154Y524344D01*
X851156Y524450D01*
X851162Y524556D01*
X851171Y524661D01*
X851184Y524766D01*
X851201Y524871D01*
X851222Y524975D01*
X851246Y525078D01*
X851274Y525180D01*
X851306Y525281D01*
X851341Y525381D01*
X851380Y525479D01*
X851423Y525577D01*
X851468Y525672D01*
X851517Y525766D01*
X851570Y525858D01*
X851626Y525948D01*
X851685Y526036D01*
X851747Y526122D01*
X854117Y523553D02*
X854075Y523486D01*
X854030Y523421D01*
X853981Y523358D01*
X853930Y523297D01*
X853875Y523240D01*
X853818Y523185D01*
X853758Y523132D01*
X853696Y523083D01*
X853631Y523037D01*
X853565Y522995D01*
X853496Y522955D01*
X853425Y522919D01*
X853352Y522887D01*
X853278Y522858D01*
X853203Y522833D01*
X853127Y522812D01*
X853049Y522794D01*
X852971Y522781D01*
X852892Y522771D01*
X852813Y522765D01*
X852734Y522763D01*
X855303Y525727D02*
X855345Y525794D01*
X855390Y525859D01*
X855439Y525922D01*
X855490Y525983D01*
X855545Y526040D01*
X855602Y526095D01*
X855662Y526148D01*
X855724Y526197D01*
X855789Y526243D01*
X855855Y526285D01*
X855924Y526325D01*
X855995Y526361D01*
X856068Y526393D01*
X856142Y526422D01*
X856217Y526447D01*
X856293Y526468D01*
X856371Y526486D01*
X856449Y526499D01*
X856528Y526509D01*
X856607Y526515D01*
X856686Y526517D01*
X855303Y525726D02*
X854117Y523553D01*
X854710Y529195D02*
X854562Y529197D01*
X854415Y529202D01*
X854267Y529212D01*
X854120Y529225D01*
X853973Y529241D01*
X853827Y529262D01*
X853682Y529286D01*
X853536Y529314D01*
X853392Y529345D01*
X853249Y529380D01*
X853106Y529419D01*
X852965Y529461D01*
X852824Y529507D01*
X852685Y529556D01*
X852547Y529609D01*
X852410Y529665D01*
X852275Y529725D01*
X852142Y529788D01*
X852142Y529787D02*
X852071Y529813D01*
X852002Y529843D01*
X851934Y529877D01*
X851868Y529914D01*
X851804Y529954D01*
X851742Y529998D01*
X851683Y530044D01*
X851626Y530094D01*
X851572Y530147D01*
X851520Y530202D01*
X851472Y530260D01*
X851426Y530320D01*
X851384Y530383D01*
X851345Y530448D01*
X851309Y530514D01*
X851277Y530583D01*
X851249Y530652D01*
X851224Y530724D01*
X851203Y530796D01*
X851185Y530870D01*
X851172Y530944D01*
X851162Y531019D01*
X851156Y531094D01*
X851154Y531170D01*
X851156Y531246D01*
X851162Y531321D01*
X851172Y531396D01*
X851185Y531470D01*
X851203Y531544D01*
X851224Y531616D01*
X851249Y531688D01*
X851277Y531757D01*
X851309Y531826D01*
X851345Y531892D01*
X851384Y531957D01*
X851426Y532020D01*
X851472Y532080D01*
X851520Y532138D01*
X851572Y532193D01*
X851626Y532246D01*
X851683Y532296D01*
X851742Y532342D01*
X851804Y532386D01*
X851868Y532426D01*
X851934Y532463D01*
X852002Y532497D01*
X852071Y532527D01*
X852142Y532553D01*
X852275Y532616D01*
X852410Y532676D01*
X852547Y532732D01*
X852685Y532785D01*
X852824Y532834D01*
X852965Y532880D01*
X853106Y532922D01*
X853249Y532961D01*
X853392Y532996D01*
X853536Y533027D01*
X853682Y533055D01*
X853827Y533079D01*
X853973Y533100D01*
X854120Y533116D01*
X854267Y533129D01*
X854415Y533139D01*
X854562Y533144D01*
X854710Y533146D01*
X854710Y529195D02*
X854858Y529197D01*
X855005Y529202D01*
X855153Y529212D01*
X855300Y529225D01*
X855447Y529241D01*
X855593Y529262D01*
X855738Y529286D01*
X855884Y529314D01*
X856028Y529345D01*
X856171Y529380D01*
X856314Y529419D01*
X856455Y529461D01*
X856596Y529507D01*
X856735Y529556D01*
X856873Y529609D01*
X857010Y529665D01*
X857145Y529725D01*
X857278Y529788D01*
X857278Y529787D02*
X857349Y529813D01*
X857418Y529843D01*
X857486Y529877D01*
X857552Y529914D01*
X857616Y529954D01*
X857678Y529998D01*
X857737Y530044D01*
X857794Y530094D01*
X857848Y530147D01*
X857900Y530202D01*
X857948Y530260D01*
X857994Y530320D01*
X858036Y530383D01*
X858075Y530448D01*
X858111Y530514D01*
X858143Y530583D01*
X858171Y530653D01*
X858196Y530724D01*
X858217Y530796D01*
X858235Y530870D01*
X858248Y530944D01*
X858258Y531019D01*
X858264Y531094D01*
X858266Y531170D01*
X857278Y532553D02*
X857145Y532616D01*
X857010Y532676D01*
X856873Y532732D01*
X856735Y532785D01*
X856596Y532834D01*
X856455Y532880D01*
X856314Y532922D01*
X856171Y532961D01*
X856028Y532996D01*
X855884Y533027D01*
X855738Y533055D01*
X855593Y533079D01*
X855447Y533100D01*
X855300Y533116D01*
X855153Y533129D01*
X855005Y533139D01*
X854858Y533144D01*
X854710Y533146D01*
X857278Y532553D02*
X857349Y532527D01*
X857418Y532497D01*
X857486Y532463D01*
X857552Y532426D01*
X857616Y532386D01*
X857678Y532342D01*
X857737Y532296D01*
X857794Y532246D01*
X857848Y532193D01*
X857900Y532138D01*
X857948Y532080D01*
X857994Y532020D01*
X858036Y531957D01*
X858075Y531892D01*
X858111Y531826D01*
X858143Y531757D01*
X858171Y531687D01*
X858196Y531616D01*
X858217Y531544D01*
X858235Y531470D01*
X858248Y531396D01*
X858258Y531321D01*
X858264Y531246D01*
X858266Y531170D01*
X856686Y529590D02*
X852734Y532751D01*
X851154Y490858D02*
X858266Y490858D01*
X851154Y490858D02*
X851154Y492833D01*
X851156Y492920D01*
X851162Y493008D01*
X851171Y493095D01*
X851185Y493181D01*
X851202Y493267D01*
X851223Y493351D01*
X851248Y493435D01*
X851277Y493518D01*
X851309Y493599D01*
X851344Y493679D01*
X851383Y493757D01*
X851426Y493834D01*
X851472Y493908D01*
X851521Y493980D01*
X851573Y494050D01*
X851629Y494118D01*
X851687Y494183D01*
X851748Y494246D01*
X851812Y494305D01*
X851879Y494362D01*
X851947Y494416D01*
X852019Y494467D01*
X852092Y494514D01*
X852167Y494559D01*
X852245Y494600D01*
X852324Y494637D01*
X852404Y494671D01*
X852486Y494701D01*
X852569Y494728D01*
X852654Y494751D01*
X852739Y494770D01*
X852825Y494785D01*
X852912Y494797D01*
X852999Y494805D01*
X853086Y494809D01*
X853174Y494809D01*
X853261Y494805D01*
X853348Y494797D01*
X853435Y494785D01*
X853521Y494770D01*
X853606Y494751D01*
X853691Y494728D01*
X853774Y494701D01*
X853856Y494671D01*
X853936Y494637D01*
X854015Y494600D01*
X854093Y494559D01*
X854168Y494514D01*
X854241Y494467D01*
X854313Y494416D01*
X854381Y494362D01*
X854448Y494305D01*
X854512Y494246D01*
X854573Y494183D01*
X854631Y494118D01*
X854687Y494050D01*
X854739Y493980D01*
X854788Y493908D01*
X854834Y493834D01*
X854877Y493757D01*
X854916Y493679D01*
X854951Y493599D01*
X854983Y493518D01*
X855012Y493435D01*
X855037Y493351D01*
X855058Y493267D01*
X855075Y493181D01*
X855089Y493095D01*
X855098Y493008D01*
X855104Y492920D01*
X855106Y492833D01*
X855105Y492833D02*
X855105Y490858D01*
X858266Y499536D02*
X858264Y499614D01*
X858258Y499691D01*
X858249Y499768D01*
X858236Y499844D01*
X858219Y499920D01*
X858198Y499995D01*
X858174Y500068D01*
X858146Y500141D01*
X858114Y500212D01*
X858079Y500281D01*
X858041Y500348D01*
X858000Y500414D01*
X857955Y500477D01*
X857907Y500538D01*
X857857Y500597D01*
X857803Y500653D01*
X857747Y500707D01*
X857688Y500757D01*
X857627Y500805D01*
X857564Y500850D01*
X857498Y500891D01*
X857431Y500929D01*
X857362Y500964D01*
X857291Y500996D01*
X857218Y501024D01*
X857145Y501048D01*
X857070Y501069D01*
X856994Y501086D01*
X856918Y501099D01*
X856841Y501108D01*
X856764Y501114D01*
X856686Y501116D01*
X858266Y499536D02*
X858264Y499421D01*
X858258Y499307D01*
X858248Y499193D01*
X858235Y499079D01*
X858217Y498966D01*
X858195Y498853D01*
X858170Y498741D01*
X858141Y498631D01*
X858108Y498521D01*
X858071Y498412D01*
X858031Y498305D01*
X857987Y498199D01*
X857939Y498095D01*
X857888Y497992D01*
X857833Y497892D01*
X857775Y497793D01*
X857713Y497696D01*
X857649Y497602D01*
X857581Y497509D01*
X857509Y497419D01*
X857435Y497332D01*
X857358Y497247D01*
X857278Y497165D01*
X852734Y497364D02*
X852656Y497366D01*
X852579Y497372D01*
X852502Y497381D01*
X852426Y497394D01*
X852350Y497411D01*
X852275Y497432D01*
X852202Y497456D01*
X852129Y497484D01*
X852058Y497516D01*
X851989Y497551D01*
X851922Y497589D01*
X851856Y497630D01*
X851793Y497675D01*
X851732Y497723D01*
X851673Y497773D01*
X851617Y497827D01*
X851563Y497883D01*
X851513Y497942D01*
X851465Y498003D01*
X851420Y498066D01*
X851379Y498132D01*
X851341Y498199D01*
X851306Y498268D01*
X851274Y498339D01*
X851246Y498412D01*
X851222Y498485D01*
X851201Y498560D01*
X851184Y498636D01*
X851171Y498712D01*
X851162Y498789D01*
X851156Y498866D01*
X851154Y498944D01*
X851156Y499050D01*
X851162Y499156D01*
X851171Y499261D01*
X851184Y499366D01*
X851201Y499471D01*
X851222Y499575D01*
X851246Y499678D01*
X851274Y499780D01*
X851306Y499881D01*
X851341Y499981D01*
X851380Y500079D01*
X851423Y500177D01*
X851468Y500272D01*
X851517Y500366D01*
X851570Y500458D01*
X851626Y500548D01*
X851685Y500636D01*
X851747Y500722D01*
X854117Y498153D02*
X854075Y498086D01*
X854030Y498021D01*
X853981Y497958D01*
X853930Y497897D01*
X853875Y497840D01*
X853818Y497785D01*
X853758Y497732D01*
X853696Y497683D01*
X853631Y497637D01*
X853565Y497595D01*
X853496Y497555D01*
X853425Y497519D01*
X853352Y497487D01*
X853278Y497458D01*
X853203Y497433D01*
X853127Y497412D01*
X853049Y497394D01*
X852971Y497381D01*
X852892Y497371D01*
X852813Y497365D01*
X852734Y497363D01*
X855303Y500327D02*
X855345Y500394D01*
X855390Y500459D01*
X855439Y500522D01*
X855490Y500583D01*
X855545Y500640D01*
X855602Y500695D01*
X855662Y500748D01*
X855724Y500797D01*
X855789Y500843D01*
X855855Y500885D01*
X855924Y500925D01*
X855995Y500961D01*
X856068Y500993D01*
X856142Y501022D01*
X856217Y501047D01*
X856293Y501068D01*
X856371Y501086D01*
X856449Y501099D01*
X856528Y501109D01*
X856607Y501115D01*
X856686Y501117D01*
X855303Y500326D02*
X854117Y498153D01*
X852734Y503795D02*
X851154Y505770D01*
X858266Y505770D01*
X858266Y503795D02*
X858266Y507746D01*
X858266Y468026D02*
X851154Y468026D01*
X858266Y467236D02*
X858266Y468816D01*
X851154Y468816D02*
X851154Y467236D01*
X851154Y471766D02*
X858266Y471766D01*
X858266Y475717D02*
X851154Y471766D01*
X851154Y475717D02*
X858266Y475717D01*
X858266Y480370D02*
X851154Y480370D01*
X851154Y478395D02*
X851154Y482346D01*
X851154Y427828D02*
X858266Y425458D01*
X858266Y430199D02*
X851154Y427828D01*
X856488Y429606D02*
X856488Y426050D01*
X858266Y432939D02*
X851154Y432939D01*
X851154Y434915D01*
X851156Y435001D01*
X851162Y435087D01*
X851171Y435173D01*
X851184Y435258D01*
X851201Y435343D01*
X851221Y435426D01*
X851245Y435509D01*
X851273Y435591D01*
X851304Y435671D01*
X851339Y435750D01*
X851377Y435827D01*
X851419Y435903D01*
X851463Y435977D01*
X851511Y436048D01*
X851562Y436118D01*
X851616Y436185D01*
X851673Y436250D01*
X851733Y436312D01*
X851795Y436372D01*
X851860Y436429D01*
X851927Y436483D01*
X851997Y436534D01*
X852068Y436582D01*
X852142Y436626D01*
X852218Y436668D01*
X852295Y436706D01*
X852374Y436741D01*
X852454Y436772D01*
X852536Y436800D01*
X852619Y436824D01*
X852702Y436844D01*
X852787Y436861D01*
X852872Y436874D01*
X852958Y436883D01*
X853044Y436889D01*
X853130Y436891D01*
X853130Y436890D02*
X856290Y436890D01*
X856290Y436891D02*
X856376Y436889D01*
X856462Y436883D01*
X856548Y436874D01*
X856633Y436861D01*
X856718Y436844D01*
X856801Y436824D01*
X856884Y436800D01*
X856966Y436772D01*
X857046Y436741D01*
X857125Y436706D01*
X857202Y436668D01*
X857278Y436626D01*
X857352Y436582D01*
X857423Y436534D01*
X857493Y436483D01*
X857560Y436429D01*
X857625Y436372D01*
X857687Y436312D01*
X857747Y436250D01*
X857804Y436185D01*
X857858Y436118D01*
X857909Y436048D01*
X857957Y435977D01*
X858001Y435903D01*
X858043Y435827D01*
X858081Y435750D01*
X858116Y435671D01*
X858147Y435591D01*
X858175Y435509D01*
X858199Y435426D01*
X858219Y435343D01*
X858236Y435258D01*
X858249Y435173D01*
X858258Y435087D01*
X858264Y435001D01*
X858266Y434915D01*
X858266Y432939D01*
X858266Y440295D02*
X851154Y440295D01*
X851154Y442270D01*
X851156Y442357D01*
X851162Y442445D01*
X851171Y442532D01*
X851185Y442618D01*
X851202Y442704D01*
X851223Y442788D01*
X851248Y442872D01*
X851277Y442955D01*
X851309Y443036D01*
X851344Y443116D01*
X851383Y443194D01*
X851426Y443271D01*
X851472Y443345D01*
X851521Y443417D01*
X851573Y443487D01*
X851629Y443555D01*
X851687Y443620D01*
X851748Y443683D01*
X851812Y443742D01*
X851879Y443799D01*
X851947Y443853D01*
X852019Y443904D01*
X852092Y443951D01*
X852167Y443996D01*
X852245Y444037D01*
X852324Y444074D01*
X852404Y444108D01*
X852486Y444138D01*
X852569Y444165D01*
X852654Y444188D01*
X852739Y444207D01*
X852825Y444222D01*
X852912Y444234D01*
X852999Y444242D01*
X853086Y444246D01*
X853174Y444246D01*
X853261Y444242D01*
X853348Y444234D01*
X853435Y444222D01*
X853521Y444207D01*
X853606Y444188D01*
X853691Y444165D01*
X853774Y444138D01*
X853856Y444108D01*
X853936Y444074D01*
X854015Y444037D01*
X854093Y443996D01*
X854168Y443951D01*
X854241Y443904D01*
X854313Y443853D01*
X854381Y443799D01*
X854448Y443742D01*
X854512Y443683D01*
X854573Y443620D01*
X854631Y443555D01*
X854687Y443487D01*
X854739Y443417D01*
X854788Y443345D01*
X854834Y443271D01*
X854877Y443194D01*
X854916Y443116D01*
X854951Y443036D01*
X854983Y442955D01*
X855012Y442872D01*
X855037Y442788D01*
X855058Y442704D01*
X855075Y442618D01*
X855089Y442532D01*
X855098Y442445D01*
X855104Y442357D01*
X855106Y442270D01*
X855105Y442270D02*
X855105Y440295D01*
X855105Y442666D02*
X858266Y444246D01*
X718566Y547593D02*
X711454Y545222D01*
X711454Y549964D02*
X718566Y547593D01*
X718566Y552394D02*
X713825Y552394D01*
X711849Y552196D02*
X711454Y552196D01*
X711454Y552591D01*
X711849Y552591D01*
X711849Y552196D01*
X713825Y555385D02*
X718566Y555385D01*
X713825Y555385D02*
X713825Y557361D01*
X713827Y557427D01*
X713832Y557494D01*
X713842Y557559D01*
X713855Y557625D01*
X713871Y557689D01*
X713891Y557752D01*
X713915Y557814D01*
X713942Y557875D01*
X713973Y557934D01*
X714007Y557991D01*
X714044Y558047D01*
X714084Y558100D01*
X714126Y558151D01*
X714172Y558199D01*
X714220Y558245D01*
X714271Y558287D01*
X714324Y558327D01*
X714380Y558364D01*
X714437Y558398D01*
X714496Y558429D01*
X714556Y558456D01*
X714619Y558479D01*
X714682Y558500D01*
X714746Y558516D01*
X714811Y558529D01*
X714877Y558539D01*
X714944Y558544D01*
X715010Y558546D01*
X718566Y558546D01*
X718566Y518826D02*
X718566Y516851D01*
X718566Y518826D02*
X718564Y518913D01*
X718558Y519001D01*
X718549Y519088D01*
X718535Y519174D01*
X718518Y519260D01*
X718497Y519344D01*
X718472Y519428D01*
X718443Y519511D01*
X718411Y519592D01*
X718376Y519672D01*
X718337Y519750D01*
X718294Y519827D01*
X718248Y519901D01*
X718199Y519973D01*
X718147Y520043D01*
X718091Y520111D01*
X718033Y520176D01*
X717972Y520239D01*
X717908Y520298D01*
X717841Y520355D01*
X717773Y520409D01*
X717701Y520460D01*
X717628Y520507D01*
X717553Y520552D01*
X717475Y520593D01*
X717396Y520630D01*
X717316Y520664D01*
X717234Y520694D01*
X717151Y520721D01*
X717066Y520744D01*
X716981Y520763D01*
X716895Y520778D01*
X716808Y520790D01*
X716721Y520798D01*
X716634Y520802D01*
X716546Y520802D01*
X716459Y520798D01*
X716372Y520790D01*
X716285Y520778D01*
X716199Y520763D01*
X716114Y520744D01*
X716029Y520721D01*
X715946Y520694D01*
X715864Y520664D01*
X715784Y520630D01*
X715705Y520593D01*
X715627Y520552D01*
X715552Y520507D01*
X715479Y520460D01*
X715407Y520409D01*
X715339Y520355D01*
X715272Y520298D01*
X715208Y520239D01*
X715147Y520176D01*
X715089Y520111D01*
X715033Y520043D01*
X714981Y519973D01*
X714932Y519901D01*
X714886Y519827D01*
X714843Y519750D01*
X714804Y519672D01*
X714769Y519592D01*
X714737Y519511D01*
X714708Y519428D01*
X714683Y519344D01*
X714662Y519260D01*
X714645Y519174D01*
X714631Y519088D01*
X714622Y519001D01*
X714616Y518913D01*
X714614Y518826D01*
X711454Y519221D02*
X711454Y516851D01*
X711454Y519221D02*
X711456Y519300D01*
X711462Y519378D01*
X711472Y519456D01*
X711485Y519534D01*
X711503Y519611D01*
X711524Y519687D01*
X711549Y519761D01*
X711578Y519835D01*
X711610Y519907D01*
X711646Y519977D01*
X711686Y520045D01*
X711729Y520111D01*
X711775Y520175D01*
X711824Y520237D01*
X711876Y520296D01*
X711931Y520352D01*
X711989Y520406D01*
X712049Y520456D01*
X712112Y520504D01*
X712177Y520548D01*
X712244Y520589D01*
X712313Y520627D01*
X712384Y520661D01*
X712457Y520692D01*
X712531Y520719D01*
X712606Y520742D01*
X712682Y520761D01*
X712760Y520777D01*
X712838Y520789D01*
X712916Y520797D01*
X712995Y520801D01*
X713073Y520801D01*
X713152Y520797D01*
X713230Y520789D01*
X713308Y520777D01*
X713386Y520761D01*
X713462Y520742D01*
X713537Y520719D01*
X713611Y520692D01*
X713684Y520661D01*
X713755Y520627D01*
X713824Y520589D01*
X713891Y520548D01*
X713956Y520504D01*
X714019Y520456D01*
X714079Y520406D01*
X714137Y520352D01*
X714192Y520296D01*
X714244Y520237D01*
X714293Y520175D01*
X714339Y520111D01*
X714382Y520045D01*
X714422Y519977D01*
X714458Y519907D01*
X714490Y519835D01*
X714519Y519761D01*
X714544Y519687D01*
X714565Y519611D01*
X714583Y519534D01*
X714596Y519456D01*
X714606Y519378D01*
X714612Y519300D01*
X714614Y519221D01*
X714615Y519221D02*
X714615Y517641D01*
X713825Y523418D02*
X718566Y524998D01*
X713825Y526579D01*
X718566Y529195D02*
X718566Y531170D01*
X718564Y531257D01*
X718558Y531345D01*
X718549Y531432D01*
X718535Y531518D01*
X718518Y531604D01*
X718497Y531688D01*
X718472Y531772D01*
X718443Y531855D01*
X718411Y531936D01*
X718376Y532016D01*
X718337Y532094D01*
X718294Y532171D01*
X718248Y532245D01*
X718199Y532317D01*
X718147Y532387D01*
X718091Y532455D01*
X718033Y532520D01*
X717972Y532583D01*
X717908Y532642D01*
X717841Y532699D01*
X717773Y532753D01*
X717701Y532804D01*
X717628Y532851D01*
X717553Y532896D01*
X717475Y532937D01*
X717396Y532974D01*
X717316Y533008D01*
X717234Y533038D01*
X717151Y533065D01*
X717066Y533088D01*
X716981Y533107D01*
X716895Y533122D01*
X716808Y533134D01*
X716721Y533142D01*
X716634Y533146D01*
X716546Y533146D01*
X716459Y533142D01*
X716372Y533134D01*
X716285Y533122D01*
X716199Y533107D01*
X716114Y533088D01*
X716029Y533065D01*
X715946Y533038D01*
X715864Y533008D01*
X715784Y532974D01*
X715705Y532937D01*
X715627Y532896D01*
X715552Y532851D01*
X715479Y532804D01*
X715407Y532753D01*
X715339Y532699D01*
X715272Y532642D01*
X715208Y532583D01*
X715147Y532520D01*
X715089Y532455D01*
X715033Y532387D01*
X714981Y532317D01*
X714932Y532245D01*
X714886Y532171D01*
X714843Y532094D01*
X714804Y532016D01*
X714769Y531936D01*
X714737Y531855D01*
X714708Y531772D01*
X714683Y531688D01*
X714662Y531604D01*
X714645Y531518D01*
X714631Y531432D01*
X714622Y531345D01*
X714616Y531257D01*
X714614Y531170D01*
X711454Y531566D02*
X711454Y529195D01*
X711454Y531566D02*
X711456Y531645D01*
X711462Y531723D01*
X711472Y531801D01*
X711485Y531879D01*
X711503Y531956D01*
X711524Y532032D01*
X711549Y532106D01*
X711578Y532180D01*
X711610Y532252D01*
X711646Y532322D01*
X711686Y532390D01*
X711729Y532456D01*
X711775Y532520D01*
X711824Y532582D01*
X711876Y532641D01*
X711931Y532697D01*
X711989Y532751D01*
X712049Y532801D01*
X712112Y532849D01*
X712177Y532893D01*
X712244Y532934D01*
X712313Y532972D01*
X712384Y533006D01*
X712457Y533037D01*
X712531Y533064D01*
X712606Y533087D01*
X712682Y533106D01*
X712760Y533122D01*
X712838Y533134D01*
X712916Y533142D01*
X712995Y533146D01*
X713073Y533146D01*
X713152Y533142D01*
X713230Y533134D01*
X713308Y533122D01*
X713386Y533106D01*
X713462Y533087D01*
X713537Y533064D01*
X713611Y533037D01*
X713684Y533006D01*
X713755Y532972D01*
X713824Y532934D01*
X713891Y532893D01*
X713956Y532849D01*
X714019Y532801D01*
X714079Y532751D01*
X714137Y532697D01*
X714192Y532641D01*
X714244Y532582D01*
X714293Y532520D01*
X714339Y532456D01*
X714382Y532390D01*
X714422Y532322D01*
X714458Y532252D01*
X714490Y532180D01*
X714519Y532106D01*
X714544Y532032D01*
X714565Y531956D01*
X714583Y531879D01*
X714596Y531801D01*
X714606Y531723D01*
X714612Y531645D01*
X714614Y531566D01*
X714615Y531566D02*
X714615Y529985D01*
X714615Y493116D02*
X714615Y491930D01*
X714615Y493116D02*
X718566Y493116D01*
X718566Y490745D01*
X718564Y490667D01*
X718558Y490590D01*
X718549Y490513D01*
X718536Y490437D01*
X718519Y490361D01*
X718498Y490286D01*
X718474Y490213D01*
X718446Y490140D01*
X718414Y490069D01*
X718379Y490000D01*
X718341Y489933D01*
X718300Y489867D01*
X718255Y489804D01*
X718207Y489743D01*
X718157Y489684D01*
X718103Y489628D01*
X718047Y489574D01*
X717988Y489524D01*
X717927Y489476D01*
X717864Y489431D01*
X717798Y489390D01*
X717731Y489352D01*
X717662Y489317D01*
X717591Y489285D01*
X717518Y489257D01*
X717445Y489233D01*
X717370Y489212D01*
X717294Y489195D01*
X717218Y489182D01*
X717141Y489173D01*
X717064Y489167D01*
X716986Y489165D01*
X713034Y489165D01*
X713034Y489164D02*
X712956Y489166D01*
X712879Y489172D01*
X712802Y489181D01*
X712726Y489194D01*
X712650Y489211D01*
X712575Y489232D01*
X712501Y489256D01*
X712429Y489284D01*
X712358Y489316D01*
X712289Y489351D01*
X712221Y489389D01*
X712156Y489430D01*
X712092Y489475D01*
X712031Y489523D01*
X711972Y489574D01*
X711916Y489627D01*
X711863Y489683D01*
X711812Y489742D01*
X711764Y489803D01*
X711719Y489867D01*
X711678Y489932D01*
X711640Y490000D01*
X711605Y490069D01*
X711573Y490140D01*
X711545Y490212D01*
X711521Y490286D01*
X711500Y490361D01*
X711483Y490437D01*
X711470Y490513D01*
X711461Y490590D01*
X711455Y490667D01*
X711453Y490745D01*
X711454Y490745D02*
X711454Y493116D01*
X711454Y496480D02*
X718566Y496480D01*
X718566Y500431D02*
X711454Y496480D01*
X711454Y500431D02*
X718566Y500431D01*
X718566Y503795D02*
X711454Y503795D01*
X711454Y505770D01*
X711456Y505856D01*
X711462Y505942D01*
X711471Y506028D01*
X711484Y506113D01*
X711501Y506198D01*
X711521Y506281D01*
X711545Y506364D01*
X711573Y506446D01*
X711604Y506526D01*
X711639Y506605D01*
X711677Y506682D01*
X711719Y506758D01*
X711763Y506832D01*
X711811Y506903D01*
X711862Y506973D01*
X711916Y507040D01*
X711973Y507105D01*
X712033Y507167D01*
X712095Y507227D01*
X712160Y507284D01*
X712227Y507338D01*
X712297Y507389D01*
X712368Y507437D01*
X712442Y507481D01*
X712518Y507523D01*
X712595Y507561D01*
X712674Y507596D01*
X712754Y507627D01*
X712836Y507655D01*
X712919Y507679D01*
X713002Y507699D01*
X713087Y507716D01*
X713172Y507729D01*
X713258Y507738D01*
X713344Y507744D01*
X713430Y507746D01*
X716590Y507746D01*
X716676Y507744D01*
X716762Y507738D01*
X716848Y507729D01*
X716933Y507716D01*
X717018Y507699D01*
X717101Y507679D01*
X717184Y507655D01*
X717266Y507627D01*
X717346Y507596D01*
X717425Y507561D01*
X717502Y507523D01*
X717578Y507481D01*
X717652Y507437D01*
X717723Y507389D01*
X717793Y507338D01*
X717860Y507284D01*
X717925Y507227D01*
X717987Y507167D01*
X718047Y507105D01*
X718104Y507040D01*
X718158Y506973D01*
X718209Y506903D01*
X718257Y506832D01*
X718301Y506758D01*
X718343Y506682D01*
X718381Y506605D01*
X718416Y506526D01*
X718447Y506446D01*
X718475Y506364D01*
X718499Y506281D01*
X718519Y506198D01*
X718536Y506113D01*
X718549Y506028D01*
X718558Y505942D01*
X718564Y505856D01*
X718566Y505770D01*
X718566Y503795D01*
X716986Y468006D02*
X717064Y468004D01*
X717141Y467998D01*
X717218Y467989D01*
X717294Y467976D01*
X717370Y467959D01*
X717445Y467938D01*
X717518Y467914D01*
X717591Y467886D01*
X717662Y467854D01*
X717731Y467819D01*
X717798Y467781D01*
X717864Y467740D01*
X717927Y467695D01*
X717988Y467647D01*
X718047Y467597D01*
X718103Y467543D01*
X718157Y467487D01*
X718207Y467428D01*
X718255Y467367D01*
X718300Y467304D01*
X718341Y467238D01*
X718379Y467171D01*
X718414Y467102D01*
X718446Y467031D01*
X718474Y466958D01*
X718498Y466885D01*
X718519Y466810D01*
X718536Y466734D01*
X718549Y466658D01*
X718558Y466581D01*
X718564Y466504D01*
X718566Y466426D01*
X718564Y466311D01*
X718558Y466197D01*
X718548Y466083D01*
X718535Y465969D01*
X718517Y465856D01*
X718495Y465743D01*
X718470Y465631D01*
X718441Y465521D01*
X718408Y465411D01*
X718371Y465302D01*
X718331Y465195D01*
X718287Y465089D01*
X718239Y464985D01*
X718188Y464882D01*
X718133Y464782D01*
X718075Y464683D01*
X718013Y464586D01*
X717949Y464492D01*
X717881Y464399D01*
X717809Y464309D01*
X717735Y464222D01*
X717658Y464137D01*
X717578Y464055D01*
X713034Y464253D02*
X712956Y464255D01*
X712879Y464261D01*
X712802Y464270D01*
X712726Y464283D01*
X712650Y464300D01*
X712575Y464321D01*
X712502Y464345D01*
X712429Y464373D01*
X712358Y464405D01*
X712289Y464440D01*
X712222Y464478D01*
X712156Y464519D01*
X712093Y464564D01*
X712032Y464612D01*
X711973Y464662D01*
X711917Y464716D01*
X711863Y464772D01*
X711813Y464831D01*
X711765Y464892D01*
X711720Y464955D01*
X711679Y465021D01*
X711641Y465088D01*
X711606Y465157D01*
X711574Y465228D01*
X711546Y465301D01*
X711522Y465374D01*
X711501Y465449D01*
X711484Y465525D01*
X711471Y465601D01*
X711462Y465678D01*
X711456Y465755D01*
X711454Y465833D01*
X711456Y465939D01*
X711462Y466045D01*
X711471Y466150D01*
X711484Y466255D01*
X711501Y466360D01*
X711522Y466464D01*
X711546Y466567D01*
X711574Y466669D01*
X711606Y466770D01*
X711641Y466870D01*
X711680Y466968D01*
X711723Y467066D01*
X711768Y467161D01*
X711817Y467255D01*
X711870Y467347D01*
X711926Y467437D01*
X711985Y467525D01*
X712047Y467611D01*
X714417Y465043D02*
X714375Y464976D01*
X714330Y464911D01*
X714281Y464848D01*
X714230Y464787D01*
X714175Y464730D01*
X714118Y464675D01*
X714058Y464622D01*
X713996Y464573D01*
X713931Y464527D01*
X713865Y464485D01*
X713796Y464445D01*
X713725Y464409D01*
X713652Y464377D01*
X713578Y464348D01*
X713503Y464323D01*
X713427Y464302D01*
X713349Y464284D01*
X713271Y464271D01*
X713192Y464261D01*
X713113Y464255D01*
X713034Y464253D01*
X715603Y467216D02*
X715645Y467283D01*
X715690Y467348D01*
X715739Y467411D01*
X715790Y467472D01*
X715845Y467529D01*
X715902Y467584D01*
X715962Y467637D01*
X716024Y467686D01*
X716089Y467732D01*
X716155Y467774D01*
X716224Y467814D01*
X716295Y467850D01*
X716368Y467882D01*
X716442Y467911D01*
X716517Y467936D01*
X716593Y467957D01*
X716671Y467975D01*
X716749Y467988D01*
X716828Y467998D01*
X716907Y468004D01*
X716986Y468006D01*
X715603Y467216D02*
X714417Y465043D01*
X711454Y470913D02*
X718566Y470913D01*
X711454Y470913D02*
X711454Y472889D01*
X711456Y472975D01*
X711462Y473061D01*
X711471Y473147D01*
X711484Y473232D01*
X711501Y473317D01*
X711521Y473400D01*
X711545Y473483D01*
X711573Y473565D01*
X711604Y473645D01*
X711639Y473724D01*
X711677Y473801D01*
X711719Y473877D01*
X711763Y473951D01*
X711811Y474022D01*
X711862Y474092D01*
X711916Y474159D01*
X711973Y474224D01*
X712033Y474286D01*
X712095Y474346D01*
X712160Y474403D01*
X712227Y474457D01*
X712297Y474508D01*
X712368Y474556D01*
X712442Y474600D01*
X712518Y474642D01*
X712595Y474680D01*
X712674Y474715D01*
X712754Y474746D01*
X712836Y474774D01*
X712919Y474798D01*
X713002Y474818D01*
X713087Y474835D01*
X713172Y474848D01*
X713258Y474857D01*
X713344Y474863D01*
X713430Y474865D01*
X713430Y474864D02*
X716590Y474864D01*
X716590Y474865D02*
X716676Y474863D01*
X716762Y474857D01*
X716848Y474848D01*
X716933Y474835D01*
X717018Y474818D01*
X717101Y474798D01*
X717184Y474774D01*
X717266Y474746D01*
X717346Y474715D01*
X717425Y474680D01*
X717502Y474642D01*
X717578Y474600D01*
X717652Y474556D01*
X717723Y474508D01*
X717793Y474457D01*
X717860Y474403D01*
X717925Y474346D01*
X717987Y474286D01*
X718047Y474224D01*
X718104Y474159D01*
X718158Y474092D01*
X718209Y474022D01*
X718257Y473951D01*
X718301Y473877D01*
X718343Y473801D01*
X718381Y473724D01*
X718416Y473645D01*
X718447Y473565D01*
X718475Y473483D01*
X718499Y473400D01*
X718519Y473317D01*
X718536Y473232D01*
X718549Y473147D01*
X718558Y473061D01*
X718564Y472975D01*
X718566Y472889D01*
X718566Y470913D01*
X718566Y477605D02*
X711454Y479975D01*
X718566Y482346D01*
X716788Y481753D02*
X716788Y478197D01*
X716986Y445150D02*
X717064Y445148D01*
X717141Y445142D01*
X717218Y445133D01*
X717294Y445120D01*
X717370Y445103D01*
X717445Y445082D01*
X717518Y445058D01*
X717591Y445030D01*
X717662Y444998D01*
X717731Y444963D01*
X717798Y444925D01*
X717864Y444884D01*
X717927Y444839D01*
X717988Y444791D01*
X718047Y444741D01*
X718103Y444687D01*
X718157Y444631D01*
X718207Y444572D01*
X718255Y444511D01*
X718300Y444448D01*
X718341Y444382D01*
X718379Y444315D01*
X718414Y444246D01*
X718446Y444175D01*
X718474Y444102D01*
X718498Y444029D01*
X718519Y443954D01*
X718536Y443878D01*
X718549Y443802D01*
X718558Y443725D01*
X718564Y443648D01*
X718566Y443570D01*
X718564Y443455D01*
X718558Y443341D01*
X718548Y443227D01*
X718535Y443113D01*
X718517Y443000D01*
X718495Y442887D01*
X718470Y442775D01*
X718441Y442665D01*
X718408Y442555D01*
X718371Y442446D01*
X718331Y442339D01*
X718287Y442233D01*
X718239Y442129D01*
X718188Y442026D01*
X718133Y441926D01*
X718075Y441827D01*
X718013Y441730D01*
X717949Y441636D01*
X717881Y441543D01*
X717809Y441453D01*
X717735Y441366D01*
X717658Y441281D01*
X717578Y441199D01*
X713034Y441398D02*
X712956Y441400D01*
X712879Y441406D01*
X712802Y441415D01*
X712726Y441428D01*
X712650Y441445D01*
X712575Y441466D01*
X712502Y441490D01*
X712429Y441518D01*
X712358Y441550D01*
X712289Y441585D01*
X712222Y441623D01*
X712156Y441664D01*
X712093Y441709D01*
X712032Y441757D01*
X711973Y441807D01*
X711917Y441861D01*
X711863Y441917D01*
X711813Y441976D01*
X711765Y442037D01*
X711720Y442100D01*
X711679Y442166D01*
X711641Y442233D01*
X711606Y442302D01*
X711574Y442373D01*
X711546Y442446D01*
X711522Y442519D01*
X711501Y442594D01*
X711484Y442670D01*
X711471Y442746D01*
X711462Y442823D01*
X711456Y442900D01*
X711454Y442978D01*
X711456Y443084D01*
X711462Y443190D01*
X711471Y443295D01*
X711484Y443400D01*
X711501Y443505D01*
X711522Y443609D01*
X711546Y443712D01*
X711574Y443814D01*
X711606Y443915D01*
X711641Y444015D01*
X711680Y444113D01*
X711723Y444211D01*
X711768Y444306D01*
X711817Y444400D01*
X711870Y444492D01*
X711926Y444582D01*
X711985Y444670D01*
X712047Y444756D01*
X714417Y442187D02*
X714375Y442120D01*
X714330Y442055D01*
X714281Y441992D01*
X714230Y441931D01*
X714175Y441874D01*
X714118Y441819D01*
X714058Y441766D01*
X713996Y441717D01*
X713931Y441671D01*
X713865Y441629D01*
X713796Y441589D01*
X713725Y441553D01*
X713652Y441521D01*
X713578Y441492D01*
X713503Y441467D01*
X713427Y441446D01*
X713349Y441428D01*
X713271Y441415D01*
X713192Y441405D01*
X713113Y441399D01*
X713034Y441397D01*
X715603Y444361D02*
X715645Y444428D01*
X715690Y444493D01*
X715739Y444556D01*
X715790Y444617D01*
X715845Y444674D01*
X715902Y444729D01*
X715962Y444782D01*
X716024Y444831D01*
X716089Y444877D01*
X716155Y444919D01*
X716224Y444959D01*
X716295Y444995D01*
X716368Y445027D01*
X716442Y445056D01*
X716517Y445081D01*
X716593Y445102D01*
X716671Y445120D01*
X716749Y445133D01*
X716828Y445143D01*
X716907Y445149D01*
X716986Y445151D01*
X715603Y444361D02*
X714417Y442188D01*
X718566Y449391D02*
X718566Y450972D01*
X718566Y449391D02*
X718564Y449313D01*
X718558Y449236D01*
X718549Y449159D01*
X718536Y449083D01*
X718519Y449007D01*
X718498Y448932D01*
X718474Y448859D01*
X718446Y448786D01*
X718414Y448715D01*
X718379Y448646D01*
X718341Y448579D01*
X718300Y448513D01*
X718255Y448450D01*
X718207Y448389D01*
X718157Y448330D01*
X718103Y448274D01*
X718047Y448220D01*
X717988Y448170D01*
X717927Y448122D01*
X717864Y448077D01*
X717798Y448036D01*
X717731Y447998D01*
X717662Y447963D01*
X717591Y447931D01*
X717518Y447903D01*
X717445Y447879D01*
X717370Y447858D01*
X717294Y447841D01*
X717218Y447828D01*
X717141Y447819D01*
X717064Y447813D01*
X716986Y447811D01*
X713034Y447811D01*
X713034Y447810D02*
X712956Y447812D01*
X712879Y447818D01*
X712802Y447827D01*
X712726Y447840D01*
X712650Y447857D01*
X712575Y447878D01*
X712501Y447902D01*
X712429Y447930D01*
X712358Y447962D01*
X712289Y447997D01*
X712221Y448035D01*
X712156Y448076D01*
X712092Y448121D01*
X712031Y448169D01*
X711972Y448220D01*
X711916Y448273D01*
X711863Y448329D01*
X711812Y448388D01*
X711764Y448449D01*
X711719Y448513D01*
X711678Y448578D01*
X711640Y448646D01*
X711605Y448715D01*
X711573Y448786D01*
X711545Y448858D01*
X711521Y448932D01*
X711500Y449007D01*
X711483Y449083D01*
X711470Y449159D01*
X711461Y449236D01*
X711455Y449313D01*
X711453Y449391D01*
X711454Y449391D02*
X711454Y450972D01*
X711454Y453785D02*
X718566Y453785D01*
X718566Y456946D01*
X718566Y414834D02*
X711454Y414834D01*
X711454Y416809D01*
X711456Y416896D01*
X711462Y416984D01*
X711471Y417071D01*
X711485Y417157D01*
X711502Y417243D01*
X711523Y417327D01*
X711548Y417411D01*
X711577Y417494D01*
X711609Y417575D01*
X711644Y417655D01*
X711683Y417733D01*
X711726Y417810D01*
X711772Y417884D01*
X711821Y417956D01*
X711873Y418026D01*
X711929Y418094D01*
X711987Y418159D01*
X712048Y418222D01*
X712112Y418281D01*
X712179Y418338D01*
X712247Y418392D01*
X712319Y418443D01*
X712392Y418490D01*
X712467Y418535D01*
X712545Y418576D01*
X712624Y418613D01*
X712704Y418647D01*
X712786Y418677D01*
X712869Y418704D01*
X712954Y418727D01*
X713039Y418746D01*
X713125Y418761D01*
X713212Y418773D01*
X713299Y418781D01*
X713386Y418785D01*
X713474Y418785D01*
X713561Y418781D01*
X713648Y418773D01*
X713735Y418761D01*
X713821Y418746D01*
X713906Y418727D01*
X713991Y418704D01*
X714074Y418677D01*
X714156Y418647D01*
X714236Y418613D01*
X714315Y418576D01*
X714393Y418535D01*
X714468Y418490D01*
X714541Y418443D01*
X714613Y418392D01*
X714681Y418338D01*
X714748Y418281D01*
X714812Y418222D01*
X714873Y418159D01*
X714931Y418094D01*
X714987Y418026D01*
X715039Y417956D01*
X715088Y417884D01*
X715134Y417810D01*
X715177Y417733D01*
X715216Y417655D01*
X715251Y417575D01*
X715283Y417494D01*
X715312Y417411D01*
X715337Y417327D01*
X715358Y417243D01*
X715375Y417157D01*
X715389Y417071D01*
X715398Y416984D01*
X715404Y416896D01*
X715406Y416809D01*
X715405Y416809D02*
X715405Y414834D01*
X715405Y417205D02*
X718566Y418785D01*
X718566Y423793D02*
X718564Y423871D01*
X718558Y423948D01*
X718549Y424025D01*
X718536Y424101D01*
X718519Y424177D01*
X718498Y424252D01*
X718474Y424325D01*
X718446Y424398D01*
X718414Y424469D01*
X718379Y424538D01*
X718341Y424605D01*
X718300Y424671D01*
X718255Y424734D01*
X718207Y424795D01*
X718157Y424854D01*
X718103Y424910D01*
X718047Y424964D01*
X717988Y425014D01*
X717927Y425062D01*
X717864Y425107D01*
X717798Y425148D01*
X717731Y425186D01*
X717662Y425221D01*
X717591Y425253D01*
X717518Y425281D01*
X717445Y425305D01*
X717370Y425326D01*
X717294Y425343D01*
X717218Y425356D01*
X717141Y425365D01*
X717064Y425371D01*
X716986Y425373D01*
X718566Y423793D02*
X718564Y423678D01*
X718558Y423564D01*
X718548Y423450D01*
X718535Y423336D01*
X718517Y423223D01*
X718495Y423110D01*
X718470Y422998D01*
X718441Y422888D01*
X718408Y422778D01*
X718371Y422669D01*
X718331Y422562D01*
X718287Y422456D01*
X718239Y422352D01*
X718188Y422249D01*
X718133Y422149D01*
X718075Y422050D01*
X718013Y421953D01*
X717949Y421859D01*
X717881Y421766D01*
X717809Y421676D01*
X717735Y421589D01*
X717658Y421504D01*
X717578Y421422D01*
X713034Y421621D02*
X712956Y421623D01*
X712879Y421629D01*
X712802Y421638D01*
X712726Y421651D01*
X712650Y421668D01*
X712575Y421689D01*
X712502Y421713D01*
X712429Y421741D01*
X712358Y421773D01*
X712289Y421808D01*
X712222Y421846D01*
X712156Y421887D01*
X712093Y421932D01*
X712032Y421980D01*
X711973Y422030D01*
X711917Y422084D01*
X711863Y422140D01*
X711813Y422199D01*
X711765Y422260D01*
X711720Y422323D01*
X711679Y422389D01*
X711641Y422456D01*
X711606Y422525D01*
X711574Y422596D01*
X711546Y422669D01*
X711522Y422742D01*
X711501Y422817D01*
X711484Y422893D01*
X711471Y422969D01*
X711462Y423046D01*
X711456Y423123D01*
X711454Y423201D01*
X711456Y423307D01*
X711462Y423413D01*
X711471Y423518D01*
X711484Y423623D01*
X711501Y423728D01*
X711522Y423832D01*
X711546Y423935D01*
X711574Y424037D01*
X711606Y424138D01*
X711641Y424238D01*
X711680Y424336D01*
X711723Y424434D01*
X711768Y424529D01*
X711817Y424623D01*
X711870Y424715D01*
X711926Y424805D01*
X711985Y424893D01*
X712047Y424979D01*
X714417Y422410D02*
X714375Y422343D01*
X714330Y422278D01*
X714281Y422215D01*
X714230Y422154D01*
X714175Y422097D01*
X714118Y422042D01*
X714058Y421989D01*
X713996Y421940D01*
X713931Y421894D01*
X713865Y421852D01*
X713796Y421812D01*
X713725Y421776D01*
X713652Y421744D01*
X713578Y421715D01*
X713503Y421690D01*
X713427Y421669D01*
X713349Y421651D01*
X713271Y421638D01*
X713192Y421628D01*
X713113Y421622D01*
X713034Y421620D01*
X715603Y424584D02*
X715645Y424651D01*
X715690Y424716D01*
X715739Y424779D01*
X715790Y424840D01*
X715845Y424897D01*
X715902Y424952D01*
X715962Y425005D01*
X716024Y425054D01*
X716089Y425100D01*
X716155Y425142D01*
X716224Y425182D01*
X716295Y425218D01*
X716368Y425250D01*
X716442Y425279D01*
X716517Y425304D01*
X716593Y425325D01*
X716671Y425343D01*
X716749Y425356D01*
X716828Y425366D01*
X716907Y425372D01*
X716986Y425374D01*
X715603Y424584D02*
X714417Y422410D01*
X711454Y429570D02*
X718566Y429570D01*
X711454Y427595D02*
X711454Y431546D01*
M02*
