G04 EAGLE Gerber RS-274X export*
G75*
%MOMM*%
%FSLAX34Y34*%
%LPD*%
%INSoldermask Top*%
%IPPOS*%
%AMOC8*
5,1,8,0,0,1.08239X$1,22.5*%
G01*
%ADD10C,1.524000*%
%ADD11C,2.153200*%
%ADD12R,1.711200X1.711200*%
%ADD13C,1.711200*%
%ADD14C,1.854200*%
%ADD15C,2.082800*%
%ADD16C,2.978200*%
%ADD17C,2.235200*%

G36*
X826736Y642677D02*
X826736Y642677D01*
X826811Y642674D01*
X827787Y642776D01*
X827835Y642790D01*
X827925Y642806D01*
X828854Y643122D01*
X828898Y643147D01*
X828983Y643183D01*
X829818Y643697D01*
X829855Y643731D01*
X829930Y643785D01*
X830630Y644473D01*
X830659Y644514D01*
X830719Y644583D01*
X831248Y645410D01*
X831267Y645456D01*
X831311Y645537D01*
X831643Y646460D01*
X831651Y646510D01*
X831676Y646599D01*
X831794Y647573D01*
X831791Y647623D01*
X831795Y647709D01*
X831700Y648711D01*
X831686Y648760D01*
X831670Y648850D01*
X831354Y649806D01*
X831330Y649851D01*
X831295Y649935D01*
X830773Y650796D01*
X830740Y650834D01*
X830687Y650909D01*
X829987Y651633D01*
X829946Y651662D01*
X829877Y651723D01*
X829034Y652273D01*
X828988Y652293D01*
X828907Y652337D01*
X827963Y652685D01*
X827913Y652694D01*
X827825Y652719D01*
X826827Y652849D01*
X826784Y652847D01*
X826658Y652848D01*
X825647Y652709D01*
X825599Y652693D01*
X825509Y652674D01*
X824554Y652312D01*
X824511Y652286D01*
X824427Y652248D01*
X823577Y651683D01*
X823540Y651648D01*
X823468Y651591D01*
X822764Y650852D01*
X822736Y650809D01*
X822678Y650738D01*
X822157Y649860D01*
X822139Y649813D01*
X822098Y649731D01*
X821785Y648759D01*
X821778Y648709D01*
X821757Y648620D01*
X821668Y647602D01*
X821673Y647552D01*
X821672Y647461D01*
X821803Y646497D01*
X821819Y646449D01*
X821838Y646360D01*
X822180Y645449D01*
X822206Y645406D01*
X822245Y645323D01*
X822782Y644511D01*
X822817Y644475D01*
X822873Y644402D01*
X823577Y643730D01*
X823619Y643703D01*
X823690Y643644D01*
X824526Y643146D01*
X824573Y643128D01*
X824655Y643088D01*
X825581Y642788D01*
X825631Y642781D01*
X825720Y642759D01*
X826689Y642673D01*
X826736Y642677D01*
G37*
G36*
X798745Y642677D02*
X798745Y642677D01*
X798820Y642674D01*
X799796Y642776D01*
X799844Y642790D01*
X799934Y642806D01*
X800863Y643122D01*
X800907Y643147D01*
X800992Y643183D01*
X801827Y643697D01*
X801864Y643731D01*
X801939Y643785D01*
X802639Y644473D01*
X802668Y644514D01*
X802728Y644583D01*
X803257Y645410D01*
X803276Y645456D01*
X803320Y645537D01*
X803652Y646460D01*
X803660Y646510D01*
X803685Y646599D01*
X803803Y647573D01*
X803800Y647623D01*
X803804Y647709D01*
X803709Y648711D01*
X803695Y648760D01*
X803679Y648850D01*
X803363Y649806D01*
X803339Y649851D01*
X803304Y649935D01*
X802782Y650796D01*
X802749Y650834D01*
X802696Y650909D01*
X801996Y651633D01*
X801955Y651662D01*
X801886Y651723D01*
X801043Y652273D01*
X800997Y652293D01*
X800916Y652337D01*
X799972Y652685D01*
X799922Y652694D01*
X799834Y652719D01*
X798836Y652849D01*
X798793Y652847D01*
X798667Y652848D01*
X797656Y652709D01*
X797608Y652693D01*
X797518Y652674D01*
X796563Y652312D01*
X796520Y652286D01*
X796436Y652248D01*
X795586Y651683D01*
X795549Y651648D01*
X795477Y651591D01*
X794773Y650852D01*
X794745Y650809D01*
X794687Y650738D01*
X794166Y649860D01*
X794148Y649813D01*
X794107Y649731D01*
X793794Y648759D01*
X793787Y648709D01*
X793766Y648620D01*
X793677Y647602D01*
X793682Y647552D01*
X793681Y647461D01*
X793812Y646497D01*
X793828Y646449D01*
X793847Y646360D01*
X794189Y645449D01*
X794215Y645406D01*
X794254Y645323D01*
X794791Y644511D01*
X794826Y644475D01*
X794882Y644402D01*
X795586Y643730D01*
X795628Y643703D01*
X795699Y643644D01*
X796535Y643146D01*
X796582Y643128D01*
X796664Y643088D01*
X797590Y642788D01*
X797640Y642781D01*
X797729Y642759D01*
X798698Y642673D01*
X798745Y642677D01*
G37*
D10*
X723900Y704596D02*
X723900Y717804D01*
X698500Y717804D02*
X698500Y704596D01*
D11*
X342900Y708500D03*
X342900Y650500D03*
X390900Y678500D03*
D12*
X444500Y571500D03*
D13*
X444500Y546100D03*
X444500Y520700D03*
X444500Y495300D03*
X444500Y469900D03*
X444500Y444500D03*
X444500Y419100D03*
X444500Y393700D03*
X444500Y368300D03*
X444500Y342900D03*
X444500Y317500D03*
X444500Y292100D03*
X596900Y571500D03*
X596900Y546100D03*
X596900Y520700D03*
X596900Y495300D03*
X596900Y469900D03*
X596900Y444500D03*
X596900Y393700D03*
X596900Y368300D03*
X596900Y317500D03*
X596900Y292100D03*
X596900Y342900D03*
X596900Y419100D03*
X444500Y266700D03*
X444500Y241300D03*
X444500Y215900D03*
X596900Y266700D03*
X596900Y241300D03*
X596900Y215900D03*
D14*
X444500Y190500D03*
X596900Y190500D03*
X596900Y596900D03*
X444500Y596900D03*
D15*
X863600Y711200D03*
X787400Y711200D03*
D16*
X520700Y698500D03*
X567700Y698500D03*
X614700Y698500D03*
D17*
X876300Y520700D03*
X876300Y495300D03*
X876300Y469900D03*
X876300Y444500D03*
X698500Y444500D03*
X698500Y419100D03*
X698500Y469900D03*
X698500Y495300D03*
X698500Y520700D03*
X698500Y546100D03*
M02*
