M48
;GenerationSoftware,Autodesk,EAGLE,9.6.2*%
;CreationDate,2021-03-14T17:37:54Z*%
FMAT,2
ICI,OFF
METRIC,TZ,000.000
T7C0.813
T6C0.900
T5C1.000
T4C1.016
T3C1.300
T2C1.651
T1C1.850
%
G90
M71
T1
X52070Y69850
X56770Y69850
X61470Y69850
T2
X44450Y19050
X59690Y19050
X59690Y59690
X44450Y59690
T3
X34290Y70850
X34290Y65050
X39090Y67850
T4
X79883Y64770
X82677Y64770
X69850Y54610
X87630Y46990
X87630Y52070
X87630Y49530
X87630Y44450
X69850Y44450
X69850Y41910
X69850Y46990
X69850Y49530
X69850Y52070
T5
X44450Y29210
X59690Y57150
X59690Y54610
X59690Y52070
X59690Y49530
X59690Y46990
X44450Y49530
X59690Y39370
X59690Y36830
X59690Y31750
X59690Y29210
X59690Y34290
X59690Y41910
X44450Y26670
X44450Y24130
X44450Y21590
X59690Y26670
X59690Y24130
X59690Y21590
X44450Y57150
X44450Y54610
X44450Y52070
X44450Y46990
X59690Y44450
X44450Y44450
X44450Y41910
X44450Y39370
X44450Y36830
X44450Y34290
X44450Y31750
T6
X78740Y71120
X86360Y71120
T7
X72390Y71120
X69850Y71120
M30